G04 #@! TF.GenerationSoftware,KiCad,Pcbnew,5.1.5-52549c5~86~ubuntu18.04.1*
G04 #@! TF.CreationDate,2020-05-03T22:10:49-04:00*
G04 #@! TF.ProjectId,lna-filt,6c6e612d-6669-46c7-942e-6b696361645f,rev?*
G04 #@! TF.SameCoordinates,Original*
G04 #@! TF.FileFunction,Soldermask,Top*
G04 #@! TF.FilePolarity,Negative*
%FSLAX46Y46*%
G04 Gerber Fmt 4.6, Leading zero omitted, Abs format (unit mm)*
G04 Created by KiCad (PCBNEW 5.1.5-52549c5~86~ubuntu18.04.1) date 2020-05-03 22:10:49*
%MOMM*%
%LPD*%
G04 APERTURE LIST*
%ADD10C,0.100000*%
G04 APERTURE END LIST*
D10*
G36*
X132591000Y-80051000D02*
G01*
X127409000Y-80051000D01*
X127409000Y-78449000D01*
X132591000Y-78449000D01*
X132591000Y-80051000D01*
G37*
G36*
X87591000Y-80051000D02*
G01*
X82409000Y-80051000D01*
X82409000Y-78449000D01*
X87591000Y-78449000D01*
X87591000Y-80051000D01*
G37*
G36*
X133000000Y-77000000D02*
G01*
X82000000Y-77000000D01*
X82000000Y-73000000D01*
X133000000Y-73000000D01*
X133000000Y-77000000D01*
G37*
G36*
X87591000Y-71551000D02*
G01*
X82409000Y-71551000D01*
X82409000Y-69949000D01*
X87591000Y-69949000D01*
X87591000Y-71551000D01*
G37*
G36*
X132591000Y-71551000D02*
G01*
X127409000Y-71551000D01*
X127409000Y-69949000D01*
X132591000Y-69949000D01*
X132591000Y-71551000D01*
G37*
G36*
X132591000Y-65051000D02*
G01*
X127409000Y-65051000D01*
X127409000Y-63449000D01*
X132591000Y-63449000D01*
X132591000Y-65051000D01*
G37*
G36*
X87591000Y-65051000D02*
G01*
X82409000Y-65051000D01*
X82409000Y-63449000D01*
X87591000Y-63449000D01*
X87591000Y-65051000D01*
G37*
G36*
X110781938Y-55671716D02*
G01*
X110802557Y-55677971D01*
X110821553Y-55688124D01*
X110838208Y-55701792D01*
X110851876Y-55718447D01*
X110862029Y-55737443D01*
X110868284Y-55758062D01*
X110871000Y-55785640D01*
X110871000Y-55875001D01*
X110873402Y-55899387D01*
X110880515Y-55922836D01*
X110892066Y-55944447D01*
X110907611Y-55963389D01*
X110926553Y-55978934D01*
X110948164Y-55990485D01*
X110971613Y-55997598D01*
X110995999Y-56000000D01*
X116000000Y-56000000D01*
X117963389Y-57963389D01*
X117982331Y-57978934D01*
X118003942Y-57990485D01*
X118027391Y-57997598D01*
X118051777Y-58000000D01*
X133000000Y-58000000D01*
X133000000Y-62000000D01*
X116000000Y-62000000D01*
X114036611Y-60036611D01*
X114017669Y-60021066D01*
X113996058Y-60009515D01*
X113972609Y-60002402D01*
X113948223Y-60000000D01*
X108805999Y-60000000D01*
X108781613Y-60002402D01*
X108758164Y-60009515D01*
X108736553Y-60021066D01*
X108717611Y-60036611D01*
X108702066Y-60055553D01*
X108690515Y-60077164D01*
X108683402Y-60100613D01*
X108681000Y-60124999D01*
X108681000Y-60326000D01*
X107519000Y-60326000D01*
X107519000Y-57674000D01*
X108375001Y-57674000D01*
X108399387Y-57671598D01*
X108422836Y-57664485D01*
X108444447Y-57652934D01*
X108463389Y-57637389D01*
X108478934Y-57618447D01*
X108490485Y-57596836D01*
X108497598Y-57573387D01*
X108500000Y-57549001D01*
X108500000Y-56000000D01*
X110004001Y-56000000D01*
X110028387Y-55997598D01*
X110051836Y-55990485D01*
X110073447Y-55978934D01*
X110092389Y-55963389D01*
X110107934Y-55944447D01*
X110119485Y-55922836D01*
X110126598Y-55899387D01*
X110129000Y-55875001D01*
X110129000Y-55785640D01*
X110131716Y-55758062D01*
X110137971Y-55737443D01*
X110148124Y-55718447D01*
X110161792Y-55701792D01*
X110178447Y-55688124D01*
X110197443Y-55677971D01*
X110218062Y-55671716D01*
X110245640Y-55669000D01*
X110754360Y-55669000D01*
X110781938Y-55671716D01*
G37*
G36*
X106481000Y-60326000D02*
G01*
X105624999Y-60326000D01*
X105600613Y-60328402D01*
X105577164Y-60335515D01*
X105555553Y-60347066D01*
X105536611Y-60362611D01*
X105521066Y-60381553D01*
X105509515Y-60403164D01*
X105502402Y-60426613D01*
X105500000Y-60450999D01*
X105500000Y-62000000D01*
X82000000Y-62000000D01*
X82000000Y-58000000D01*
X105194001Y-58000000D01*
X105218387Y-57997598D01*
X105241836Y-57990485D01*
X105263447Y-57978934D01*
X105282389Y-57963389D01*
X105297934Y-57944447D01*
X105309485Y-57922836D01*
X105316598Y-57899387D01*
X105319000Y-57875001D01*
X105319000Y-57674000D01*
X106481000Y-57674000D01*
X106481000Y-60326000D01*
G37*
G36*
X132591000Y-56551000D02*
G01*
X127409000Y-56551000D01*
X127409000Y-54949000D01*
X132591000Y-54949000D01*
X132591000Y-56551000D01*
G37*
G36*
X87591000Y-56551000D02*
G01*
X82409000Y-56551000D01*
X82409000Y-54949000D01*
X87591000Y-54949000D01*
X87591000Y-56551000D01*
G37*
G36*
X111741938Y-54631716D02*
G01*
X111762557Y-54637971D01*
X111781553Y-54648124D01*
X111798208Y-54661792D01*
X111811876Y-54678447D01*
X111822029Y-54697443D01*
X111828284Y-54718062D01*
X111831000Y-54745640D01*
X111831000Y-55254360D01*
X111828284Y-55281938D01*
X111822029Y-55302557D01*
X111811876Y-55321553D01*
X111798208Y-55338208D01*
X111781553Y-55351876D01*
X111762557Y-55362029D01*
X111741938Y-55368284D01*
X111714360Y-55371000D01*
X111255640Y-55371000D01*
X111228062Y-55368284D01*
X111207443Y-55362029D01*
X111188447Y-55351876D01*
X111171792Y-55338208D01*
X111158124Y-55321553D01*
X111147971Y-55302557D01*
X111141716Y-55281938D01*
X111139000Y-55254360D01*
X111139000Y-54745640D01*
X111141716Y-54718062D01*
X111147971Y-54697443D01*
X111158124Y-54678447D01*
X111171792Y-54661792D01*
X111188447Y-54648124D01*
X111207443Y-54637971D01*
X111228062Y-54631716D01*
X111255640Y-54629000D01*
X111714360Y-54629000D01*
X111741938Y-54631716D01*
G37*
G36*
X110771938Y-54631716D02*
G01*
X110792557Y-54637971D01*
X110811553Y-54648124D01*
X110828208Y-54661792D01*
X110841876Y-54678447D01*
X110852029Y-54697443D01*
X110858284Y-54718062D01*
X110861000Y-54745640D01*
X110861000Y-55254360D01*
X110858284Y-55281938D01*
X110852029Y-55302557D01*
X110841876Y-55321553D01*
X110828208Y-55338208D01*
X110811553Y-55351876D01*
X110792557Y-55362029D01*
X110771938Y-55368284D01*
X110744360Y-55371000D01*
X110285640Y-55371000D01*
X110258062Y-55368284D01*
X110237443Y-55362029D01*
X110218447Y-55351876D01*
X110201792Y-55338208D01*
X110188124Y-55321553D01*
X110177971Y-55302557D01*
X110171716Y-55281938D01*
X110169000Y-55254360D01*
X110169000Y-54745640D01*
X110171716Y-54718062D01*
X110177971Y-54697443D01*
X110188124Y-54678447D01*
X110201792Y-54661792D01*
X110218447Y-54648124D01*
X110237443Y-54637971D01*
X110258062Y-54631716D01*
X110285640Y-54629000D01*
X110744360Y-54629000D01*
X110771938Y-54631716D01*
G37*
G36*
X85263500Y-49461886D02*
G01*
X85264102Y-49474138D01*
X85266649Y-49500000D01*
X85264102Y-49525862D01*
X85263500Y-49538114D01*
X85263500Y-49611406D01*
X85254543Y-49628164D01*
X85250415Y-49639701D01*
X85224632Y-49724693D01*
X85216854Y-49750336D01*
X85156406Y-49863425D01*
X85075054Y-49962554D01*
X84975925Y-50043906D01*
X84862836Y-50104354D01*
X84830904Y-50114040D01*
X84740118Y-50141580D01*
X84676355Y-50147860D01*
X84644474Y-50151000D01*
X83880526Y-50151000D01*
X83848645Y-50147860D01*
X83784882Y-50141580D01*
X83694096Y-50114040D01*
X83662164Y-50104354D01*
X83549075Y-50043906D01*
X83449946Y-49962554D01*
X83368594Y-49863425D01*
X83308146Y-49750336D01*
X83300368Y-49724693D01*
X83274587Y-49639708D01*
X83265213Y-49617075D01*
X83261500Y-49611518D01*
X83261500Y-49538114D01*
X83260898Y-49525862D01*
X83258351Y-49500000D01*
X83260898Y-49474138D01*
X83261500Y-49461886D01*
X83261500Y-48249000D01*
X85263500Y-48249000D01*
X85263500Y-49461886D01*
G37*
G36*
X87188848Y-42753820D02*
G01*
X87188850Y-42753821D01*
X87188851Y-42753821D01*
X87330074Y-42812317D01*
X87330077Y-42812319D01*
X87457169Y-42897239D01*
X87565261Y-43005331D01*
X87636460Y-43111888D01*
X87650183Y-43132426D01*
X87708679Y-43273649D01*
X87738500Y-43423571D01*
X87738500Y-43576429D01*
X87708679Y-43726351D01*
X87650183Y-43867574D01*
X87650181Y-43867577D01*
X87565261Y-43994669D01*
X87457169Y-44102761D01*
X87372440Y-44159375D01*
X87330074Y-44187683D01*
X87279772Y-44208519D01*
X87258164Y-44220068D01*
X87239222Y-44235614D01*
X87223677Y-44254556D01*
X87212126Y-44276166D01*
X87205013Y-44299615D01*
X87202611Y-44324001D01*
X87205013Y-44348387D01*
X87212126Y-44371836D01*
X87223677Y-44393447D01*
X87239223Y-44412389D01*
X87258165Y-44427934D01*
X87279775Y-44439485D01*
X87303224Y-44446598D01*
X87327610Y-44449000D01*
X87688500Y-44449000D01*
X87688500Y-47551000D01*
X87327610Y-47551000D01*
X87303224Y-47553402D01*
X87279775Y-47560515D01*
X87258164Y-47572066D01*
X87239222Y-47587611D01*
X87223677Y-47606553D01*
X87212126Y-47628164D01*
X87205013Y-47651613D01*
X87202611Y-47675999D01*
X87205013Y-47700385D01*
X87212126Y-47723834D01*
X87223677Y-47745445D01*
X87239222Y-47764387D01*
X87258164Y-47779932D01*
X87279772Y-47791481D01*
X87330074Y-47812317D01*
X87330075Y-47812318D01*
X87457169Y-47897239D01*
X87565261Y-48005331D01*
X87650181Y-48132423D01*
X87650183Y-48132426D01*
X87691324Y-48231751D01*
X87708680Y-48273652D01*
X87736799Y-48415017D01*
X87738500Y-48423571D01*
X87738500Y-48576429D01*
X87708679Y-48726351D01*
X87650183Y-48867574D01*
X87650181Y-48867577D01*
X87565261Y-48994669D01*
X87457169Y-49102761D01*
X87406564Y-49136574D01*
X87330074Y-49187683D01*
X87188851Y-49246179D01*
X87188850Y-49246179D01*
X87188848Y-49246180D01*
X87038931Y-49276000D01*
X86886069Y-49276000D01*
X86736152Y-49246180D01*
X86736150Y-49246179D01*
X86736149Y-49246179D01*
X86594926Y-49187683D01*
X86518436Y-49136574D01*
X86467831Y-49102761D01*
X86359739Y-48994669D01*
X86274819Y-48867577D01*
X86274817Y-48867574D01*
X86216321Y-48726351D01*
X86186500Y-48576429D01*
X86186500Y-48423571D01*
X86188201Y-48415017D01*
X86216320Y-48273652D01*
X86233676Y-48231751D01*
X86274817Y-48132426D01*
X86274819Y-48132423D01*
X86359739Y-48005331D01*
X86467831Y-47897239D01*
X86594925Y-47812318D01*
X86594926Y-47812317D01*
X86645228Y-47791481D01*
X86666836Y-47779932D01*
X86685778Y-47764386D01*
X86701323Y-47745444D01*
X86712874Y-47723834D01*
X86719987Y-47700385D01*
X86722389Y-47675999D01*
X86719987Y-47651613D01*
X86712874Y-47628164D01*
X86701323Y-47606553D01*
X86685777Y-47587611D01*
X86666835Y-47572066D01*
X86645225Y-47560515D01*
X86621776Y-47553402D01*
X86597390Y-47551000D01*
X86236500Y-47551000D01*
X86236500Y-44449000D01*
X86597390Y-44449000D01*
X86621776Y-44446598D01*
X86645225Y-44439485D01*
X86666836Y-44427934D01*
X86685778Y-44412389D01*
X86701323Y-44393447D01*
X86712874Y-44371836D01*
X86719987Y-44348387D01*
X86722389Y-44324001D01*
X86719987Y-44299615D01*
X86712874Y-44276166D01*
X86701323Y-44254555D01*
X86685778Y-44235613D01*
X86666836Y-44220068D01*
X86645228Y-44208519D01*
X86594926Y-44187683D01*
X86552560Y-44159375D01*
X86467831Y-44102761D01*
X86359739Y-43994669D01*
X86274819Y-43867577D01*
X86274817Y-43867574D01*
X86216321Y-43726351D01*
X86186500Y-43576429D01*
X86186500Y-43423571D01*
X86216321Y-43273649D01*
X86274817Y-43132426D01*
X86288540Y-43111888D01*
X86359739Y-43005331D01*
X86467831Y-42897239D01*
X86594923Y-42812319D01*
X86594926Y-42812317D01*
X86736149Y-42753821D01*
X86736150Y-42753821D01*
X86736152Y-42753820D01*
X86886069Y-42724000D01*
X87038931Y-42724000D01*
X87188848Y-42753820D01*
G37*
G36*
X98084468Y-47403565D02*
G01*
X98123138Y-47415296D01*
X98158777Y-47434346D01*
X98190017Y-47459983D01*
X98215654Y-47491223D01*
X98234704Y-47526862D01*
X98246435Y-47565532D01*
X98251000Y-47611888D01*
X98251000Y-48263112D01*
X98246435Y-48309468D01*
X98234704Y-48348138D01*
X98215654Y-48383777D01*
X98190017Y-48415017D01*
X98158777Y-48440654D01*
X98123138Y-48459704D01*
X98084468Y-48471435D01*
X98038112Y-48476000D01*
X96961888Y-48476000D01*
X96915532Y-48471435D01*
X96876862Y-48459704D01*
X96841223Y-48440654D01*
X96809983Y-48415017D01*
X96784346Y-48383777D01*
X96765296Y-48348138D01*
X96753565Y-48309468D01*
X96749000Y-48263112D01*
X96749000Y-47611888D01*
X96753565Y-47565532D01*
X96765296Y-47526862D01*
X96784346Y-47491223D01*
X96809983Y-47459983D01*
X96841223Y-47434346D01*
X96876862Y-47415296D01*
X96915532Y-47403565D01*
X96961888Y-47399000D01*
X98038112Y-47399000D01*
X98084468Y-47403565D01*
G37*
G36*
X104771938Y-47631716D02*
G01*
X104792557Y-47637971D01*
X104811553Y-47648124D01*
X104828208Y-47661792D01*
X104841876Y-47678447D01*
X104852029Y-47697443D01*
X104858284Y-47718062D01*
X104861000Y-47745640D01*
X104861000Y-48254360D01*
X104858284Y-48281938D01*
X104852029Y-48302557D01*
X104841876Y-48321553D01*
X104828208Y-48338208D01*
X104811553Y-48351876D01*
X104792557Y-48362029D01*
X104771938Y-48368284D01*
X104744360Y-48371000D01*
X104285640Y-48371000D01*
X104258062Y-48368284D01*
X104237443Y-48362029D01*
X104218447Y-48351876D01*
X104201792Y-48338208D01*
X104188124Y-48321553D01*
X104177971Y-48302557D01*
X104171716Y-48281938D01*
X104169000Y-48254360D01*
X104169000Y-47745640D01*
X104171716Y-47718062D01*
X104177971Y-47697443D01*
X104188124Y-47678447D01*
X104201792Y-47661792D01*
X104218447Y-47648124D01*
X104237443Y-47637971D01*
X104258062Y-47631716D01*
X104285640Y-47629000D01*
X104744360Y-47629000D01*
X104771938Y-47631716D01*
G37*
G36*
X105741938Y-47631716D02*
G01*
X105762557Y-47637971D01*
X105781553Y-47648124D01*
X105798208Y-47661792D01*
X105811876Y-47678447D01*
X105822029Y-47697443D01*
X105828284Y-47718062D01*
X105831000Y-47745640D01*
X105831000Y-48254360D01*
X105828284Y-48281938D01*
X105822029Y-48302557D01*
X105811876Y-48321553D01*
X105798208Y-48338208D01*
X105781553Y-48351876D01*
X105762557Y-48362029D01*
X105741938Y-48368284D01*
X105714360Y-48371000D01*
X105255640Y-48371000D01*
X105228062Y-48368284D01*
X105207443Y-48362029D01*
X105188447Y-48351876D01*
X105171792Y-48338208D01*
X105158124Y-48321553D01*
X105147971Y-48302557D01*
X105141716Y-48281938D01*
X105139000Y-48254360D01*
X105139000Y-47745640D01*
X105141716Y-47718062D01*
X105147971Y-47697443D01*
X105158124Y-47678447D01*
X105171792Y-47661792D01*
X105188447Y-47648124D01*
X105207443Y-47637971D01*
X105228062Y-47631716D01*
X105255640Y-47629000D01*
X105714360Y-47629000D01*
X105741938Y-47631716D01*
G37*
G36*
X85263500Y-47801000D02*
G01*
X83261500Y-47801000D01*
X83261500Y-46199000D01*
X85263500Y-46199000D01*
X85263500Y-47801000D01*
G37*
G36*
X110309468Y-45253565D02*
G01*
X110348138Y-45265296D01*
X110383777Y-45284346D01*
X110415017Y-45309983D01*
X110440654Y-45341223D01*
X110459704Y-45376862D01*
X110471435Y-45415532D01*
X110476000Y-45461888D01*
X110476000Y-46538112D01*
X110471435Y-46584468D01*
X110459704Y-46623138D01*
X110440654Y-46658777D01*
X110415017Y-46690017D01*
X110383777Y-46715654D01*
X110348138Y-46734704D01*
X110309468Y-46746435D01*
X110263112Y-46751000D01*
X109611888Y-46751000D01*
X109565532Y-46746435D01*
X109526862Y-46734704D01*
X109491223Y-46715654D01*
X109459983Y-46690017D01*
X109434346Y-46658777D01*
X109415296Y-46623138D01*
X109403565Y-46584468D01*
X109399000Y-46538112D01*
X109399000Y-45461888D01*
X109403565Y-45415532D01*
X109415296Y-45376862D01*
X109434346Y-45341223D01*
X109459983Y-45309983D01*
X109491223Y-45284346D01*
X109526862Y-45265296D01*
X109565532Y-45253565D01*
X109611888Y-45249000D01*
X110263112Y-45249000D01*
X110309468Y-45253565D01*
G37*
G36*
X100434468Y-45253565D02*
G01*
X100473138Y-45265296D01*
X100508777Y-45284346D01*
X100540017Y-45309983D01*
X100565654Y-45341223D01*
X100584704Y-45376862D01*
X100596435Y-45415532D01*
X100601000Y-45461888D01*
X100601000Y-46538112D01*
X100596435Y-46584468D01*
X100584704Y-46623138D01*
X100565654Y-46658777D01*
X100540017Y-46690017D01*
X100508777Y-46715654D01*
X100473138Y-46734704D01*
X100434468Y-46746435D01*
X100388112Y-46751000D01*
X99736888Y-46751000D01*
X99690532Y-46746435D01*
X99651862Y-46734704D01*
X99616223Y-46715654D01*
X99584983Y-46690017D01*
X99559346Y-46658777D01*
X99540296Y-46623138D01*
X99528565Y-46584468D01*
X99524000Y-46538112D01*
X99524000Y-45461888D01*
X99528565Y-45415532D01*
X99540296Y-45376862D01*
X99559346Y-45341223D01*
X99584983Y-45309983D01*
X99616223Y-45284346D01*
X99651862Y-45265296D01*
X99690532Y-45253565D01*
X99736888Y-45249000D01*
X100388112Y-45249000D01*
X100434468Y-45253565D01*
G37*
G36*
X102309468Y-45253565D02*
G01*
X102348138Y-45265296D01*
X102383777Y-45284346D01*
X102415017Y-45309983D01*
X102440654Y-45341223D01*
X102459704Y-45376862D01*
X102471435Y-45415532D01*
X102476000Y-45461888D01*
X102476000Y-46538112D01*
X102471435Y-46584468D01*
X102459704Y-46623138D01*
X102440654Y-46658777D01*
X102415017Y-46690017D01*
X102383777Y-46715654D01*
X102348138Y-46734704D01*
X102309468Y-46746435D01*
X102263112Y-46751000D01*
X101611888Y-46751000D01*
X101565532Y-46746435D01*
X101526862Y-46734704D01*
X101491223Y-46715654D01*
X101459983Y-46690017D01*
X101434346Y-46658777D01*
X101415296Y-46623138D01*
X101403565Y-46584468D01*
X101399000Y-46538112D01*
X101399000Y-45461888D01*
X101403565Y-45415532D01*
X101415296Y-45376862D01*
X101434346Y-45341223D01*
X101459983Y-45309983D01*
X101491223Y-45284346D01*
X101526862Y-45265296D01*
X101565532Y-45253565D01*
X101611888Y-45249000D01*
X102263112Y-45249000D01*
X102309468Y-45253565D01*
G37*
G36*
X106309468Y-45253565D02*
G01*
X106348138Y-45265296D01*
X106383777Y-45284346D01*
X106415017Y-45309983D01*
X106440654Y-45341223D01*
X106459704Y-45376862D01*
X106471435Y-45415532D01*
X106476000Y-45461888D01*
X106476000Y-46538112D01*
X106471435Y-46584468D01*
X106459704Y-46623138D01*
X106440654Y-46658777D01*
X106415017Y-46690017D01*
X106383777Y-46715654D01*
X106348138Y-46734704D01*
X106309468Y-46746435D01*
X106263112Y-46751000D01*
X105611888Y-46751000D01*
X105565532Y-46746435D01*
X105526862Y-46734704D01*
X105491223Y-46715654D01*
X105459983Y-46690017D01*
X105434346Y-46658777D01*
X105415296Y-46623138D01*
X105403565Y-46584468D01*
X105399000Y-46538112D01*
X105399000Y-45461888D01*
X105403565Y-45415532D01*
X105415296Y-45376862D01*
X105434346Y-45341223D01*
X105459983Y-45309983D01*
X105491223Y-45284346D01*
X105526862Y-45265296D01*
X105565532Y-45253565D01*
X105611888Y-45249000D01*
X106263112Y-45249000D01*
X106309468Y-45253565D01*
G37*
G36*
X108434468Y-45253565D02*
G01*
X108473138Y-45265296D01*
X108508777Y-45284346D01*
X108540017Y-45309983D01*
X108565654Y-45341223D01*
X108584704Y-45376862D01*
X108596435Y-45415532D01*
X108601000Y-45461888D01*
X108601000Y-46538112D01*
X108596435Y-46584468D01*
X108584704Y-46623138D01*
X108565654Y-46658777D01*
X108540017Y-46690017D01*
X108508777Y-46715654D01*
X108473138Y-46734704D01*
X108434468Y-46746435D01*
X108388112Y-46751000D01*
X107736888Y-46751000D01*
X107690532Y-46746435D01*
X107651862Y-46734704D01*
X107616223Y-46715654D01*
X107584983Y-46690017D01*
X107559346Y-46658777D01*
X107540296Y-46623138D01*
X107528565Y-46584468D01*
X107524000Y-46538112D01*
X107524000Y-45461888D01*
X107528565Y-45415532D01*
X107540296Y-45376862D01*
X107559346Y-45341223D01*
X107584983Y-45309983D01*
X107616223Y-45284346D01*
X107651862Y-45265296D01*
X107690532Y-45253565D01*
X107736888Y-45249000D01*
X108388112Y-45249000D01*
X108434468Y-45253565D01*
G37*
G36*
X104434468Y-45253565D02*
G01*
X104473138Y-45265296D01*
X104508777Y-45284346D01*
X104540017Y-45309983D01*
X104565654Y-45341223D01*
X104584704Y-45376862D01*
X104596435Y-45415532D01*
X104601000Y-45461888D01*
X104601000Y-46538112D01*
X104596435Y-46584468D01*
X104584704Y-46623138D01*
X104565654Y-46658777D01*
X104540017Y-46690017D01*
X104508777Y-46715654D01*
X104473138Y-46734704D01*
X104434468Y-46746435D01*
X104388112Y-46751000D01*
X103736888Y-46751000D01*
X103690532Y-46746435D01*
X103651862Y-46734704D01*
X103616223Y-46715654D01*
X103584983Y-46690017D01*
X103559346Y-46658777D01*
X103540296Y-46623138D01*
X103528565Y-46584468D01*
X103524000Y-46538112D01*
X103524000Y-45461888D01*
X103528565Y-45415532D01*
X103540296Y-45376862D01*
X103559346Y-45341223D01*
X103584983Y-45309983D01*
X103616223Y-45284346D01*
X103651862Y-45265296D01*
X103690532Y-45253565D01*
X103736888Y-45249000D01*
X104388112Y-45249000D01*
X104434468Y-45253565D01*
G37*
G36*
X98084468Y-45528565D02*
G01*
X98123138Y-45540296D01*
X98158777Y-45559346D01*
X98190017Y-45584983D01*
X98215654Y-45616223D01*
X98234704Y-45651862D01*
X98246435Y-45690532D01*
X98251000Y-45736888D01*
X98251000Y-46388112D01*
X98246435Y-46434468D01*
X98234704Y-46473138D01*
X98215654Y-46508777D01*
X98190017Y-46540017D01*
X98158777Y-46565654D01*
X98123138Y-46584704D01*
X98084468Y-46596435D01*
X98038112Y-46601000D01*
X96961888Y-46601000D01*
X96915532Y-46596435D01*
X96876862Y-46584704D01*
X96841223Y-46565654D01*
X96809983Y-46540017D01*
X96784346Y-46508777D01*
X96765296Y-46473138D01*
X96753565Y-46434468D01*
X96749000Y-46388112D01*
X96749000Y-45736888D01*
X96753565Y-45690532D01*
X96765296Y-45651862D01*
X96784346Y-45616223D01*
X96809983Y-45584983D01*
X96841223Y-45559346D01*
X96876862Y-45540296D01*
X96915532Y-45528565D01*
X96961888Y-45524000D01*
X98038112Y-45524000D01*
X98084468Y-45528565D01*
G37*
G36*
X85263500Y-45801000D02*
G01*
X83261500Y-45801000D01*
X83261500Y-44199000D01*
X85263500Y-44199000D01*
X85263500Y-45801000D01*
G37*
G36*
X88800170Y-44400803D02*
G01*
X88811875Y-44404354D01*
X88822665Y-44410121D01*
X88832119Y-44417881D01*
X88839879Y-44427335D01*
X88845646Y-44438125D01*
X88849197Y-44449830D01*
X88851000Y-44468138D01*
X88851000Y-44891862D01*
X88849197Y-44910170D01*
X88845645Y-44921877D01*
X88835383Y-44941077D01*
X88826006Y-44963716D01*
X88821226Y-44987749D01*
X88821226Y-45012253D01*
X88826007Y-45036286D01*
X88835383Y-45058923D01*
X88845645Y-45078123D01*
X88849197Y-45089830D01*
X88851000Y-45108138D01*
X88851000Y-45531862D01*
X88849197Y-45550170D01*
X88845646Y-45561875D01*
X88839879Y-45572665D01*
X88832119Y-45582119D01*
X88822665Y-45589879D01*
X88811875Y-45595646D01*
X88800170Y-45599197D01*
X88781862Y-45601000D01*
X88418138Y-45601000D01*
X88399830Y-45599197D01*
X88388125Y-45595646D01*
X88377335Y-45589879D01*
X88367881Y-45582119D01*
X88360121Y-45572665D01*
X88354354Y-45561875D01*
X88350803Y-45550170D01*
X88349000Y-45531862D01*
X88349000Y-45108138D01*
X88350803Y-45089830D01*
X88354355Y-45078123D01*
X88364617Y-45058923D01*
X88373994Y-45036284D01*
X88378774Y-45012251D01*
X88378774Y-44987747D01*
X88373993Y-44963714D01*
X88364617Y-44941077D01*
X88354355Y-44921877D01*
X88350803Y-44910170D01*
X88349000Y-44891862D01*
X88349000Y-44468138D01*
X88350803Y-44449830D01*
X88354354Y-44438125D01*
X88360121Y-44427335D01*
X88367881Y-44417881D01*
X88377335Y-44410121D01*
X88388125Y-44404354D01*
X88399830Y-44400803D01*
X88418138Y-44399000D01*
X88781862Y-44399000D01*
X88800170Y-44400803D01*
G37*
G36*
X105501000Y-44201000D02*
G01*
X103899000Y-44201000D01*
X103899000Y-42099000D01*
X105501000Y-42099000D01*
X105501000Y-44201000D01*
G37*
G36*
X107801000Y-44201000D02*
G01*
X106199000Y-44201000D01*
X106199000Y-42099000D01*
X107801000Y-42099000D01*
X107801000Y-44201000D01*
G37*
G36*
X110101000Y-44201000D02*
G01*
X108499000Y-44201000D01*
X108499000Y-42099000D01*
X110101000Y-42099000D01*
X110101000Y-44201000D01*
G37*
G36*
X100584468Y-42903565D02*
G01*
X100623138Y-42915296D01*
X100658777Y-42934346D01*
X100690017Y-42959983D01*
X100715654Y-42991223D01*
X100734704Y-43026862D01*
X100746435Y-43065532D01*
X100751000Y-43111888D01*
X100751000Y-43763112D01*
X100746435Y-43809468D01*
X100734704Y-43848138D01*
X100715654Y-43883777D01*
X100690017Y-43915017D01*
X100658777Y-43940654D01*
X100623138Y-43959704D01*
X100584468Y-43971435D01*
X100538112Y-43976000D01*
X99461888Y-43976000D01*
X99415532Y-43971435D01*
X99376862Y-43959704D01*
X99341223Y-43940654D01*
X99309983Y-43915017D01*
X99284346Y-43883777D01*
X99265296Y-43848138D01*
X99253565Y-43809468D01*
X99249000Y-43763112D01*
X99249000Y-43111888D01*
X99253565Y-43065532D01*
X99265296Y-43026862D01*
X99284346Y-42991223D01*
X99309983Y-42959983D01*
X99341223Y-42934346D01*
X99376862Y-42915296D01*
X99415532Y-42903565D01*
X99461888Y-42899000D01*
X100538112Y-42899000D01*
X100584468Y-42903565D01*
G37*
G36*
X84676355Y-41852140D02*
G01*
X84740118Y-41858420D01*
X84825360Y-41884278D01*
X84862836Y-41895646D01*
X84975925Y-41956094D01*
X85075054Y-42037446D01*
X85156406Y-42136575D01*
X85216854Y-42249664D01*
X85216855Y-42249668D01*
X85250413Y-42360292D01*
X85259787Y-42382925D01*
X85263500Y-42388482D01*
X85263500Y-42461886D01*
X85264102Y-42474138D01*
X85266649Y-42500000D01*
X85264102Y-42525862D01*
X85263500Y-42538114D01*
X85263500Y-43751000D01*
X83261500Y-43751000D01*
X83261500Y-42538114D01*
X83260898Y-42525862D01*
X83258351Y-42500000D01*
X83260898Y-42474138D01*
X83261500Y-42461886D01*
X83261500Y-42388594D01*
X83270457Y-42371836D01*
X83274585Y-42360299D01*
X83308145Y-42249668D01*
X83308146Y-42249664D01*
X83368594Y-42136575D01*
X83449946Y-42037446D01*
X83549075Y-41956094D01*
X83662164Y-41895646D01*
X83699640Y-41884278D01*
X83784882Y-41858420D01*
X83848645Y-41852140D01*
X83880526Y-41849000D01*
X84644474Y-41849000D01*
X84676355Y-41852140D01*
G37*
G36*
X94126366Y-38915695D02*
G01*
X94283460Y-38963349D01*
X94428231Y-39040731D01*
X94555128Y-39144872D01*
X94659269Y-39271769D01*
X94736651Y-39416540D01*
X94784305Y-39573634D01*
X94801000Y-39743140D01*
X94801000Y-41656860D01*
X94784305Y-41826366D01*
X94736651Y-41983460D01*
X94659269Y-42128231D01*
X94555128Y-42255128D01*
X94428231Y-42359269D01*
X94283460Y-42436651D01*
X94126366Y-42484305D01*
X93956860Y-42501000D01*
X92043140Y-42501000D01*
X91873634Y-42484305D01*
X91716540Y-42436651D01*
X91571769Y-42359269D01*
X91444872Y-42255128D01*
X91340731Y-42128231D01*
X91263349Y-41983460D01*
X91215695Y-41826366D01*
X91199000Y-41656860D01*
X91199000Y-39743140D01*
X91215695Y-39573634D01*
X91263349Y-39416540D01*
X91340731Y-39271769D01*
X91444872Y-39144872D01*
X91571769Y-39040731D01*
X91716540Y-38963349D01*
X91873634Y-38915695D01*
X92043140Y-38899000D01*
X93956860Y-38899000D01*
X94126366Y-38915695D01*
G37*
G36*
X100584468Y-41028565D02*
G01*
X100623138Y-41040296D01*
X100658777Y-41059346D01*
X100690017Y-41084983D01*
X100715654Y-41116223D01*
X100734704Y-41151862D01*
X100746435Y-41190532D01*
X100751000Y-41236888D01*
X100751000Y-41888112D01*
X100746435Y-41934468D01*
X100734704Y-41973138D01*
X100715654Y-42008777D01*
X100690017Y-42040017D01*
X100658777Y-42065654D01*
X100623138Y-42084704D01*
X100584468Y-42096435D01*
X100538112Y-42101000D01*
X99461888Y-42101000D01*
X99415532Y-42096435D01*
X99376862Y-42084704D01*
X99341223Y-42065654D01*
X99309983Y-42040017D01*
X99284346Y-42008777D01*
X99265296Y-41973138D01*
X99253565Y-41934468D01*
X99249000Y-41888112D01*
X99249000Y-41236888D01*
X99253565Y-41190532D01*
X99265296Y-41151862D01*
X99284346Y-41116223D01*
X99309983Y-41084983D01*
X99341223Y-41059346D01*
X99376862Y-41040296D01*
X99415532Y-41028565D01*
X99461888Y-41024000D01*
X100538112Y-41024000D01*
X100584468Y-41028565D01*
G37*
G36*
X100584468Y-38903565D02*
G01*
X100623138Y-38915296D01*
X100658777Y-38934346D01*
X100690017Y-38959983D01*
X100715654Y-38991223D01*
X100734704Y-39026862D01*
X100746435Y-39065532D01*
X100751000Y-39111888D01*
X100751000Y-39763112D01*
X100746435Y-39809468D01*
X100734704Y-39848138D01*
X100715654Y-39883777D01*
X100690017Y-39915017D01*
X100658777Y-39940654D01*
X100623138Y-39959704D01*
X100584468Y-39971435D01*
X100538112Y-39976000D01*
X99461888Y-39976000D01*
X99415532Y-39971435D01*
X99376862Y-39959704D01*
X99341223Y-39940654D01*
X99309983Y-39915017D01*
X99284346Y-39883777D01*
X99265296Y-39848138D01*
X99253565Y-39809468D01*
X99249000Y-39763112D01*
X99249000Y-39111888D01*
X99253565Y-39065532D01*
X99265296Y-39026862D01*
X99284346Y-38991223D01*
X99309983Y-38959983D01*
X99341223Y-38934346D01*
X99376862Y-38915296D01*
X99415532Y-38903565D01*
X99461888Y-38899000D01*
X100538112Y-38899000D01*
X100584468Y-38903565D01*
G37*
G36*
X100584468Y-37028565D02*
G01*
X100623138Y-37040296D01*
X100658777Y-37059346D01*
X100690017Y-37084983D01*
X100715654Y-37116223D01*
X100734704Y-37151862D01*
X100746435Y-37190532D01*
X100751000Y-37236888D01*
X100751000Y-37888112D01*
X100746435Y-37934468D01*
X100734704Y-37973138D01*
X100715654Y-38008777D01*
X100690017Y-38040017D01*
X100658777Y-38065654D01*
X100623138Y-38084704D01*
X100584468Y-38096435D01*
X100538112Y-38101000D01*
X99461888Y-38101000D01*
X99415532Y-38096435D01*
X99376862Y-38084704D01*
X99341223Y-38065654D01*
X99309983Y-38040017D01*
X99284346Y-38008777D01*
X99265296Y-37973138D01*
X99253565Y-37934468D01*
X99249000Y-37888112D01*
X99249000Y-37236888D01*
X99253565Y-37190532D01*
X99265296Y-37151862D01*
X99284346Y-37116223D01*
X99309983Y-37084983D01*
X99341223Y-37059346D01*
X99376862Y-37040296D01*
X99415532Y-37028565D01*
X99461888Y-37024000D01*
X100538112Y-37024000D01*
X100584468Y-37028565D01*
G37*
G36*
X108951000Y-37901000D02*
G01*
X105049000Y-37901000D01*
X105049000Y-35799000D01*
X108951000Y-35799000D01*
X108951000Y-37901000D01*
G37*
G36*
X90976979Y-34213293D02*
G01*
X91110625Y-34253834D01*
X91233784Y-34319664D01*
X91341740Y-34408260D01*
X91430336Y-34516216D01*
X91496166Y-34639375D01*
X91536707Y-34773021D01*
X91551000Y-34918140D01*
X91551000Y-37081860D01*
X91536707Y-37226979D01*
X91496166Y-37360625D01*
X91430336Y-37483784D01*
X91341740Y-37591740D01*
X91233784Y-37680336D01*
X91110625Y-37746166D01*
X90976979Y-37786707D01*
X90831860Y-37801000D01*
X89168140Y-37801000D01*
X89023021Y-37786707D01*
X88889375Y-37746166D01*
X88766216Y-37680336D01*
X88658260Y-37591740D01*
X88569664Y-37483784D01*
X88503834Y-37360625D01*
X88463293Y-37226979D01*
X88449000Y-37081860D01*
X88449000Y-34918140D01*
X88463293Y-34773021D01*
X88503834Y-34639375D01*
X88569664Y-34516216D01*
X88658260Y-34408260D01*
X88766216Y-34319664D01*
X88889375Y-34253834D01*
X89023021Y-34213293D01*
X89168140Y-34199000D01*
X90831860Y-34199000D01*
X90976979Y-34213293D01*
G37*
G36*
X97801000Y-37801000D02*
G01*
X94199000Y-37801000D01*
X94199000Y-34199000D01*
X97801000Y-34199000D01*
X97801000Y-37801000D01*
G37*
M02*
