G04 #@! TF.GenerationSoftware,KiCad,Pcbnew,5.1.5-52549c5~86~ubuntu18.04.1*
G04 #@! TF.CreationDate,2020-05-03T22:10:49-04:00*
G04 #@! TF.ProjectId,lna-filt,6c6e612d-6669-46c7-942e-6b696361645f,rev?*
G04 #@! TF.SameCoordinates,Original*
G04 #@! TF.FileFunction,Paste,Top*
G04 #@! TF.FilePolarity,Positive*
%FSLAX46Y46*%
G04 Gerber Fmt 4.6, Leading zero omitted, Abs format (unit mm)*
G04 Created by KiCad (PCBNEW 5.1.5-52549c5~86~ubuntu18.04.1) date 2020-05-03 22:10:49*
%MOMM*%
%LPD*%
G04 APERTURE LIST*
%ADD10C,0.100000*%
%ADD11R,0.400000X0.700000*%
%ADD12R,0.300000X0.700000*%
%ADD13R,5.080000X1.500000*%
%ADD14R,1.500000X2.000000*%
%ADD15R,3.800000X2.000000*%
%ADD16R,1.060000X0.650000*%
%ADD17R,1.900000X1.500000*%
%ADD18R,1.350000X0.400000*%
G04 APERTURE END LIST*
D10*
G36*
X88708292Y-45186383D02*
G01*
X88716010Y-45187528D01*
X88723578Y-45189423D01*
X88730923Y-45192052D01*
X88737976Y-45195387D01*
X88744668Y-45199398D01*
X88750934Y-45204046D01*
X88756715Y-45209285D01*
X88761954Y-45215066D01*
X88766602Y-45221332D01*
X88770613Y-45228024D01*
X88773948Y-45235077D01*
X88776577Y-45242422D01*
X88778472Y-45249990D01*
X88779617Y-45257708D01*
X88780000Y-45265500D01*
X88780000Y-45424500D01*
X88779617Y-45432292D01*
X88778472Y-45440010D01*
X88776577Y-45447578D01*
X88773948Y-45454923D01*
X88770613Y-45461976D01*
X88766602Y-45468668D01*
X88761954Y-45474934D01*
X88756715Y-45480715D01*
X88750934Y-45485954D01*
X88744668Y-45490602D01*
X88737976Y-45494613D01*
X88730923Y-45497948D01*
X88723578Y-45500577D01*
X88716010Y-45502472D01*
X88708292Y-45503617D01*
X88700500Y-45504000D01*
X88499500Y-45504000D01*
X88491708Y-45503617D01*
X88483990Y-45502472D01*
X88476422Y-45500577D01*
X88469077Y-45497948D01*
X88462024Y-45494613D01*
X88455332Y-45490602D01*
X88449066Y-45485954D01*
X88443285Y-45480715D01*
X88438046Y-45474934D01*
X88433398Y-45468668D01*
X88429387Y-45461976D01*
X88426052Y-45454923D01*
X88423423Y-45447578D01*
X88421528Y-45440010D01*
X88420383Y-45432292D01*
X88420000Y-45424500D01*
X88420000Y-45265500D01*
X88420383Y-45257708D01*
X88421528Y-45249990D01*
X88423423Y-45242422D01*
X88426052Y-45235077D01*
X88429387Y-45228024D01*
X88433398Y-45221332D01*
X88438046Y-45215066D01*
X88443285Y-45209285D01*
X88449066Y-45204046D01*
X88455332Y-45199398D01*
X88462024Y-45195387D01*
X88469077Y-45192052D01*
X88476422Y-45189423D01*
X88483990Y-45187528D01*
X88491708Y-45186383D01*
X88499500Y-45186000D01*
X88700500Y-45186000D01*
X88708292Y-45186383D01*
G37*
G36*
X88708292Y-44496383D02*
G01*
X88716010Y-44497528D01*
X88723578Y-44499423D01*
X88730923Y-44502052D01*
X88737976Y-44505387D01*
X88744668Y-44509398D01*
X88750934Y-44514046D01*
X88756715Y-44519285D01*
X88761954Y-44525066D01*
X88766602Y-44531332D01*
X88770613Y-44538024D01*
X88773948Y-44545077D01*
X88776577Y-44552422D01*
X88778472Y-44559990D01*
X88779617Y-44567708D01*
X88780000Y-44575500D01*
X88780000Y-44734500D01*
X88779617Y-44742292D01*
X88778472Y-44750010D01*
X88776577Y-44757578D01*
X88773948Y-44764923D01*
X88770613Y-44771976D01*
X88766602Y-44778668D01*
X88761954Y-44784934D01*
X88756715Y-44790715D01*
X88750934Y-44795954D01*
X88744668Y-44800602D01*
X88737976Y-44804613D01*
X88730923Y-44807948D01*
X88723578Y-44810577D01*
X88716010Y-44812472D01*
X88708292Y-44813617D01*
X88700500Y-44814000D01*
X88499500Y-44814000D01*
X88491708Y-44813617D01*
X88483990Y-44812472D01*
X88476422Y-44810577D01*
X88469077Y-44807948D01*
X88462024Y-44804613D01*
X88455332Y-44800602D01*
X88449066Y-44795954D01*
X88443285Y-44790715D01*
X88438046Y-44784934D01*
X88433398Y-44778668D01*
X88429387Y-44771976D01*
X88426052Y-44764923D01*
X88423423Y-44757578D01*
X88421528Y-44750010D01*
X88420383Y-44742292D01*
X88420000Y-44734500D01*
X88420000Y-44575500D01*
X88420383Y-44567708D01*
X88421528Y-44559990D01*
X88423423Y-44552422D01*
X88426052Y-44545077D01*
X88429387Y-44538024D01*
X88433398Y-44531332D01*
X88438046Y-44525066D01*
X88443285Y-44519285D01*
X88449066Y-44514046D01*
X88455332Y-44509398D01*
X88462024Y-44505387D01*
X88469077Y-44502052D01*
X88476422Y-44499423D01*
X88483990Y-44497528D01*
X88491708Y-44496383D01*
X88499500Y-44496000D01*
X88700500Y-44496000D01*
X88708292Y-44496383D01*
G37*
G36*
X126508292Y-60586383D02*
G01*
X126516010Y-60587528D01*
X126523578Y-60589423D01*
X126530923Y-60592052D01*
X126537976Y-60595387D01*
X126544668Y-60599398D01*
X126550934Y-60604046D01*
X126556715Y-60609285D01*
X126561954Y-60615066D01*
X126566602Y-60621332D01*
X126570613Y-60628024D01*
X126573948Y-60635077D01*
X126576577Y-60642422D01*
X126578472Y-60649990D01*
X126579617Y-60657708D01*
X126580000Y-60665500D01*
X126580000Y-60824500D01*
X126579617Y-60832292D01*
X126578472Y-60840010D01*
X126576577Y-60847578D01*
X126573948Y-60854923D01*
X126570613Y-60861976D01*
X126566602Y-60868668D01*
X126561954Y-60874934D01*
X126556715Y-60880715D01*
X126550934Y-60885954D01*
X126544668Y-60890602D01*
X126537976Y-60894613D01*
X126530923Y-60897948D01*
X126523578Y-60900577D01*
X126516010Y-60902472D01*
X126508292Y-60903617D01*
X126500500Y-60904000D01*
X126299500Y-60904000D01*
X126291708Y-60903617D01*
X126283990Y-60902472D01*
X126276422Y-60900577D01*
X126269077Y-60897948D01*
X126262024Y-60894613D01*
X126255332Y-60890602D01*
X126249066Y-60885954D01*
X126243285Y-60880715D01*
X126238046Y-60874934D01*
X126233398Y-60868668D01*
X126229387Y-60861976D01*
X126226052Y-60854923D01*
X126223423Y-60847578D01*
X126221528Y-60840010D01*
X126220383Y-60832292D01*
X126220000Y-60824500D01*
X126220000Y-60665500D01*
X126220383Y-60657708D01*
X126221528Y-60649990D01*
X126223423Y-60642422D01*
X126226052Y-60635077D01*
X126229387Y-60628024D01*
X126233398Y-60621332D01*
X126238046Y-60615066D01*
X126243285Y-60609285D01*
X126249066Y-60604046D01*
X126255332Y-60599398D01*
X126262024Y-60595387D01*
X126269077Y-60592052D01*
X126276422Y-60589423D01*
X126283990Y-60587528D01*
X126291708Y-60586383D01*
X126299500Y-60586000D01*
X126500500Y-60586000D01*
X126508292Y-60586383D01*
G37*
G36*
X126508292Y-59896383D02*
G01*
X126516010Y-59897528D01*
X126523578Y-59899423D01*
X126530923Y-59902052D01*
X126537976Y-59905387D01*
X126544668Y-59909398D01*
X126550934Y-59914046D01*
X126556715Y-59919285D01*
X126561954Y-59925066D01*
X126566602Y-59931332D01*
X126570613Y-59938024D01*
X126573948Y-59945077D01*
X126576577Y-59952422D01*
X126578472Y-59959990D01*
X126579617Y-59967708D01*
X126580000Y-59975500D01*
X126580000Y-60134500D01*
X126579617Y-60142292D01*
X126578472Y-60150010D01*
X126576577Y-60157578D01*
X126573948Y-60164923D01*
X126570613Y-60171976D01*
X126566602Y-60178668D01*
X126561954Y-60184934D01*
X126556715Y-60190715D01*
X126550934Y-60195954D01*
X126544668Y-60200602D01*
X126537976Y-60204613D01*
X126530923Y-60207948D01*
X126523578Y-60210577D01*
X126516010Y-60212472D01*
X126508292Y-60213617D01*
X126500500Y-60214000D01*
X126299500Y-60214000D01*
X126291708Y-60213617D01*
X126283990Y-60212472D01*
X126276422Y-60210577D01*
X126269077Y-60207948D01*
X126262024Y-60204613D01*
X126255332Y-60200602D01*
X126249066Y-60195954D01*
X126243285Y-60190715D01*
X126238046Y-60184934D01*
X126233398Y-60178668D01*
X126229387Y-60171976D01*
X126226052Y-60164923D01*
X126223423Y-60157578D01*
X126221528Y-60150010D01*
X126220383Y-60142292D01*
X126220000Y-60134500D01*
X126220000Y-59975500D01*
X126220383Y-59967708D01*
X126221528Y-59959990D01*
X126223423Y-59952422D01*
X126226052Y-59945077D01*
X126229387Y-59938024D01*
X126233398Y-59931332D01*
X126238046Y-59925066D01*
X126243285Y-59919285D01*
X126249066Y-59914046D01*
X126255332Y-59909398D01*
X126262024Y-59905387D01*
X126269077Y-59902052D01*
X126276422Y-59899423D01*
X126283990Y-59897528D01*
X126291708Y-59896383D01*
X126299500Y-59896000D01*
X126500500Y-59896000D01*
X126508292Y-59896383D01*
G37*
G36*
X89508292Y-60586383D02*
G01*
X89516010Y-60587528D01*
X89523578Y-60589423D01*
X89530923Y-60592052D01*
X89537976Y-60595387D01*
X89544668Y-60599398D01*
X89550934Y-60604046D01*
X89556715Y-60609285D01*
X89561954Y-60615066D01*
X89566602Y-60621332D01*
X89570613Y-60628024D01*
X89573948Y-60635077D01*
X89576577Y-60642422D01*
X89578472Y-60649990D01*
X89579617Y-60657708D01*
X89580000Y-60665500D01*
X89580000Y-60824500D01*
X89579617Y-60832292D01*
X89578472Y-60840010D01*
X89576577Y-60847578D01*
X89573948Y-60854923D01*
X89570613Y-60861976D01*
X89566602Y-60868668D01*
X89561954Y-60874934D01*
X89556715Y-60880715D01*
X89550934Y-60885954D01*
X89544668Y-60890602D01*
X89537976Y-60894613D01*
X89530923Y-60897948D01*
X89523578Y-60900577D01*
X89516010Y-60902472D01*
X89508292Y-60903617D01*
X89500500Y-60904000D01*
X89299500Y-60904000D01*
X89291708Y-60903617D01*
X89283990Y-60902472D01*
X89276422Y-60900577D01*
X89269077Y-60897948D01*
X89262024Y-60894613D01*
X89255332Y-60890602D01*
X89249066Y-60885954D01*
X89243285Y-60880715D01*
X89238046Y-60874934D01*
X89233398Y-60868668D01*
X89229387Y-60861976D01*
X89226052Y-60854923D01*
X89223423Y-60847578D01*
X89221528Y-60840010D01*
X89220383Y-60832292D01*
X89220000Y-60824500D01*
X89220000Y-60665500D01*
X89220383Y-60657708D01*
X89221528Y-60649990D01*
X89223423Y-60642422D01*
X89226052Y-60635077D01*
X89229387Y-60628024D01*
X89233398Y-60621332D01*
X89238046Y-60615066D01*
X89243285Y-60609285D01*
X89249066Y-60604046D01*
X89255332Y-60599398D01*
X89262024Y-60595387D01*
X89269077Y-60592052D01*
X89276422Y-60589423D01*
X89283990Y-60587528D01*
X89291708Y-60586383D01*
X89299500Y-60586000D01*
X89500500Y-60586000D01*
X89508292Y-60586383D01*
G37*
G36*
X89508292Y-59896383D02*
G01*
X89516010Y-59897528D01*
X89523578Y-59899423D01*
X89530923Y-59902052D01*
X89537976Y-59905387D01*
X89544668Y-59909398D01*
X89550934Y-59914046D01*
X89556715Y-59919285D01*
X89561954Y-59925066D01*
X89566602Y-59931332D01*
X89570613Y-59938024D01*
X89573948Y-59945077D01*
X89576577Y-59952422D01*
X89578472Y-59959990D01*
X89579617Y-59967708D01*
X89580000Y-59975500D01*
X89580000Y-60134500D01*
X89579617Y-60142292D01*
X89578472Y-60150010D01*
X89576577Y-60157578D01*
X89573948Y-60164923D01*
X89570613Y-60171976D01*
X89566602Y-60178668D01*
X89561954Y-60184934D01*
X89556715Y-60190715D01*
X89550934Y-60195954D01*
X89544668Y-60200602D01*
X89537976Y-60204613D01*
X89530923Y-60207948D01*
X89523578Y-60210577D01*
X89516010Y-60212472D01*
X89508292Y-60213617D01*
X89500500Y-60214000D01*
X89299500Y-60214000D01*
X89291708Y-60213617D01*
X89283990Y-60212472D01*
X89276422Y-60210577D01*
X89269077Y-60207948D01*
X89262024Y-60204613D01*
X89255332Y-60200602D01*
X89249066Y-60195954D01*
X89243285Y-60190715D01*
X89238046Y-60184934D01*
X89233398Y-60178668D01*
X89229387Y-60171976D01*
X89226052Y-60164923D01*
X89223423Y-60157578D01*
X89221528Y-60150010D01*
X89220383Y-60142292D01*
X89220000Y-60134500D01*
X89220000Y-59975500D01*
X89220383Y-59967708D01*
X89221528Y-59959990D01*
X89223423Y-59952422D01*
X89226052Y-59945077D01*
X89229387Y-59938024D01*
X89233398Y-59931332D01*
X89238046Y-59925066D01*
X89243285Y-59919285D01*
X89249066Y-59914046D01*
X89255332Y-59909398D01*
X89262024Y-59905387D01*
X89269077Y-59902052D01*
X89276422Y-59899423D01*
X89283990Y-59897528D01*
X89291708Y-59896383D01*
X89299500Y-59896000D01*
X89500500Y-59896000D01*
X89508292Y-59896383D01*
G37*
G36*
X89508292Y-75586383D02*
G01*
X89516010Y-75587528D01*
X89523578Y-75589423D01*
X89530923Y-75592052D01*
X89537976Y-75595387D01*
X89544668Y-75599398D01*
X89550934Y-75604046D01*
X89556715Y-75609285D01*
X89561954Y-75615066D01*
X89566602Y-75621332D01*
X89570613Y-75628024D01*
X89573948Y-75635077D01*
X89576577Y-75642422D01*
X89578472Y-75649990D01*
X89579617Y-75657708D01*
X89580000Y-75665500D01*
X89580000Y-75824500D01*
X89579617Y-75832292D01*
X89578472Y-75840010D01*
X89576577Y-75847578D01*
X89573948Y-75854923D01*
X89570613Y-75861976D01*
X89566602Y-75868668D01*
X89561954Y-75874934D01*
X89556715Y-75880715D01*
X89550934Y-75885954D01*
X89544668Y-75890602D01*
X89537976Y-75894613D01*
X89530923Y-75897948D01*
X89523578Y-75900577D01*
X89516010Y-75902472D01*
X89508292Y-75903617D01*
X89500500Y-75904000D01*
X89299500Y-75904000D01*
X89291708Y-75903617D01*
X89283990Y-75902472D01*
X89276422Y-75900577D01*
X89269077Y-75897948D01*
X89262024Y-75894613D01*
X89255332Y-75890602D01*
X89249066Y-75885954D01*
X89243285Y-75880715D01*
X89238046Y-75874934D01*
X89233398Y-75868668D01*
X89229387Y-75861976D01*
X89226052Y-75854923D01*
X89223423Y-75847578D01*
X89221528Y-75840010D01*
X89220383Y-75832292D01*
X89220000Y-75824500D01*
X89220000Y-75665500D01*
X89220383Y-75657708D01*
X89221528Y-75649990D01*
X89223423Y-75642422D01*
X89226052Y-75635077D01*
X89229387Y-75628024D01*
X89233398Y-75621332D01*
X89238046Y-75615066D01*
X89243285Y-75609285D01*
X89249066Y-75604046D01*
X89255332Y-75599398D01*
X89262024Y-75595387D01*
X89269077Y-75592052D01*
X89276422Y-75589423D01*
X89283990Y-75587528D01*
X89291708Y-75586383D01*
X89299500Y-75586000D01*
X89500500Y-75586000D01*
X89508292Y-75586383D01*
G37*
G36*
X89508292Y-74896383D02*
G01*
X89516010Y-74897528D01*
X89523578Y-74899423D01*
X89530923Y-74902052D01*
X89537976Y-74905387D01*
X89544668Y-74909398D01*
X89550934Y-74914046D01*
X89556715Y-74919285D01*
X89561954Y-74925066D01*
X89566602Y-74931332D01*
X89570613Y-74938024D01*
X89573948Y-74945077D01*
X89576577Y-74952422D01*
X89578472Y-74959990D01*
X89579617Y-74967708D01*
X89580000Y-74975500D01*
X89580000Y-75134500D01*
X89579617Y-75142292D01*
X89578472Y-75150010D01*
X89576577Y-75157578D01*
X89573948Y-75164923D01*
X89570613Y-75171976D01*
X89566602Y-75178668D01*
X89561954Y-75184934D01*
X89556715Y-75190715D01*
X89550934Y-75195954D01*
X89544668Y-75200602D01*
X89537976Y-75204613D01*
X89530923Y-75207948D01*
X89523578Y-75210577D01*
X89516010Y-75212472D01*
X89508292Y-75213617D01*
X89500500Y-75214000D01*
X89299500Y-75214000D01*
X89291708Y-75213617D01*
X89283990Y-75212472D01*
X89276422Y-75210577D01*
X89269077Y-75207948D01*
X89262024Y-75204613D01*
X89255332Y-75200602D01*
X89249066Y-75195954D01*
X89243285Y-75190715D01*
X89238046Y-75184934D01*
X89233398Y-75178668D01*
X89229387Y-75171976D01*
X89226052Y-75164923D01*
X89223423Y-75157578D01*
X89221528Y-75150010D01*
X89220383Y-75142292D01*
X89220000Y-75134500D01*
X89220000Y-74975500D01*
X89220383Y-74967708D01*
X89221528Y-74959990D01*
X89223423Y-74952422D01*
X89226052Y-74945077D01*
X89229387Y-74938024D01*
X89233398Y-74931332D01*
X89238046Y-74925066D01*
X89243285Y-74919285D01*
X89249066Y-74914046D01*
X89255332Y-74909398D01*
X89262024Y-74905387D01*
X89269077Y-74902052D01*
X89276422Y-74899423D01*
X89283990Y-74897528D01*
X89291708Y-74896383D01*
X89299500Y-74896000D01*
X89500500Y-74896000D01*
X89508292Y-74896383D01*
G37*
G36*
X125508292Y-75586383D02*
G01*
X125516010Y-75587528D01*
X125523578Y-75589423D01*
X125530923Y-75592052D01*
X125537976Y-75595387D01*
X125544668Y-75599398D01*
X125550934Y-75604046D01*
X125556715Y-75609285D01*
X125561954Y-75615066D01*
X125566602Y-75621332D01*
X125570613Y-75628024D01*
X125573948Y-75635077D01*
X125576577Y-75642422D01*
X125578472Y-75649990D01*
X125579617Y-75657708D01*
X125580000Y-75665500D01*
X125580000Y-75824500D01*
X125579617Y-75832292D01*
X125578472Y-75840010D01*
X125576577Y-75847578D01*
X125573948Y-75854923D01*
X125570613Y-75861976D01*
X125566602Y-75868668D01*
X125561954Y-75874934D01*
X125556715Y-75880715D01*
X125550934Y-75885954D01*
X125544668Y-75890602D01*
X125537976Y-75894613D01*
X125530923Y-75897948D01*
X125523578Y-75900577D01*
X125516010Y-75902472D01*
X125508292Y-75903617D01*
X125500500Y-75904000D01*
X125299500Y-75904000D01*
X125291708Y-75903617D01*
X125283990Y-75902472D01*
X125276422Y-75900577D01*
X125269077Y-75897948D01*
X125262024Y-75894613D01*
X125255332Y-75890602D01*
X125249066Y-75885954D01*
X125243285Y-75880715D01*
X125238046Y-75874934D01*
X125233398Y-75868668D01*
X125229387Y-75861976D01*
X125226052Y-75854923D01*
X125223423Y-75847578D01*
X125221528Y-75840010D01*
X125220383Y-75832292D01*
X125220000Y-75824500D01*
X125220000Y-75665500D01*
X125220383Y-75657708D01*
X125221528Y-75649990D01*
X125223423Y-75642422D01*
X125226052Y-75635077D01*
X125229387Y-75628024D01*
X125233398Y-75621332D01*
X125238046Y-75615066D01*
X125243285Y-75609285D01*
X125249066Y-75604046D01*
X125255332Y-75599398D01*
X125262024Y-75595387D01*
X125269077Y-75592052D01*
X125276422Y-75589423D01*
X125283990Y-75587528D01*
X125291708Y-75586383D01*
X125299500Y-75586000D01*
X125500500Y-75586000D01*
X125508292Y-75586383D01*
G37*
G36*
X125508292Y-74896383D02*
G01*
X125516010Y-74897528D01*
X125523578Y-74899423D01*
X125530923Y-74902052D01*
X125537976Y-74905387D01*
X125544668Y-74909398D01*
X125550934Y-74914046D01*
X125556715Y-74919285D01*
X125561954Y-74925066D01*
X125566602Y-74931332D01*
X125570613Y-74938024D01*
X125573948Y-74945077D01*
X125576577Y-74952422D01*
X125578472Y-74959990D01*
X125579617Y-74967708D01*
X125580000Y-74975500D01*
X125580000Y-75134500D01*
X125579617Y-75142292D01*
X125578472Y-75150010D01*
X125576577Y-75157578D01*
X125573948Y-75164923D01*
X125570613Y-75171976D01*
X125566602Y-75178668D01*
X125561954Y-75184934D01*
X125556715Y-75190715D01*
X125550934Y-75195954D01*
X125544668Y-75200602D01*
X125537976Y-75204613D01*
X125530923Y-75207948D01*
X125523578Y-75210577D01*
X125516010Y-75212472D01*
X125508292Y-75213617D01*
X125500500Y-75214000D01*
X125299500Y-75214000D01*
X125291708Y-75213617D01*
X125283990Y-75212472D01*
X125276422Y-75210577D01*
X125269077Y-75207948D01*
X125262024Y-75204613D01*
X125255332Y-75200602D01*
X125249066Y-75195954D01*
X125243285Y-75190715D01*
X125238046Y-75184934D01*
X125233398Y-75178668D01*
X125229387Y-75171976D01*
X125226052Y-75164923D01*
X125223423Y-75157578D01*
X125221528Y-75150010D01*
X125220383Y-75142292D01*
X125220000Y-75134500D01*
X125220000Y-74975500D01*
X125220383Y-74967708D01*
X125221528Y-74959990D01*
X125223423Y-74952422D01*
X125226052Y-74945077D01*
X125229387Y-74938024D01*
X125233398Y-74931332D01*
X125238046Y-74925066D01*
X125243285Y-74919285D01*
X125249066Y-74914046D01*
X125255332Y-74909398D01*
X125262024Y-74905387D01*
X125269077Y-74902052D01*
X125276422Y-74899423D01*
X125283990Y-74897528D01*
X125291708Y-74896383D01*
X125299500Y-74896000D01*
X125500500Y-74896000D01*
X125508292Y-74896383D01*
G37*
D11*
X121500000Y-60000000D03*
D12*
X122100000Y-60000000D03*
X120900000Y-60000000D03*
D13*
X85000000Y-75000000D03*
X85000000Y-79250000D03*
X85000000Y-70750000D03*
X130000000Y-75000000D03*
X130000000Y-70750000D03*
X130000000Y-79250000D03*
D10*
G36*
X95646958Y-74680710D02*
G01*
X95661276Y-74682834D01*
X95675317Y-74686351D01*
X95688946Y-74691228D01*
X95702031Y-74697417D01*
X95714447Y-74704858D01*
X95726073Y-74713481D01*
X95736798Y-74723202D01*
X95746519Y-74733927D01*
X95755142Y-74745553D01*
X95762583Y-74757969D01*
X95768772Y-74771054D01*
X95773649Y-74784683D01*
X95777166Y-74798724D01*
X95779290Y-74813042D01*
X95780000Y-74827500D01*
X95780000Y-75172500D01*
X95779290Y-75186958D01*
X95777166Y-75201276D01*
X95773649Y-75215317D01*
X95768772Y-75228946D01*
X95762583Y-75242031D01*
X95755142Y-75254447D01*
X95746519Y-75266073D01*
X95736798Y-75276798D01*
X95726073Y-75286519D01*
X95714447Y-75295142D01*
X95702031Y-75302583D01*
X95688946Y-75308772D01*
X95675317Y-75313649D01*
X95661276Y-75317166D01*
X95646958Y-75319290D01*
X95632500Y-75320000D01*
X95337500Y-75320000D01*
X95323042Y-75319290D01*
X95308724Y-75317166D01*
X95294683Y-75313649D01*
X95281054Y-75308772D01*
X95267969Y-75302583D01*
X95255553Y-75295142D01*
X95243927Y-75286519D01*
X95233202Y-75276798D01*
X95223481Y-75266073D01*
X95214858Y-75254447D01*
X95207417Y-75242031D01*
X95201228Y-75228946D01*
X95196351Y-75215317D01*
X95192834Y-75201276D01*
X95190710Y-75186958D01*
X95190000Y-75172500D01*
X95190000Y-74827500D01*
X95190710Y-74813042D01*
X95192834Y-74798724D01*
X95196351Y-74784683D01*
X95201228Y-74771054D01*
X95207417Y-74757969D01*
X95214858Y-74745553D01*
X95223481Y-74733927D01*
X95233202Y-74723202D01*
X95243927Y-74713481D01*
X95255553Y-74704858D01*
X95267969Y-74697417D01*
X95281054Y-74691228D01*
X95294683Y-74686351D01*
X95308724Y-74682834D01*
X95323042Y-74680710D01*
X95337500Y-74680000D01*
X95632500Y-74680000D01*
X95646958Y-74680710D01*
G37*
G36*
X94676958Y-74680710D02*
G01*
X94691276Y-74682834D01*
X94705317Y-74686351D01*
X94718946Y-74691228D01*
X94732031Y-74697417D01*
X94744447Y-74704858D01*
X94756073Y-74713481D01*
X94766798Y-74723202D01*
X94776519Y-74733927D01*
X94785142Y-74745553D01*
X94792583Y-74757969D01*
X94798772Y-74771054D01*
X94803649Y-74784683D01*
X94807166Y-74798724D01*
X94809290Y-74813042D01*
X94810000Y-74827500D01*
X94810000Y-75172500D01*
X94809290Y-75186958D01*
X94807166Y-75201276D01*
X94803649Y-75215317D01*
X94798772Y-75228946D01*
X94792583Y-75242031D01*
X94785142Y-75254447D01*
X94776519Y-75266073D01*
X94766798Y-75276798D01*
X94756073Y-75286519D01*
X94744447Y-75295142D01*
X94732031Y-75302583D01*
X94718946Y-75308772D01*
X94705317Y-75313649D01*
X94691276Y-75317166D01*
X94676958Y-75319290D01*
X94662500Y-75320000D01*
X94367500Y-75320000D01*
X94353042Y-75319290D01*
X94338724Y-75317166D01*
X94324683Y-75313649D01*
X94311054Y-75308772D01*
X94297969Y-75302583D01*
X94285553Y-75295142D01*
X94273927Y-75286519D01*
X94263202Y-75276798D01*
X94253481Y-75266073D01*
X94244858Y-75254447D01*
X94237417Y-75242031D01*
X94231228Y-75228946D01*
X94226351Y-75215317D01*
X94222834Y-75201276D01*
X94220710Y-75186958D01*
X94220000Y-75172500D01*
X94220000Y-74827500D01*
X94220710Y-74813042D01*
X94222834Y-74798724D01*
X94226351Y-74784683D01*
X94231228Y-74771054D01*
X94237417Y-74757969D01*
X94244858Y-74745553D01*
X94253481Y-74733927D01*
X94263202Y-74723202D01*
X94273927Y-74713481D01*
X94285553Y-74704858D01*
X94297969Y-74697417D01*
X94311054Y-74691228D01*
X94324683Y-74686351D01*
X94338724Y-74682834D01*
X94353042Y-74680710D01*
X94367500Y-74680000D01*
X94662500Y-74680000D01*
X94676958Y-74680710D01*
G37*
G36*
X120646958Y-74680710D02*
G01*
X120661276Y-74682834D01*
X120675317Y-74686351D01*
X120688946Y-74691228D01*
X120702031Y-74697417D01*
X120714447Y-74704858D01*
X120726073Y-74713481D01*
X120736798Y-74723202D01*
X120746519Y-74733927D01*
X120755142Y-74745553D01*
X120762583Y-74757969D01*
X120768772Y-74771054D01*
X120773649Y-74784683D01*
X120777166Y-74798724D01*
X120779290Y-74813042D01*
X120780000Y-74827500D01*
X120780000Y-75172500D01*
X120779290Y-75186958D01*
X120777166Y-75201276D01*
X120773649Y-75215317D01*
X120768772Y-75228946D01*
X120762583Y-75242031D01*
X120755142Y-75254447D01*
X120746519Y-75266073D01*
X120736798Y-75276798D01*
X120726073Y-75286519D01*
X120714447Y-75295142D01*
X120702031Y-75302583D01*
X120688946Y-75308772D01*
X120675317Y-75313649D01*
X120661276Y-75317166D01*
X120646958Y-75319290D01*
X120632500Y-75320000D01*
X120337500Y-75320000D01*
X120323042Y-75319290D01*
X120308724Y-75317166D01*
X120294683Y-75313649D01*
X120281054Y-75308772D01*
X120267969Y-75302583D01*
X120255553Y-75295142D01*
X120243927Y-75286519D01*
X120233202Y-75276798D01*
X120223481Y-75266073D01*
X120214858Y-75254447D01*
X120207417Y-75242031D01*
X120201228Y-75228946D01*
X120196351Y-75215317D01*
X120192834Y-75201276D01*
X120190710Y-75186958D01*
X120190000Y-75172500D01*
X120190000Y-74827500D01*
X120190710Y-74813042D01*
X120192834Y-74798724D01*
X120196351Y-74784683D01*
X120201228Y-74771054D01*
X120207417Y-74757969D01*
X120214858Y-74745553D01*
X120223481Y-74733927D01*
X120233202Y-74723202D01*
X120243927Y-74713481D01*
X120255553Y-74704858D01*
X120267969Y-74697417D01*
X120281054Y-74691228D01*
X120294683Y-74686351D01*
X120308724Y-74682834D01*
X120323042Y-74680710D01*
X120337500Y-74680000D01*
X120632500Y-74680000D01*
X120646958Y-74680710D01*
G37*
G36*
X119676958Y-74680710D02*
G01*
X119691276Y-74682834D01*
X119705317Y-74686351D01*
X119718946Y-74691228D01*
X119732031Y-74697417D01*
X119744447Y-74704858D01*
X119756073Y-74713481D01*
X119766798Y-74723202D01*
X119776519Y-74733927D01*
X119785142Y-74745553D01*
X119792583Y-74757969D01*
X119798772Y-74771054D01*
X119803649Y-74784683D01*
X119807166Y-74798724D01*
X119809290Y-74813042D01*
X119810000Y-74827500D01*
X119810000Y-75172500D01*
X119809290Y-75186958D01*
X119807166Y-75201276D01*
X119803649Y-75215317D01*
X119798772Y-75228946D01*
X119792583Y-75242031D01*
X119785142Y-75254447D01*
X119776519Y-75266073D01*
X119766798Y-75276798D01*
X119756073Y-75286519D01*
X119744447Y-75295142D01*
X119732031Y-75302583D01*
X119718946Y-75308772D01*
X119705317Y-75313649D01*
X119691276Y-75317166D01*
X119676958Y-75319290D01*
X119662500Y-75320000D01*
X119367500Y-75320000D01*
X119353042Y-75319290D01*
X119338724Y-75317166D01*
X119324683Y-75313649D01*
X119311054Y-75308772D01*
X119297969Y-75302583D01*
X119285553Y-75295142D01*
X119273927Y-75286519D01*
X119263202Y-75276798D01*
X119253481Y-75266073D01*
X119244858Y-75254447D01*
X119237417Y-75242031D01*
X119231228Y-75228946D01*
X119226351Y-75215317D01*
X119222834Y-75201276D01*
X119220710Y-75186958D01*
X119220000Y-75172500D01*
X119220000Y-74827500D01*
X119220710Y-74813042D01*
X119222834Y-74798724D01*
X119226351Y-74784683D01*
X119231228Y-74771054D01*
X119237417Y-74757969D01*
X119244858Y-74745553D01*
X119253481Y-74733927D01*
X119263202Y-74723202D01*
X119273927Y-74713481D01*
X119285553Y-74704858D01*
X119297969Y-74697417D01*
X119311054Y-74691228D01*
X119324683Y-74686351D01*
X119338724Y-74682834D01*
X119353042Y-74680710D01*
X119367500Y-74680000D01*
X119662500Y-74680000D01*
X119676958Y-74680710D01*
G37*
D14*
X104700000Y-43150000D03*
X109300000Y-43150000D03*
X107000000Y-43150000D03*
D15*
X107000000Y-36850000D03*
D16*
X108100000Y-59000000D03*
X108100000Y-58050000D03*
X108100000Y-59950000D03*
X105900000Y-59950000D03*
X105900000Y-59000000D03*
X105900000Y-58050000D03*
D10*
G36*
X100480142Y-42951174D02*
G01*
X100503803Y-42954684D01*
X100527007Y-42960496D01*
X100549529Y-42968554D01*
X100571153Y-42978782D01*
X100591670Y-42991079D01*
X100610883Y-43005329D01*
X100628607Y-43021393D01*
X100644671Y-43039117D01*
X100658921Y-43058330D01*
X100671218Y-43078847D01*
X100681446Y-43100471D01*
X100689504Y-43122993D01*
X100695316Y-43146197D01*
X100698826Y-43169858D01*
X100700000Y-43193750D01*
X100700000Y-43681250D01*
X100698826Y-43705142D01*
X100695316Y-43728803D01*
X100689504Y-43752007D01*
X100681446Y-43774529D01*
X100671218Y-43796153D01*
X100658921Y-43816670D01*
X100644671Y-43835883D01*
X100628607Y-43853607D01*
X100610883Y-43869671D01*
X100591670Y-43883921D01*
X100571153Y-43896218D01*
X100549529Y-43906446D01*
X100527007Y-43914504D01*
X100503803Y-43920316D01*
X100480142Y-43923826D01*
X100456250Y-43925000D01*
X99543750Y-43925000D01*
X99519858Y-43923826D01*
X99496197Y-43920316D01*
X99472993Y-43914504D01*
X99450471Y-43906446D01*
X99428847Y-43896218D01*
X99408330Y-43883921D01*
X99389117Y-43869671D01*
X99371393Y-43853607D01*
X99355329Y-43835883D01*
X99341079Y-43816670D01*
X99328782Y-43796153D01*
X99318554Y-43774529D01*
X99310496Y-43752007D01*
X99304684Y-43728803D01*
X99301174Y-43705142D01*
X99300000Y-43681250D01*
X99300000Y-43193750D01*
X99301174Y-43169858D01*
X99304684Y-43146197D01*
X99310496Y-43122993D01*
X99318554Y-43100471D01*
X99328782Y-43078847D01*
X99341079Y-43058330D01*
X99355329Y-43039117D01*
X99371393Y-43021393D01*
X99389117Y-43005329D01*
X99408330Y-42991079D01*
X99428847Y-42978782D01*
X99450471Y-42968554D01*
X99472993Y-42960496D01*
X99496197Y-42954684D01*
X99519858Y-42951174D01*
X99543750Y-42950000D01*
X100456250Y-42950000D01*
X100480142Y-42951174D01*
G37*
G36*
X100480142Y-41076174D02*
G01*
X100503803Y-41079684D01*
X100527007Y-41085496D01*
X100549529Y-41093554D01*
X100571153Y-41103782D01*
X100591670Y-41116079D01*
X100610883Y-41130329D01*
X100628607Y-41146393D01*
X100644671Y-41164117D01*
X100658921Y-41183330D01*
X100671218Y-41203847D01*
X100681446Y-41225471D01*
X100689504Y-41247993D01*
X100695316Y-41271197D01*
X100698826Y-41294858D01*
X100700000Y-41318750D01*
X100700000Y-41806250D01*
X100698826Y-41830142D01*
X100695316Y-41853803D01*
X100689504Y-41877007D01*
X100681446Y-41899529D01*
X100671218Y-41921153D01*
X100658921Y-41941670D01*
X100644671Y-41960883D01*
X100628607Y-41978607D01*
X100610883Y-41994671D01*
X100591670Y-42008921D01*
X100571153Y-42021218D01*
X100549529Y-42031446D01*
X100527007Y-42039504D01*
X100503803Y-42045316D01*
X100480142Y-42048826D01*
X100456250Y-42050000D01*
X99543750Y-42050000D01*
X99519858Y-42048826D01*
X99496197Y-42045316D01*
X99472993Y-42039504D01*
X99450471Y-42031446D01*
X99428847Y-42021218D01*
X99408330Y-42008921D01*
X99389117Y-41994671D01*
X99371393Y-41978607D01*
X99355329Y-41960883D01*
X99341079Y-41941670D01*
X99328782Y-41921153D01*
X99318554Y-41899529D01*
X99310496Y-41877007D01*
X99304684Y-41853803D01*
X99301174Y-41830142D01*
X99300000Y-41806250D01*
X99300000Y-41318750D01*
X99301174Y-41294858D01*
X99304684Y-41271197D01*
X99310496Y-41247993D01*
X99318554Y-41225471D01*
X99328782Y-41203847D01*
X99341079Y-41183330D01*
X99355329Y-41164117D01*
X99371393Y-41146393D01*
X99389117Y-41130329D01*
X99408330Y-41116079D01*
X99428847Y-41103782D01*
X99450471Y-41093554D01*
X99472993Y-41085496D01*
X99496197Y-41079684D01*
X99519858Y-41076174D01*
X99543750Y-41075000D01*
X100456250Y-41075000D01*
X100480142Y-41076174D01*
G37*
G36*
X110686958Y-56690710D02*
G01*
X110701276Y-56692834D01*
X110715317Y-56696351D01*
X110728946Y-56701228D01*
X110742031Y-56707417D01*
X110754447Y-56714858D01*
X110766073Y-56723481D01*
X110776798Y-56733202D01*
X110786519Y-56743927D01*
X110795142Y-56755553D01*
X110802583Y-56767969D01*
X110808772Y-56781054D01*
X110813649Y-56794683D01*
X110817166Y-56808724D01*
X110819290Y-56823042D01*
X110820000Y-56837500D01*
X110820000Y-57132500D01*
X110819290Y-57146958D01*
X110817166Y-57161276D01*
X110813649Y-57175317D01*
X110808772Y-57188946D01*
X110802583Y-57202031D01*
X110795142Y-57214447D01*
X110786519Y-57226073D01*
X110776798Y-57236798D01*
X110766073Y-57246519D01*
X110754447Y-57255142D01*
X110742031Y-57262583D01*
X110728946Y-57268772D01*
X110715317Y-57273649D01*
X110701276Y-57277166D01*
X110686958Y-57279290D01*
X110672500Y-57280000D01*
X110327500Y-57280000D01*
X110313042Y-57279290D01*
X110298724Y-57277166D01*
X110284683Y-57273649D01*
X110271054Y-57268772D01*
X110257969Y-57262583D01*
X110245553Y-57255142D01*
X110233927Y-57246519D01*
X110223202Y-57236798D01*
X110213481Y-57226073D01*
X110204858Y-57214447D01*
X110197417Y-57202031D01*
X110191228Y-57188946D01*
X110186351Y-57175317D01*
X110182834Y-57161276D01*
X110180710Y-57146958D01*
X110180000Y-57132500D01*
X110180000Y-56837500D01*
X110180710Y-56823042D01*
X110182834Y-56808724D01*
X110186351Y-56794683D01*
X110191228Y-56781054D01*
X110197417Y-56767969D01*
X110204858Y-56755553D01*
X110213481Y-56743927D01*
X110223202Y-56733202D01*
X110233927Y-56723481D01*
X110245553Y-56714858D01*
X110257969Y-56707417D01*
X110271054Y-56701228D01*
X110284683Y-56696351D01*
X110298724Y-56692834D01*
X110313042Y-56690710D01*
X110327500Y-56690000D01*
X110672500Y-56690000D01*
X110686958Y-56690710D01*
G37*
G36*
X110686958Y-55720710D02*
G01*
X110701276Y-55722834D01*
X110715317Y-55726351D01*
X110728946Y-55731228D01*
X110742031Y-55737417D01*
X110754447Y-55744858D01*
X110766073Y-55753481D01*
X110776798Y-55763202D01*
X110786519Y-55773927D01*
X110795142Y-55785553D01*
X110802583Y-55797969D01*
X110808772Y-55811054D01*
X110813649Y-55824683D01*
X110817166Y-55838724D01*
X110819290Y-55853042D01*
X110820000Y-55867500D01*
X110820000Y-56162500D01*
X110819290Y-56176958D01*
X110817166Y-56191276D01*
X110813649Y-56205317D01*
X110808772Y-56218946D01*
X110802583Y-56232031D01*
X110795142Y-56244447D01*
X110786519Y-56256073D01*
X110776798Y-56266798D01*
X110766073Y-56276519D01*
X110754447Y-56285142D01*
X110742031Y-56292583D01*
X110728946Y-56298772D01*
X110715317Y-56303649D01*
X110701276Y-56307166D01*
X110686958Y-56309290D01*
X110672500Y-56310000D01*
X110327500Y-56310000D01*
X110313042Y-56309290D01*
X110298724Y-56307166D01*
X110284683Y-56303649D01*
X110271054Y-56298772D01*
X110257969Y-56292583D01*
X110245553Y-56285142D01*
X110233927Y-56276519D01*
X110223202Y-56266798D01*
X110213481Y-56256073D01*
X110204858Y-56244447D01*
X110197417Y-56232031D01*
X110191228Y-56218946D01*
X110186351Y-56205317D01*
X110182834Y-56191276D01*
X110180710Y-56176958D01*
X110180000Y-56162500D01*
X110180000Y-55867500D01*
X110180710Y-55853042D01*
X110182834Y-55838724D01*
X110186351Y-55824683D01*
X110191228Y-55811054D01*
X110197417Y-55797969D01*
X110204858Y-55785553D01*
X110213481Y-55773927D01*
X110223202Y-55763202D01*
X110233927Y-55753481D01*
X110245553Y-55744858D01*
X110257969Y-55737417D01*
X110271054Y-55731228D01*
X110284683Y-55726351D01*
X110298724Y-55722834D01*
X110313042Y-55720710D01*
X110327500Y-55720000D01*
X110672500Y-55720000D01*
X110686958Y-55720710D01*
G37*
D17*
X84262500Y-45000000D03*
D18*
X86962500Y-46000000D03*
X86962500Y-46650000D03*
X86962500Y-47300000D03*
X86962500Y-44700000D03*
X86962500Y-45350000D03*
D17*
X84262500Y-47000000D03*
D13*
X130000000Y-60000000D03*
X130000000Y-55750000D03*
X130000000Y-64250000D03*
X85000000Y-60000000D03*
X85000000Y-64250000D03*
X85000000Y-55750000D03*
D10*
G36*
X100330142Y-45301174D02*
G01*
X100353803Y-45304684D01*
X100377007Y-45310496D01*
X100399529Y-45318554D01*
X100421153Y-45328782D01*
X100441670Y-45341079D01*
X100460883Y-45355329D01*
X100478607Y-45371393D01*
X100494671Y-45389117D01*
X100508921Y-45408330D01*
X100521218Y-45428847D01*
X100531446Y-45450471D01*
X100539504Y-45472993D01*
X100545316Y-45496197D01*
X100548826Y-45519858D01*
X100550000Y-45543750D01*
X100550000Y-46456250D01*
X100548826Y-46480142D01*
X100545316Y-46503803D01*
X100539504Y-46527007D01*
X100531446Y-46549529D01*
X100521218Y-46571153D01*
X100508921Y-46591670D01*
X100494671Y-46610883D01*
X100478607Y-46628607D01*
X100460883Y-46644671D01*
X100441670Y-46658921D01*
X100421153Y-46671218D01*
X100399529Y-46681446D01*
X100377007Y-46689504D01*
X100353803Y-46695316D01*
X100330142Y-46698826D01*
X100306250Y-46700000D01*
X99818750Y-46700000D01*
X99794858Y-46698826D01*
X99771197Y-46695316D01*
X99747993Y-46689504D01*
X99725471Y-46681446D01*
X99703847Y-46671218D01*
X99683330Y-46658921D01*
X99664117Y-46644671D01*
X99646393Y-46628607D01*
X99630329Y-46610883D01*
X99616079Y-46591670D01*
X99603782Y-46571153D01*
X99593554Y-46549529D01*
X99585496Y-46527007D01*
X99579684Y-46503803D01*
X99576174Y-46480142D01*
X99575000Y-46456250D01*
X99575000Y-45543750D01*
X99576174Y-45519858D01*
X99579684Y-45496197D01*
X99585496Y-45472993D01*
X99593554Y-45450471D01*
X99603782Y-45428847D01*
X99616079Y-45408330D01*
X99630329Y-45389117D01*
X99646393Y-45371393D01*
X99664117Y-45355329D01*
X99683330Y-45341079D01*
X99703847Y-45328782D01*
X99725471Y-45318554D01*
X99747993Y-45310496D01*
X99771197Y-45304684D01*
X99794858Y-45301174D01*
X99818750Y-45300000D01*
X100306250Y-45300000D01*
X100330142Y-45301174D01*
G37*
G36*
X102205142Y-45301174D02*
G01*
X102228803Y-45304684D01*
X102252007Y-45310496D01*
X102274529Y-45318554D01*
X102296153Y-45328782D01*
X102316670Y-45341079D01*
X102335883Y-45355329D01*
X102353607Y-45371393D01*
X102369671Y-45389117D01*
X102383921Y-45408330D01*
X102396218Y-45428847D01*
X102406446Y-45450471D01*
X102414504Y-45472993D01*
X102420316Y-45496197D01*
X102423826Y-45519858D01*
X102425000Y-45543750D01*
X102425000Y-46456250D01*
X102423826Y-46480142D01*
X102420316Y-46503803D01*
X102414504Y-46527007D01*
X102406446Y-46549529D01*
X102396218Y-46571153D01*
X102383921Y-46591670D01*
X102369671Y-46610883D01*
X102353607Y-46628607D01*
X102335883Y-46644671D01*
X102316670Y-46658921D01*
X102296153Y-46671218D01*
X102274529Y-46681446D01*
X102252007Y-46689504D01*
X102228803Y-46695316D01*
X102205142Y-46698826D01*
X102181250Y-46700000D01*
X101693750Y-46700000D01*
X101669858Y-46698826D01*
X101646197Y-46695316D01*
X101622993Y-46689504D01*
X101600471Y-46681446D01*
X101578847Y-46671218D01*
X101558330Y-46658921D01*
X101539117Y-46644671D01*
X101521393Y-46628607D01*
X101505329Y-46610883D01*
X101491079Y-46591670D01*
X101478782Y-46571153D01*
X101468554Y-46549529D01*
X101460496Y-46527007D01*
X101454684Y-46503803D01*
X101451174Y-46480142D01*
X101450000Y-46456250D01*
X101450000Y-45543750D01*
X101451174Y-45519858D01*
X101454684Y-45496197D01*
X101460496Y-45472993D01*
X101468554Y-45450471D01*
X101478782Y-45428847D01*
X101491079Y-45408330D01*
X101505329Y-45389117D01*
X101521393Y-45371393D01*
X101539117Y-45355329D01*
X101558330Y-45341079D01*
X101578847Y-45328782D01*
X101600471Y-45318554D01*
X101622993Y-45310496D01*
X101646197Y-45304684D01*
X101669858Y-45301174D01*
X101693750Y-45300000D01*
X102181250Y-45300000D01*
X102205142Y-45301174D01*
G37*
G36*
X100480142Y-38951174D02*
G01*
X100503803Y-38954684D01*
X100527007Y-38960496D01*
X100549529Y-38968554D01*
X100571153Y-38978782D01*
X100591670Y-38991079D01*
X100610883Y-39005329D01*
X100628607Y-39021393D01*
X100644671Y-39039117D01*
X100658921Y-39058330D01*
X100671218Y-39078847D01*
X100681446Y-39100471D01*
X100689504Y-39122993D01*
X100695316Y-39146197D01*
X100698826Y-39169858D01*
X100700000Y-39193750D01*
X100700000Y-39681250D01*
X100698826Y-39705142D01*
X100695316Y-39728803D01*
X100689504Y-39752007D01*
X100681446Y-39774529D01*
X100671218Y-39796153D01*
X100658921Y-39816670D01*
X100644671Y-39835883D01*
X100628607Y-39853607D01*
X100610883Y-39869671D01*
X100591670Y-39883921D01*
X100571153Y-39896218D01*
X100549529Y-39906446D01*
X100527007Y-39914504D01*
X100503803Y-39920316D01*
X100480142Y-39923826D01*
X100456250Y-39925000D01*
X99543750Y-39925000D01*
X99519858Y-39923826D01*
X99496197Y-39920316D01*
X99472993Y-39914504D01*
X99450471Y-39906446D01*
X99428847Y-39896218D01*
X99408330Y-39883921D01*
X99389117Y-39869671D01*
X99371393Y-39853607D01*
X99355329Y-39835883D01*
X99341079Y-39816670D01*
X99328782Y-39796153D01*
X99318554Y-39774529D01*
X99310496Y-39752007D01*
X99304684Y-39728803D01*
X99301174Y-39705142D01*
X99300000Y-39681250D01*
X99300000Y-39193750D01*
X99301174Y-39169858D01*
X99304684Y-39146197D01*
X99310496Y-39122993D01*
X99318554Y-39100471D01*
X99328782Y-39078847D01*
X99341079Y-39058330D01*
X99355329Y-39039117D01*
X99371393Y-39021393D01*
X99389117Y-39005329D01*
X99408330Y-38991079D01*
X99428847Y-38978782D01*
X99450471Y-38968554D01*
X99472993Y-38960496D01*
X99496197Y-38954684D01*
X99519858Y-38951174D01*
X99543750Y-38950000D01*
X100456250Y-38950000D01*
X100480142Y-38951174D01*
G37*
G36*
X100480142Y-37076174D02*
G01*
X100503803Y-37079684D01*
X100527007Y-37085496D01*
X100549529Y-37093554D01*
X100571153Y-37103782D01*
X100591670Y-37116079D01*
X100610883Y-37130329D01*
X100628607Y-37146393D01*
X100644671Y-37164117D01*
X100658921Y-37183330D01*
X100671218Y-37203847D01*
X100681446Y-37225471D01*
X100689504Y-37247993D01*
X100695316Y-37271197D01*
X100698826Y-37294858D01*
X100700000Y-37318750D01*
X100700000Y-37806250D01*
X100698826Y-37830142D01*
X100695316Y-37853803D01*
X100689504Y-37877007D01*
X100681446Y-37899529D01*
X100671218Y-37921153D01*
X100658921Y-37941670D01*
X100644671Y-37960883D01*
X100628607Y-37978607D01*
X100610883Y-37994671D01*
X100591670Y-38008921D01*
X100571153Y-38021218D01*
X100549529Y-38031446D01*
X100527007Y-38039504D01*
X100503803Y-38045316D01*
X100480142Y-38048826D01*
X100456250Y-38050000D01*
X99543750Y-38050000D01*
X99519858Y-38048826D01*
X99496197Y-38045316D01*
X99472993Y-38039504D01*
X99450471Y-38031446D01*
X99428847Y-38021218D01*
X99408330Y-38008921D01*
X99389117Y-37994671D01*
X99371393Y-37978607D01*
X99355329Y-37960883D01*
X99341079Y-37941670D01*
X99328782Y-37921153D01*
X99318554Y-37899529D01*
X99310496Y-37877007D01*
X99304684Y-37853803D01*
X99301174Y-37830142D01*
X99300000Y-37806250D01*
X99300000Y-37318750D01*
X99301174Y-37294858D01*
X99304684Y-37271197D01*
X99310496Y-37247993D01*
X99318554Y-37225471D01*
X99328782Y-37203847D01*
X99341079Y-37183330D01*
X99355329Y-37164117D01*
X99371393Y-37146393D01*
X99389117Y-37130329D01*
X99408330Y-37116079D01*
X99428847Y-37103782D01*
X99450471Y-37093554D01*
X99472993Y-37085496D01*
X99496197Y-37079684D01*
X99519858Y-37076174D01*
X99543750Y-37075000D01*
X100456250Y-37075000D01*
X100480142Y-37076174D01*
G37*
G36*
X104676958Y-47680710D02*
G01*
X104691276Y-47682834D01*
X104705317Y-47686351D01*
X104718946Y-47691228D01*
X104732031Y-47697417D01*
X104744447Y-47704858D01*
X104756073Y-47713481D01*
X104766798Y-47723202D01*
X104776519Y-47733927D01*
X104785142Y-47745553D01*
X104792583Y-47757969D01*
X104798772Y-47771054D01*
X104803649Y-47784683D01*
X104807166Y-47798724D01*
X104809290Y-47813042D01*
X104810000Y-47827500D01*
X104810000Y-48172500D01*
X104809290Y-48186958D01*
X104807166Y-48201276D01*
X104803649Y-48215317D01*
X104798772Y-48228946D01*
X104792583Y-48242031D01*
X104785142Y-48254447D01*
X104776519Y-48266073D01*
X104766798Y-48276798D01*
X104756073Y-48286519D01*
X104744447Y-48295142D01*
X104732031Y-48302583D01*
X104718946Y-48308772D01*
X104705317Y-48313649D01*
X104691276Y-48317166D01*
X104676958Y-48319290D01*
X104662500Y-48320000D01*
X104367500Y-48320000D01*
X104353042Y-48319290D01*
X104338724Y-48317166D01*
X104324683Y-48313649D01*
X104311054Y-48308772D01*
X104297969Y-48302583D01*
X104285553Y-48295142D01*
X104273927Y-48286519D01*
X104263202Y-48276798D01*
X104253481Y-48266073D01*
X104244858Y-48254447D01*
X104237417Y-48242031D01*
X104231228Y-48228946D01*
X104226351Y-48215317D01*
X104222834Y-48201276D01*
X104220710Y-48186958D01*
X104220000Y-48172500D01*
X104220000Y-47827500D01*
X104220710Y-47813042D01*
X104222834Y-47798724D01*
X104226351Y-47784683D01*
X104231228Y-47771054D01*
X104237417Y-47757969D01*
X104244858Y-47745553D01*
X104253481Y-47733927D01*
X104263202Y-47723202D01*
X104273927Y-47713481D01*
X104285553Y-47704858D01*
X104297969Y-47697417D01*
X104311054Y-47691228D01*
X104324683Y-47686351D01*
X104338724Y-47682834D01*
X104353042Y-47680710D01*
X104367500Y-47680000D01*
X104662500Y-47680000D01*
X104676958Y-47680710D01*
G37*
G36*
X105646958Y-47680710D02*
G01*
X105661276Y-47682834D01*
X105675317Y-47686351D01*
X105688946Y-47691228D01*
X105702031Y-47697417D01*
X105714447Y-47704858D01*
X105726073Y-47713481D01*
X105736798Y-47723202D01*
X105746519Y-47733927D01*
X105755142Y-47745553D01*
X105762583Y-47757969D01*
X105768772Y-47771054D01*
X105773649Y-47784683D01*
X105777166Y-47798724D01*
X105779290Y-47813042D01*
X105780000Y-47827500D01*
X105780000Y-48172500D01*
X105779290Y-48186958D01*
X105777166Y-48201276D01*
X105773649Y-48215317D01*
X105768772Y-48228946D01*
X105762583Y-48242031D01*
X105755142Y-48254447D01*
X105746519Y-48266073D01*
X105736798Y-48276798D01*
X105726073Y-48286519D01*
X105714447Y-48295142D01*
X105702031Y-48302583D01*
X105688946Y-48308772D01*
X105675317Y-48313649D01*
X105661276Y-48317166D01*
X105646958Y-48319290D01*
X105632500Y-48320000D01*
X105337500Y-48320000D01*
X105323042Y-48319290D01*
X105308724Y-48317166D01*
X105294683Y-48313649D01*
X105281054Y-48308772D01*
X105267969Y-48302583D01*
X105255553Y-48295142D01*
X105243927Y-48286519D01*
X105233202Y-48276798D01*
X105223481Y-48266073D01*
X105214858Y-48254447D01*
X105207417Y-48242031D01*
X105201228Y-48228946D01*
X105196351Y-48215317D01*
X105192834Y-48201276D01*
X105190710Y-48186958D01*
X105190000Y-48172500D01*
X105190000Y-47827500D01*
X105190710Y-47813042D01*
X105192834Y-47798724D01*
X105196351Y-47784683D01*
X105201228Y-47771054D01*
X105207417Y-47757969D01*
X105214858Y-47745553D01*
X105223481Y-47733927D01*
X105233202Y-47723202D01*
X105243927Y-47713481D01*
X105255553Y-47704858D01*
X105267969Y-47697417D01*
X105281054Y-47691228D01*
X105294683Y-47686351D01*
X105308724Y-47682834D01*
X105323042Y-47680710D01*
X105337500Y-47680000D01*
X105632500Y-47680000D01*
X105646958Y-47680710D01*
G37*
G36*
X104330142Y-45301174D02*
G01*
X104353803Y-45304684D01*
X104377007Y-45310496D01*
X104399529Y-45318554D01*
X104421153Y-45328782D01*
X104441670Y-45341079D01*
X104460883Y-45355329D01*
X104478607Y-45371393D01*
X104494671Y-45389117D01*
X104508921Y-45408330D01*
X104521218Y-45428847D01*
X104531446Y-45450471D01*
X104539504Y-45472993D01*
X104545316Y-45496197D01*
X104548826Y-45519858D01*
X104550000Y-45543750D01*
X104550000Y-46456250D01*
X104548826Y-46480142D01*
X104545316Y-46503803D01*
X104539504Y-46527007D01*
X104531446Y-46549529D01*
X104521218Y-46571153D01*
X104508921Y-46591670D01*
X104494671Y-46610883D01*
X104478607Y-46628607D01*
X104460883Y-46644671D01*
X104441670Y-46658921D01*
X104421153Y-46671218D01*
X104399529Y-46681446D01*
X104377007Y-46689504D01*
X104353803Y-46695316D01*
X104330142Y-46698826D01*
X104306250Y-46700000D01*
X103818750Y-46700000D01*
X103794858Y-46698826D01*
X103771197Y-46695316D01*
X103747993Y-46689504D01*
X103725471Y-46681446D01*
X103703847Y-46671218D01*
X103683330Y-46658921D01*
X103664117Y-46644671D01*
X103646393Y-46628607D01*
X103630329Y-46610883D01*
X103616079Y-46591670D01*
X103603782Y-46571153D01*
X103593554Y-46549529D01*
X103585496Y-46527007D01*
X103579684Y-46503803D01*
X103576174Y-46480142D01*
X103575000Y-46456250D01*
X103575000Y-45543750D01*
X103576174Y-45519858D01*
X103579684Y-45496197D01*
X103585496Y-45472993D01*
X103593554Y-45450471D01*
X103603782Y-45428847D01*
X103616079Y-45408330D01*
X103630329Y-45389117D01*
X103646393Y-45371393D01*
X103664117Y-45355329D01*
X103683330Y-45341079D01*
X103703847Y-45328782D01*
X103725471Y-45318554D01*
X103747993Y-45310496D01*
X103771197Y-45304684D01*
X103794858Y-45301174D01*
X103818750Y-45300000D01*
X104306250Y-45300000D01*
X104330142Y-45301174D01*
G37*
G36*
X106205142Y-45301174D02*
G01*
X106228803Y-45304684D01*
X106252007Y-45310496D01*
X106274529Y-45318554D01*
X106296153Y-45328782D01*
X106316670Y-45341079D01*
X106335883Y-45355329D01*
X106353607Y-45371393D01*
X106369671Y-45389117D01*
X106383921Y-45408330D01*
X106396218Y-45428847D01*
X106406446Y-45450471D01*
X106414504Y-45472993D01*
X106420316Y-45496197D01*
X106423826Y-45519858D01*
X106425000Y-45543750D01*
X106425000Y-46456250D01*
X106423826Y-46480142D01*
X106420316Y-46503803D01*
X106414504Y-46527007D01*
X106406446Y-46549529D01*
X106396218Y-46571153D01*
X106383921Y-46591670D01*
X106369671Y-46610883D01*
X106353607Y-46628607D01*
X106335883Y-46644671D01*
X106316670Y-46658921D01*
X106296153Y-46671218D01*
X106274529Y-46681446D01*
X106252007Y-46689504D01*
X106228803Y-46695316D01*
X106205142Y-46698826D01*
X106181250Y-46700000D01*
X105693750Y-46700000D01*
X105669858Y-46698826D01*
X105646197Y-46695316D01*
X105622993Y-46689504D01*
X105600471Y-46681446D01*
X105578847Y-46671218D01*
X105558330Y-46658921D01*
X105539117Y-46644671D01*
X105521393Y-46628607D01*
X105505329Y-46610883D01*
X105491079Y-46591670D01*
X105478782Y-46571153D01*
X105468554Y-46549529D01*
X105460496Y-46527007D01*
X105454684Y-46503803D01*
X105451174Y-46480142D01*
X105450000Y-46456250D01*
X105450000Y-45543750D01*
X105451174Y-45519858D01*
X105454684Y-45496197D01*
X105460496Y-45472993D01*
X105468554Y-45450471D01*
X105478782Y-45428847D01*
X105491079Y-45408330D01*
X105505329Y-45389117D01*
X105521393Y-45371393D01*
X105539117Y-45355329D01*
X105558330Y-45341079D01*
X105578847Y-45328782D01*
X105600471Y-45318554D01*
X105622993Y-45310496D01*
X105646197Y-45304684D01*
X105669858Y-45301174D01*
X105693750Y-45300000D01*
X106181250Y-45300000D01*
X106205142Y-45301174D01*
G37*
G36*
X97980142Y-45576174D02*
G01*
X98003803Y-45579684D01*
X98027007Y-45585496D01*
X98049529Y-45593554D01*
X98071153Y-45603782D01*
X98091670Y-45616079D01*
X98110883Y-45630329D01*
X98128607Y-45646393D01*
X98144671Y-45664117D01*
X98158921Y-45683330D01*
X98171218Y-45703847D01*
X98181446Y-45725471D01*
X98189504Y-45747993D01*
X98195316Y-45771197D01*
X98198826Y-45794858D01*
X98200000Y-45818750D01*
X98200000Y-46306250D01*
X98198826Y-46330142D01*
X98195316Y-46353803D01*
X98189504Y-46377007D01*
X98181446Y-46399529D01*
X98171218Y-46421153D01*
X98158921Y-46441670D01*
X98144671Y-46460883D01*
X98128607Y-46478607D01*
X98110883Y-46494671D01*
X98091670Y-46508921D01*
X98071153Y-46521218D01*
X98049529Y-46531446D01*
X98027007Y-46539504D01*
X98003803Y-46545316D01*
X97980142Y-46548826D01*
X97956250Y-46550000D01*
X97043750Y-46550000D01*
X97019858Y-46548826D01*
X96996197Y-46545316D01*
X96972993Y-46539504D01*
X96950471Y-46531446D01*
X96928847Y-46521218D01*
X96908330Y-46508921D01*
X96889117Y-46494671D01*
X96871393Y-46478607D01*
X96855329Y-46460883D01*
X96841079Y-46441670D01*
X96828782Y-46421153D01*
X96818554Y-46399529D01*
X96810496Y-46377007D01*
X96804684Y-46353803D01*
X96801174Y-46330142D01*
X96800000Y-46306250D01*
X96800000Y-45818750D01*
X96801174Y-45794858D01*
X96804684Y-45771197D01*
X96810496Y-45747993D01*
X96818554Y-45725471D01*
X96828782Y-45703847D01*
X96841079Y-45683330D01*
X96855329Y-45664117D01*
X96871393Y-45646393D01*
X96889117Y-45630329D01*
X96908330Y-45616079D01*
X96928847Y-45603782D01*
X96950471Y-45593554D01*
X96972993Y-45585496D01*
X96996197Y-45579684D01*
X97019858Y-45576174D01*
X97043750Y-45575000D01*
X97956250Y-45575000D01*
X97980142Y-45576174D01*
G37*
G36*
X97980142Y-47451174D02*
G01*
X98003803Y-47454684D01*
X98027007Y-47460496D01*
X98049529Y-47468554D01*
X98071153Y-47478782D01*
X98091670Y-47491079D01*
X98110883Y-47505329D01*
X98128607Y-47521393D01*
X98144671Y-47539117D01*
X98158921Y-47558330D01*
X98171218Y-47578847D01*
X98181446Y-47600471D01*
X98189504Y-47622993D01*
X98195316Y-47646197D01*
X98198826Y-47669858D01*
X98200000Y-47693750D01*
X98200000Y-48181250D01*
X98198826Y-48205142D01*
X98195316Y-48228803D01*
X98189504Y-48252007D01*
X98181446Y-48274529D01*
X98171218Y-48296153D01*
X98158921Y-48316670D01*
X98144671Y-48335883D01*
X98128607Y-48353607D01*
X98110883Y-48369671D01*
X98091670Y-48383921D01*
X98071153Y-48396218D01*
X98049529Y-48406446D01*
X98027007Y-48414504D01*
X98003803Y-48420316D01*
X97980142Y-48423826D01*
X97956250Y-48425000D01*
X97043750Y-48425000D01*
X97019858Y-48423826D01*
X96996197Y-48420316D01*
X96972993Y-48414504D01*
X96950471Y-48406446D01*
X96928847Y-48396218D01*
X96908330Y-48383921D01*
X96889117Y-48369671D01*
X96871393Y-48353607D01*
X96855329Y-48335883D01*
X96841079Y-48316670D01*
X96828782Y-48296153D01*
X96818554Y-48274529D01*
X96810496Y-48252007D01*
X96804684Y-48228803D01*
X96801174Y-48205142D01*
X96800000Y-48181250D01*
X96800000Y-47693750D01*
X96801174Y-47669858D01*
X96804684Y-47646197D01*
X96810496Y-47622993D01*
X96818554Y-47600471D01*
X96828782Y-47578847D01*
X96841079Y-47558330D01*
X96855329Y-47539117D01*
X96871393Y-47521393D01*
X96889117Y-47505329D01*
X96908330Y-47491079D01*
X96928847Y-47478782D01*
X96950471Y-47468554D01*
X96972993Y-47460496D01*
X96996197Y-47454684D01*
X97019858Y-47451174D01*
X97043750Y-47450000D01*
X97956250Y-47450000D01*
X97980142Y-47451174D01*
G37*
G36*
X110676958Y-57680710D02*
G01*
X110691276Y-57682834D01*
X110705317Y-57686351D01*
X110718946Y-57691228D01*
X110732031Y-57697417D01*
X110744447Y-57704858D01*
X110756073Y-57713481D01*
X110766798Y-57723202D01*
X110776519Y-57733927D01*
X110785142Y-57745553D01*
X110792583Y-57757969D01*
X110798772Y-57771054D01*
X110803649Y-57784683D01*
X110807166Y-57798724D01*
X110809290Y-57813042D01*
X110810000Y-57827500D01*
X110810000Y-58172500D01*
X110809290Y-58186958D01*
X110807166Y-58201276D01*
X110803649Y-58215317D01*
X110798772Y-58228946D01*
X110792583Y-58242031D01*
X110785142Y-58254447D01*
X110776519Y-58266073D01*
X110766798Y-58276798D01*
X110756073Y-58286519D01*
X110744447Y-58295142D01*
X110732031Y-58302583D01*
X110718946Y-58308772D01*
X110705317Y-58313649D01*
X110691276Y-58317166D01*
X110676958Y-58319290D01*
X110662500Y-58320000D01*
X110367500Y-58320000D01*
X110353042Y-58319290D01*
X110338724Y-58317166D01*
X110324683Y-58313649D01*
X110311054Y-58308772D01*
X110297969Y-58302583D01*
X110285553Y-58295142D01*
X110273927Y-58286519D01*
X110263202Y-58276798D01*
X110253481Y-58266073D01*
X110244858Y-58254447D01*
X110237417Y-58242031D01*
X110231228Y-58228946D01*
X110226351Y-58215317D01*
X110222834Y-58201276D01*
X110220710Y-58186958D01*
X110220000Y-58172500D01*
X110220000Y-57827500D01*
X110220710Y-57813042D01*
X110222834Y-57798724D01*
X110226351Y-57784683D01*
X110231228Y-57771054D01*
X110237417Y-57757969D01*
X110244858Y-57745553D01*
X110253481Y-57733927D01*
X110263202Y-57723202D01*
X110273927Y-57713481D01*
X110285553Y-57704858D01*
X110297969Y-57697417D01*
X110311054Y-57691228D01*
X110324683Y-57686351D01*
X110338724Y-57682834D01*
X110353042Y-57680710D01*
X110367500Y-57680000D01*
X110662500Y-57680000D01*
X110676958Y-57680710D01*
G37*
G36*
X111646958Y-57680710D02*
G01*
X111661276Y-57682834D01*
X111675317Y-57686351D01*
X111688946Y-57691228D01*
X111702031Y-57697417D01*
X111714447Y-57704858D01*
X111726073Y-57713481D01*
X111736798Y-57723202D01*
X111746519Y-57733927D01*
X111755142Y-57745553D01*
X111762583Y-57757969D01*
X111768772Y-57771054D01*
X111773649Y-57784683D01*
X111777166Y-57798724D01*
X111779290Y-57813042D01*
X111780000Y-57827500D01*
X111780000Y-58172500D01*
X111779290Y-58186958D01*
X111777166Y-58201276D01*
X111773649Y-58215317D01*
X111768772Y-58228946D01*
X111762583Y-58242031D01*
X111755142Y-58254447D01*
X111746519Y-58266073D01*
X111736798Y-58276798D01*
X111726073Y-58286519D01*
X111714447Y-58295142D01*
X111702031Y-58302583D01*
X111688946Y-58308772D01*
X111675317Y-58313649D01*
X111661276Y-58317166D01*
X111646958Y-58319290D01*
X111632500Y-58320000D01*
X111337500Y-58320000D01*
X111323042Y-58319290D01*
X111308724Y-58317166D01*
X111294683Y-58313649D01*
X111281054Y-58308772D01*
X111267969Y-58302583D01*
X111255553Y-58295142D01*
X111243927Y-58286519D01*
X111233202Y-58276798D01*
X111223481Y-58266073D01*
X111214858Y-58254447D01*
X111207417Y-58242031D01*
X111201228Y-58228946D01*
X111196351Y-58215317D01*
X111192834Y-58201276D01*
X111190710Y-58186958D01*
X111190000Y-58172500D01*
X111190000Y-57827500D01*
X111190710Y-57813042D01*
X111192834Y-57798724D01*
X111196351Y-57784683D01*
X111201228Y-57771054D01*
X111207417Y-57757969D01*
X111214858Y-57745553D01*
X111223481Y-57733927D01*
X111233202Y-57723202D01*
X111243927Y-57713481D01*
X111255553Y-57704858D01*
X111267969Y-57697417D01*
X111281054Y-57691228D01*
X111294683Y-57686351D01*
X111308724Y-57682834D01*
X111323042Y-57680710D01*
X111337500Y-57680000D01*
X111632500Y-57680000D01*
X111646958Y-57680710D01*
G37*
G36*
X102676958Y-59680710D02*
G01*
X102691276Y-59682834D01*
X102705317Y-59686351D01*
X102718946Y-59691228D01*
X102732031Y-59697417D01*
X102744447Y-59704858D01*
X102756073Y-59713481D01*
X102766798Y-59723202D01*
X102776519Y-59733927D01*
X102785142Y-59745553D01*
X102792583Y-59757969D01*
X102798772Y-59771054D01*
X102803649Y-59784683D01*
X102807166Y-59798724D01*
X102809290Y-59813042D01*
X102810000Y-59827500D01*
X102810000Y-60172500D01*
X102809290Y-60186958D01*
X102807166Y-60201276D01*
X102803649Y-60215317D01*
X102798772Y-60228946D01*
X102792583Y-60242031D01*
X102785142Y-60254447D01*
X102776519Y-60266073D01*
X102766798Y-60276798D01*
X102756073Y-60286519D01*
X102744447Y-60295142D01*
X102732031Y-60302583D01*
X102718946Y-60308772D01*
X102705317Y-60313649D01*
X102691276Y-60317166D01*
X102676958Y-60319290D01*
X102662500Y-60320000D01*
X102367500Y-60320000D01*
X102353042Y-60319290D01*
X102338724Y-60317166D01*
X102324683Y-60313649D01*
X102311054Y-60308772D01*
X102297969Y-60302583D01*
X102285553Y-60295142D01*
X102273927Y-60286519D01*
X102263202Y-60276798D01*
X102253481Y-60266073D01*
X102244858Y-60254447D01*
X102237417Y-60242031D01*
X102231228Y-60228946D01*
X102226351Y-60215317D01*
X102222834Y-60201276D01*
X102220710Y-60186958D01*
X102220000Y-60172500D01*
X102220000Y-59827500D01*
X102220710Y-59813042D01*
X102222834Y-59798724D01*
X102226351Y-59784683D01*
X102231228Y-59771054D01*
X102237417Y-59757969D01*
X102244858Y-59745553D01*
X102253481Y-59733927D01*
X102263202Y-59723202D01*
X102273927Y-59713481D01*
X102285553Y-59704858D01*
X102297969Y-59697417D01*
X102311054Y-59691228D01*
X102324683Y-59686351D01*
X102338724Y-59682834D01*
X102353042Y-59680710D01*
X102367500Y-59680000D01*
X102662500Y-59680000D01*
X102676958Y-59680710D01*
G37*
G36*
X103646958Y-59680710D02*
G01*
X103661276Y-59682834D01*
X103675317Y-59686351D01*
X103688946Y-59691228D01*
X103702031Y-59697417D01*
X103714447Y-59704858D01*
X103726073Y-59713481D01*
X103736798Y-59723202D01*
X103746519Y-59733927D01*
X103755142Y-59745553D01*
X103762583Y-59757969D01*
X103768772Y-59771054D01*
X103773649Y-59784683D01*
X103777166Y-59798724D01*
X103779290Y-59813042D01*
X103780000Y-59827500D01*
X103780000Y-60172500D01*
X103779290Y-60186958D01*
X103777166Y-60201276D01*
X103773649Y-60215317D01*
X103768772Y-60228946D01*
X103762583Y-60242031D01*
X103755142Y-60254447D01*
X103746519Y-60266073D01*
X103736798Y-60276798D01*
X103726073Y-60286519D01*
X103714447Y-60295142D01*
X103702031Y-60302583D01*
X103688946Y-60308772D01*
X103675317Y-60313649D01*
X103661276Y-60317166D01*
X103646958Y-60319290D01*
X103632500Y-60320000D01*
X103337500Y-60320000D01*
X103323042Y-60319290D01*
X103308724Y-60317166D01*
X103294683Y-60313649D01*
X103281054Y-60308772D01*
X103267969Y-60302583D01*
X103255553Y-60295142D01*
X103243927Y-60286519D01*
X103233202Y-60276798D01*
X103223481Y-60266073D01*
X103214858Y-60254447D01*
X103207417Y-60242031D01*
X103201228Y-60228946D01*
X103196351Y-60215317D01*
X103192834Y-60201276D01*
X103190710Y-60186958D01*
X103190000Y-60172500D01*
X103190000Y-59827500D01*
X103190710Y-59813042D01*
X103192834Y-59798724D01*
X103196351Y-59784683D01*
X103201228Y-59771054D01*
X103207417Y-59757969D01*
X103214858Y-59745553D01*
X103223481Y-59733927D01*
X103233202Y-59723202D01*
X103243927Y-59713481D01*
X103255553Y-59704858D01*
X103267969Y-59697417D01*
X103281054Y-59691228D01*
X103294683Y-59686351D01*
X103308724Y-59682834D01*
X103323042Y-59680710D01*
X103337500Y-59680000D01*
X103632500Y-59680000D01*
X103646958Y-59680710D01*
G37*
G36*
X110676958Y-54680710D02*
G01*
X110691276Y-54682834D01*
X110705317Y-54686351D01*
X110718946Y-54691228D01*
X110732031Y-54697417D01*
X110744447Y-54704858D01*
X110756073Y-54713481D01*
X110766798Y-54723202D01*
X110776519Y-54733927D01*
X110785142Y-54745553D01*
X110792583Y-54757969D01*
X110798772Y-54771054D01*
X110803649Y-54784683D01*
X110807166Y-54798724D01*
X110809290Y-54813042D01*
X110810000Y-54827500D01*
X110810000Y-55172500D01*
X110809290Y-55186958D01*
X110807166Y-55201276D01*
X110803649Y-55215317D01*
X110798772Y-55228946D01*
X110792583Y-55242031D01*
X110785142Y-55254447D01*
X110776519Y-55266073D01*
X110766798Y-55276798D01*
X110756073Y-55286519D01*
X110744447Y-55295142D01*
X110732031Y-55302583D01*
X110718946Y-55308772D01*
X110705317Y-55313649D01*
X110691276Y-55317166D01*
X110676958Y-55319290D01*
X110662500Y-55320000D01*
X110367500Y-55320000D01*
X110353042Y-55319290D01*
X110338724Y-55317166D01*
X110324683Y-55313649D01*
X110311054Y-55308772D01*
X110297969Y-55302583D01*
X110285553Y-55295142D01*
X110273927Y-55286519D01*
X110263202Y-55276798D01*
X110253481Y-55266073D01*
X110244858Y-55254447D01*
X110237417Y-55242031D01*
X110231228Y-55228946D01*
X110226351Y-55215317D01*
X110222834Y-55201276D01*
X110220710Y-55186958D01*
X110220000Y-55172500D01*
X110220000Y-54827500D01*
X110220710Y-54813042D01*
X110222834Y-54798724D01*
X110226351Y-54784683D01*
X110231228Y-54771054D01*
X110237417Y-54757969D01*
X110244858Y-54745553D01*
X110253481Y-54733927D01*
X110263202Y-54723202D01*
X110273927Y-54713481D01*
X110285553Y-54704858D01*
X110297969Y-54697417D01*
X110311054Y-54691228D01*
X110324683Y-54686351D01*
X110338724Y-54682834D01*
X110353042Y-54680710D01*
X110367500Y-54680000D01*
X110662500Y-54680000D01*
X110676958Y-54680710D01*
G37*
G36*
X111646958Y-54680710D02*
G01*
X111661276Y-54682834D01*
X111675317Y-54686351D01*
X111688946Y-54691228D01*
X111702031Y-54697417D01*
X111714447Y-54704858D01*
X111726073Y-54713481D01*
X111736798Y-54723202D01*
X111746519Y-54733927D01*
X111755142Y-54745553D01*
X111762583Y-54757969D01*
X111768772Y-54771054D01*
X111773649Y-54784683D01*
X111777166Y-54798724D01*
X111779290Y-54813042D01*
X111780000Y-54827500D01*
X111780000Y-55172500D01*
X111779290Y-55186958D01*
X111777166Y-55201276D01*
X111773649Y-55215317D01*
X111768772Y-55228946D01*
X111762583Y-55242031D01*
X111755142Y-55254447D01*
X111746519Y-55266073D01*
X111736798Y-55276798D01*
X111726073Y-55286519D01*
X111714447Y-55295142D01*
X111702031Y-55302583D01*
X111688946Y-55308772D01*
X111675317Y-55313649D01*
X111661276Y-55317166D01*
X111646958Y-55319290D01*
X111632500Y-55320000D01*
X111337500Y-55320000D01*
X111323042Y-55319290D01*
X111308724Y-55317166D01*
X111294683Y-55313649D01*
X111281054Y-55308772D01*
X111267969Y-55302583D01*
X111255553Y-55295142D01*
X111243927Y-55286519D01*
X111233202Y-55276798D01*
X111223481Y-55266073D01*
X111214858Y-55254447D01*
X111207417Y-55242031D01*
X111201228Y-55228946D01*
X111196351Y-55215317D01*
X111192834Y-55201276D01*
X111190710Y-55186958D01*
X111190000Y-55172500D01*
X111190000Y-54827500D01*
X111190710Y-54813042D01*
X111192834Y-54798724D01*
X111196351Y-54784683D01*
X111201228Y-54771054D01*
X111207417Y-54757969D01*
X111214858Y-54745553D01*
X111223481Y-54733927D01*
X111233202Y-54723202D01*
X111243927Y-54713481D01*
X111255553Y-54704858D01*
X111267969Y-54697417D01*
X111281054Y-54691228D01*
X111294683Y-54686351D01*
X111308724Y-54682834D01*
X111323042Y-54680710D01*
X111337500Y-54680000D01*
X111632500Y-54680000D01*
X111646958Y-54680710D01*
G37*
G36*
X110205142Y-45301174D02*
G01*
X110228803Y-45304684D01*
X110252007Y-45310496D01*
X110274529Y-45318554D01*
X110296153Y-45328782D01*
X110316670Y-45341079D01*
X110335883Y-45355329D01*
X110353607Y-45371393D01*
X110369671Y-45389117D01*
X110383921Y-45408330D01*
X110396218Y-45428847D01*
X110406446Y-45450471D01*
X110414504Y-45472993D01*
X110420316Y-45496197D01*
X110423826Y-45519858D01*
X110425000Y-45543750D01*
X110425000Y-46456250D01*
X110423826Y-46480142D01*
X110420316Y-46503803D01*
X110414504Y-46527007D01*
X110406446Y-46549529D01*
X110396218Y-46571153D01*
X110383921Y-46591670D01*
X110369671Y-46610883D01*
X110353607Y-46628607D01*
X110335883Y-46644671D01*
X110316670Y-46658921D01*
X110296153Y-46671218D01*
X110274529Y-46681446D01*
X110252007Y-46689504D01*
X110228803Y-46695316D01*
X110205142Y-46698826D01*
X110181250Y-46700000D01*
X109693750Y-46700000D01*
X109669858Y-46698826D01*
X109646197Y-46695316D01*
X109622993Y-46689504D01*
X109600471Y-46681446D01*
X109578847Y-46671218D01*
X109558330Y-46658921D01*
X109539117Y-46644671D01*
X109521393Y-46628607D01*
X109505329Y-46610883D01*
X109491079Y-46591670D01*
X109478782Y-46571153D01*
X109468554Y-46549529D01*
X109460496Y-46527007D01*
X109454684Y-46503803D01*
X109451174Y-46480142D01*
X109450000Y-46456250D01*
X109450000Y-45543750D01*
X109451174Y-45519858D01*
X109454684Y-45496197D01*
X109460496Y-45472993D01*
X109468554Y-45450471D01*
X109478782Y-45428847D01*
X109491079Y-45408330D01*
X109505329Y-45389117D01*
X109521393Y-45371393D01*
X109539117Y-45355329D01*
X109558330Y-45341079D01*
X109578847Y-45328782D01*
X109600471Y-45318554D01*
X109622993Y-45310496D01*
X109646197Y-45304684D01*
X109669858Y-45301174D01*
X109693750Y-45300000D01*
X110181250Y-45300000D01*
X110205142Y-45301174D01*
G37*
G36*
X108330142Y-45301174D02*
G01*
X108353803Y-45304684D01*
X108377007Y-45310496D01*
X108399529Y-45318554D01*
X108421153Y-45328782D01*
X108441670Y-45341079D01*
X108460883Y-45355329D01*
X108478607Y-45371393D01*
X108494671Y-45389117D01*
X108508921Y-45408330D01*
X108521218Y-45428847D01*
X108531446Y-45450471D01*
X108539504Y-45472993D01*
X108545316Y-45496197D01*
X108548826Y-45519858D01*
X108550000Y-45543750D01*
X108550000Y-46456250D01*
X108548826Y-46480142D01*
X108545316Y-46503803D01*
X108539504Y-46527007D01*
X108531446Y-46549529D01*
X108521218Y-46571153D01*
X108508921Y-46591670D01*
X108494671Y-46610883D01*
X108478607Y-46628607D01*
X108460883Y-46644671D01*
X108441670Y-46658921D01*
X108421153Y-46671218D01*
X108399529Y-46681446D01*
X108377007Y-46689504D01*
X108353803Y-46695316D01*
X108330142Y-46698826D01*
X108306250Y-46700000D01*
X107818750Y-46700000D01*
X107794858Y-46698826D01*
X107771197Y-46695316D01*
X107747993Y-46689504D01*
X107725471Y-46681446D01*
X107703847Y-46671218D01*
X107683330Y-46658921D01*
X107664117Y-46644671D01*
X107646393Y-46628607D01*
X107630329Y-46610883D01*
X107616079Y-46591670D01*
X107603782Y-46571153D01*
X107593554Y-46549529D01*
X107585496Y-46527007D01*
X107579684Y-46503803D01*
X107576174Y-46480142D01*
X107575000Y-46456250D01*
X107575000Y-45543750D01*
X107576174Y-45519858D01*
X107579684Y-45496197D01*
X107585496Y-45472993D01*
X107593554Y-45450471D01*
X107603782Y-45428847D01*
X107616079Y-45408330D01*
X107630329Y-45389117D01*
X107646393Y-45371393D01*
X107664117Y-45355329D01*
X107683330Y-45341079D01*
X107703847Y-45328782D01*
X107725471Y-45318554D01*
X107747993Y-45310496D01*
X107771197Y-45304684D01*
X107794858Y-45301174D01*
X107818750Y-45300000D01*
X108306250Y-45300000D01*
X108330142Y-45301174D01*
G37*
M02*
