G04 #@! TF.GenerationSoftware,KiCad,Pcbnew,5.1.5-52549c5~86~ubuntu18.04.1*
G04 #@! TF.CreationDate,2020-05-03T22:10:49-04:00*
G04 #@! TF.ProjectId,lna-filt,6c6e612d-6669-46c7-942e-6b696361645f,rev?*
G04 #@! TF.SameCoordinates,Original*
G04 #@! TF.FileFunction,Copper,L2,Bot*
G04 #@! TF.FilePolarity,Positive*
%FSLAX46Y46*%
G04 Gerber Fmt 4.6, Leading zero omitted, Abs format (unit mm)*
G04 Created by KiCad (PCBNEW 5.1.5-52549c5~86~ubuntu18.04.1) date 2020-05-03 22:10:49*
%MOMM*%
%LPD*%
G04 APERTURE LIST*
%ADD10R,5.080000X1.500000*%
%ADD11O,1.900000X1.200000*%
%ADD12C,1.450000*%
%ADD13C,0.100000*%
%ADD14R,3.500000X3.500000*%
%ADD15C,0.800000*%
%ADD16C,0.127000*%
G04 APERTURE END LIST*
D10*
X85000000Y-79250000D03*
X85000000Y-70750000D03*
X130000000Y-70750000D03*
X130000000Y-79250000D03*
D11*
X84262500Y-49500000D03*
X84262500Y-42500000D03*
D12*
X86962500Y-48500000D03*
X86962500Y-43500000D03*
G04 #@! TA.AperFunction,ComponentPad*
D13*
G36*
X93960765Y-38954213D02*
G01*
X94045704Y-38966813D01*
X94128999Y-38987677D01*
X94209848Y-39016605D01*
X94287472Y-39053319D01*
X94361124Y-39097464D01*
X94430094Y-39148616D01*
X94493718Y-39206282D01*
X94551384Y-39269906D01*
X94602536Y-39338876D01*
X94646681Y-39412528D01*
X94683395Y-39490152D01*
X94712323Y-39571001D01*
X94733187Y-39654296D01*
X94745787Y-39739235D01*
X94750000Y-39825000D01*
X94750000Y-41575000D01*
X94745787Y-41660765D01*
X94733187Y-41745704D01*
X94712323Y-41828999D01*
X94683395Y-41909848D01*
X94646681Y-41987472D01*
X94602536Y-42061124D01*
X94551384Y-42130094D01*
X94493718Y-42193718D01*
X94430094Y-42251384D01*
X94361124Y-42302536D01*
X94287472Y-42346681D01*
X94209848Y-42383395D01*
X94128999Y-42412323D01*
X94045704Y-42433187D01*
X93960765Y-42445787D01*
X93875000Y-42450000D01*
X92125000Y-42450000D01*
X92039235Y-42445787D01*
X91954296Y-42433187D01*
X91871001Y-42412323D01*
X91790152Y-42383395D01*
X91712528Y-42346681D01*
X91638876Y-42302536D01*
X91569906Y-42251384D01*
X91506282Y-42193718D01*
X91448616Y-42130094D01*
X91397464Y-42061124D01*
X91353319Y-41987472D01*
X91316605Y-41909848D01*
X91287677Y-41828999D01*
X91266813Y-41745704D01*
X91254213Y-41660765D01*
X91250000Y-41575000D01*
X91250000Y-39825000D01*
X91254213Y-39739235D01*
X91266813Y-39654296D01*
X91287677Y-39571001D01*
X91316605Y-39490152D01*
X91353319Y-39412528D01*
X91397464Y-39338876D01*
X91448616Y-39269906D01*
X91506282Y-39206282D01*
X91569906Y-39148616D01*
X91638876Y-39097464D01*
X91712528Y-39053319D01*
X91790152Y-39016605D01*
X91871001Y-38987677D01*
X91954296Y-38966813D01*
X92039235Y-38954213D01*
X92125000Y-38950000D01*
X93875000Y-38950000D01*
X93960765Y-38954213D01*
G37*
G04 #@! TD.AperFunction*
G04 #@! TA.AperFunction,ComponentPad*
G36*
X90823513Y-34253611D02*
G01*
X90896318Y-34264411D01*
X90967714Y-34282295D01*
X91037013Y-34307090D01*
X91103548Y-34338559D01*
X91166678Y-34376398D01*
X91225795Y-34420242D01*
X91280330Y-34469670D01*
X91329758Y-34524205D01*
X91373602Y-34583322D01*
X91411441Y-34646452D01*
X91442910Y-34712987D01*
X91467705Y-34782286D01*
X91485589Y-34853682D01*
X91496389Y-34926487D01*
X91500000Y-35000000D01*
X91500000Y-37000000D01*
X91496389Y-37073513D01*
X91485589Y-37146318D01*
X91467705Y-37217714D01*
X91442910Y-37287013D01*
X91411441Y-37353548D01*
X91373602Y-37416678D01*
X91329758Y-37475795D01*
X91280330Y-37530330D01*
X91225795Y-37579758D01*
X91166678Y-37623602D01*
X91103548Y-37661441D01*
X91037013Y-37692910D01*
X90967714Y-37717705D01*
X90896318Y-37735589D01*
X90823513Y-37746389D01*
X90750000Y-37750000D01*
X89250000Y-37750000D01*
X89176487Y-37746389D01*
X89103682Y-37735589D01*
X89032286Y-37717705D01*
X88962987Y-37692910D01*
X88896452Y-37661441D01*
X88833322Y-37623602D01*
X88774205Y-37579758D01*
X88719670Y-37530330D01*
X88670242Y-37475795D01*
X88626398Y-37416678D01*
X88588559Y-37353548D01*
X88557090Y-37287013D01*
X88532295Y-37217714D01*
X88514411Y-37146318D01*
X88503611Y-37073513D01*
X88500000Y-37000000D01*
X88500000Y-35000000D01*
X88503611Y-34926487D01*
X88514411Y-34853682D01*
X88532295Y-34782286D01*
X88557090Y-34712987D01*
X88588559Y-34646452D01*
X88626398Y-34583322D01*
X88670242Y-34524205D01*
X88719670Y-34469670D01*
X88774205Y-34420242D01*
X88833322Y-34376398D01*
X88896452Y-34338559D01*
X88962987Y-34307090D01*
X89032286Y-34282295D01*
X89103682Y-34264411D01*
X89176487Y-34253611D01*
X89250000Y-34250000D01*
X90750000Y-34250000D01*
X90823513Y-34253611D01*
G37*
G04 #@! TD.AperFunction*
D14*
X96000000Y-36000000D03*
D10*
X130000000Y-55750000D03*
X130000000Y-64250000D03*
X85000000Y-64250000D03*
X85000000Y-55750000D03*
D15*
X126500000Y-55750000D03*
X126500000Y-64250000D03*
X88500000Y-64250000D03*
X88500000Y-55750000D03*
X88500000Y-70750000D03*
X88500000Y-79250000D03*
X126500000Y-79250000D03*
X126500000Y-70750000D03*
X88500000Y-59000000D03*
X90500000Y-59000000D03*
X92500000Y-59000000D03*
X94500000Y-59000000D03*
X96500000Y-59000000D03*
X98500000Y-59000000D03*
X100500000Y-59000000D03*
X102500000Y-59000000D03*
X104500000Y-59000000D03*
X100500000Y-61000000D03*
X92500000Y-61000000D03*
X98500000Y-61000000D03*
X102500000Y-61000000D03*
X96500000Y-61000000D03*
X88500000Y-61000000D03*
X90500000Y-61000000D03*
X104500000Y-61000000D03*
X94500000Y-61000000D03*
X109500000Y-59000000D03*
X112500000Y-55000000D03*
X108000000Y-47500000D03*
X106500000Y-48000000D03*
X104000000Y-37000000D03*
X110000000Y-37000000D03*
X107000000Y-35000000D03*
X107000000Y-41500000D03*
X111500000Y-59000000D03*
X113500000Y-59000000D03*
X117500000Y-61000000D03*
X119500000Y-61000000D03*
X121500000Y-61000000D03*
X125500000Y-61000000D03*
X123500000Y-61000000D03*
X119500000Y-59000000D03*
X117500000Y-59000000D03*
X125500000Y-59000000D03*
X123500000Y-59000000D03*
X121500000Y-59000000D03*
X109500000Y-57000000D03*
X111500000Y-57000000D03*
X113500000Y-57000000D03*
X115500000Y-57000000D03*
X115500000Y-60000000D03*
X102500000Y-74000000D03*
X104500000Y-74000000D03*
X90500000Y-74000000D03*
X94500000Y-74000000D03*
X96500000Y-74000000D03*
X100500000Y-74000000D03*
X92500000Y-74000000D03*
X88500000Y-74000000D03*
X98500000Y-74000000D03*
X114500000Y-74000000D03*
X108500000Y-74000000D03*
X106500000Y-74000000D03*
X110500000Y-74000000D03*
X116500000Y-74000000D03*
X112500000Y-74000000D03*
X118500000Y-74000000D03*
X120500000Y-74000000D03*
X124500000Y-74000000D03*
X122500000Y-74000000D03*
X126500000Y-74000000D03*
X106500000Y-76000000D03*
X114500000Y-76000000D03*
X120500000Y-76000000D03*
X96500000Y-76000000D03*
X110500000Y-76000000D03*
X108500000Y-76000000D03*
X126500000Y-76000000D03*
X118500000Y-76000000D03*
X90500000Y-76000000D03*
X104500000Y-76000000D03*
X124500000Y-76000000D03*
X112500000Y-76000000D03*
X88500000Y-76000000D03*
X92500000Y-76000000D03*
X116500000Y-76000000D03*
X98500000Y-76000000D03*
X94500000Y-76000000D03*
X122500000Y-76000000D03*
X100500000Y-76000000D03*
X102500000Y-76000000D03*
X116500000Y-58000000D03*
X107000000Y-61000000D03*
X109500000Y-61000000D03*
X107000000Y-57000000D03*
X104500000Y-57000000D03*
X87000000Y-54000000D03*
X83000000Y-54000000D03*
X85000000Y-54000000D03*
X83000000Y-53000000D03*
X87000000Y-53000000D03*
X85000000Y-53000000D03*
X85000000Y-66000000D03*
X83000000Y-67000000D03*
X83000000Y-66000000D03*
X87000000Y-66000000D03*
X87000000Y-67000000D03*
X85000000Y-67000000D03*
X87000000Y-69000000D03*
X85000000Y-69000000D03*
X83000000Y-68000000D03*
X83000000Y-69000000D03*
X87000000Y-68000000D03*
X85000000Y-68000000D03*
X87000000Y-81000000D03*
X85000000Y-82000000D03*
X83000000Y-81000000D03*
X87000000Y-82000000D03*
X85000000Y-81000000D03*
X83000000Y-82000000D03*
X132000000Y-81000000D03*
X130000000Y-81000000D03*
X128000000Y-81000000D03*
X130000000Y-82000000D03*
X132000000Y-82000000D03*
X128000000Y-82000000D03*
X128000000Y-68000000D03*
X130000000Y-69000000D03*
X132000000Y-68000000D03*
X130000000Y-68000000D03*
X128000000Y-69000000D03*
X132000000Y-69000000D03*
X132000000Y-66000000D03*
X128000000Y-66000000D03*
X128000000Y-67000000D03*
X130000000Y-66000000D03*
X132000000Y-67000000D03*
X130000000Y-67000000D03*
X132000000Y-54000000D03*
X132000000Y-53000000D03*
X130000000Y-54000000D03*
X128000000Y-54000000D03*
X128000000Y-53000000D03*
X130000000Y-53000000D03*
X88600000Y-46200000D03*
D16*
G36*
X131341453Y-28275535D02*
G01*
X131669900Y-28374699D01*
X131972832Y-28535771D01*
X132238708Y-28752615D01*
X132457404Y-29016973D01*
X132620583Y-29318766D01*
X132722039Y-29646520D01*
X132759095Y-29999076D01*
X132759101Y-30000845D01*
X132759101Y-54769079D01*
X132717247Y-54734731D01*
X132662090Y-54705249D01*
X132602241Y-54687094D01*
X132540000Y-54680964D01*
X130269875Y-54682500D01*
X130190500Y-54761875D01*
X130190500Y-55559500D01*
X130210500Y-55559500D01*
X130210500Y-55940500D01*
X130190500Y-55940500D01*
X130190500Y-56738125D01*
X130269875Y-56817500D01*
X132540000Y-56819036D01*
X132602241Y-56812906D01*
X132662090Y-56794751D01*
X132717247Y-56765269D01*
X132759100Y-56730921D01*
X132759100Y-63269079D01*
X132717247Y-63234731D01*
X132662090Y-63205249D01*
X132602241Y-63187094D01*
X132540000Y-63180964D01*
X130269875Y-63182500D01*
X130190500Y-63261875D01*
X130190500Y-64059500D01*
X130210500Y-64059500D01*
X130210500Y-64440500D01*
X130190500Y-64440500D01*
X130190500Y-65238125D01*
X130269875Y-65317500D01*
X132540000Y-65319036D01*
X132602241Y-65312906D01*
X132662090Y-65294751D01*
X132717247Y-65265269D01*
X132759100Y-65230921D01*
X132759100Y-69769079D01*
X132717247Y-69734731D01*
X132662090Y-69705249D01*
X132602241Y-69687094D01*
X132540000Y-69680964D01*
X130269875Y-69682500D01*
X130190500Y-69761875D01*
X130190500Y-70559500D01*
X130210500Y-70559500D01*
X130210500Y-70940500D01*
X130190500Y-70940500D01*
X130190500Y-71738125D01*
X130269875Y-71817500D01*
X132540000Y-71819036D01*
X132602241Y-71812906D01*
X132662090Y-71794751D01*
X132717247Y-71765269D01*
X132759100Y-71730921D01*
X132759100Y-78269078D01*
X132717247Y-78234731D01*
X132662090Y-78205249D01*
X132602241Y-78187094D01*
X132540000Y-78180964D01*
X130269875Y-78182500D01*
X130190500Y-78261875D01*
X130190500Y-79059500D01*
X130210500Y-79059500D01*
X130210500Y-79440500D01*
X130190500Y-79440500D01*
X130190500Y-80238125D01*
X130269875Y-80317500D01*
X132540000Y-80319036D01*
X132602241Y-80312906D01*
X132662090Y-80294751D01*
X132717247Y-80265269D01*
X132759100Y-80230922D01*
X132759100Y-81988221D01*
X132724465Y-82341455D01*
X132625301Y-82669900D01*
X132464229Y-82972832D01*
X132247385Y-83238708D01*
X131983033Y-83457400D01*
X131681234Y-83620583D01*
X131353480Y-83722039D01*
X131000924Y-83759095D01*
X130999440Y-83759100D01*
X84011779Y-83759100D01*
X83658545Y-83724465D01*
X83330100Y-83625301D01*
X83027168Y-83464229D01*
X82761292Y-83247385D01*
X82542600Y-82983033D01*
X82379417Y-82681234D01*
X82277961Y-82353480D01*
X82240905Y-82000924D01*
X82240900Y-81999440D01*
X82240900Y-80230922D01*
X82282753Y-80265269D01*
X82337910Y-80294751D01*
X82397759Y-80312906D01*
X82460000Y-80319036D01*
X84730125Y-80317500D01*
X84809500Y-80238125D01*
X84809500Y-79440500D01*
X85190500Y-79440500D01*
X85190500Y-80238125D01*
X85269875Y-80317500D01*
X87540000Y-80319036D01*
X87602241Y-80312906D01*
X87662090Y-80294751D01*
X87717247Y-80265269D01*
X87765593Y-80225593D01*
X87805269Y-80177247D01*
X87834751Y-80122090D01*
X87852906Y-80062241D01*
X87859036Y-80000000D01*
X127140964Y-80000000D01*
X127147094Y-80062241D01*
X127165249Y-80122090D01*
X127194731Y-80177247D01*
X127234407Y-80225593D01*
X127282753Y-80265269D01*
X127337910Y-80294751D01*
X127397759Y-80312906D01*
X127460000Y-80319036D01*
X129730125Y-80317500D01*
X129809500Y-80238125D01*
X129809500Y-79440500D01*
X127221875Y-79440500D01*
X127142500Y-79519875D01*
X127140964Y-80000000D01*
X87859036Y-80000000D01*
X87857500Y-79519875D01*
X87778125Y-79440500D01*
X85190500Y-79440500D01*
X84809500Y-79440500D01*
X84789500Y-79440500D01*
X84789500Y-79059500D01*
X84809500Y-79059500D01*
X84809500Y-78261875D01*
X85190500Y-78261875D01*
X85190500Y-79059500D01*
X87778125Y-79059500D01*
X87857500Y-78980125D01*
X87859036Y-78500000D01*
X127140964Y-78500000D01*
X127142500Y-78980125D01*
X127221875Y-79059500D01*
X129809500Y-79059500D01*
X129809500Y-78261875D01*
X129730125Y-78182500D01*
X127460000Y-78180964D01*
X127397759Y-78187094D01*
X127337910Y-78205249D01*
X127282753Y-78234731D01*
X127234407Y-78274407D01*
X127194731Y-78322753D01*
X127165249Y-78377910D01*
X127147094Y-78437759D01*
X127140964Y-78500000D01*
X87859036Y-78500000D01*
X87852906Y-78437759D01*
X87834751Y-78377910D01*
X87805269Y-78322753D01*
X87765593Y-78274407D01*
X87717247Y-78234731D01*
X87662090Y-78205249D01*
X87602241Y-78187094D01*
X87540000Y-78180964D01*
X85269875Y-78182500D01*
X85190500Y-78261875D01*
X84809500Y-78261875D01*
X84730125Y-78182500D01*
X82460000Y-78180964D01*
X82397759Y-78187094D01*
X82337910Y-78205249D01*
X82282753Y-78234731D01*
X82240900Y-78269078D01*
X82240900Y-71730922D01*
X82282753Y-71765269D01*
X82337910Y-71794751D01*
X82397759Y-71812906D01*
X82460000Y-71819036D01*
X84730125Y-71817500D01*
X84809500Y-71738125D01*
X84809500Y-70940500D01*
X85190500Y-70940500D01*
X85190500Y-71738125D01*
X85269875Y-71817500D01*
X87540000Y-71819036D01*
X87602241Y-71812906D01*
X87662090Y-71794751D01*
X87717247Y-71765269D01*
X87765593Y-71725593D01*
X87805269Y-71677247D01*
X87834751Y-71622090D01*
X87852906Y-71562241D01*
X87859036Y-71500000D01*
X127140964Y-71500000D01*
X127147094Y-71562241D01*
X127165249Y-71622090D01*
X127194731Y-71677247D01*
X127234407Y-71725593D01*
X127282753Y-71765269D01*
X127337910Y-71794751D01*
X127397759Y-71812906D01*
X127460000Y-71819036D01*
X129730125Y-71817500D01*
X129809500Y-71738125D01*
X129809500Y-70940500D01*
X127221875Y-70940500D01*
X127142500Y-71019875D01*
X127140964Y-71500000D01*
X87859036Y-71500000D01*
X87857500Y-71019875D01*
X87778125Y-70940500D01*
X85190500Y-70940500D01*
X84809500Y-70940500D01*
X84789500Y-70940500D01*
X84789500Y-70559500D01*
X84809500Y-70559500D01*
X84809500Y-69761875D01*
X85190500Y-69761875D01*
X85190500Y-70559500D01*
X87778125Y-70559500D01*
X87857500Y-70480125D01*
X87859036Y-70000000D01*
X127140964Y-70000000D01*
X127142500Y-70480125D01*
X127221875Y-70559500D01*
X129809500Y-70559500D01*
X129809500Y-69761875D01*
X129730125Y-69682500D01*
X127460000Y-69680964D01*
X127397759Y-69687094D01*
X127337910Y-69705249D01*
X127282753Y-69734731D01*
X127234407Y-69774407D01*
X127194731Y-69822753D01*
X127165249Y-69877910D01*
X127147094Y-69937759D01*
X127140964Y-70000000D01*
X87859036Y-70000000D01*
X87852906Y-69937759D01*
X87834751Y-69877910D01*
X87805269Y-69822753D01*
X87765593Y-69774407D01*
X87717247Y-69734731D01*
X87662090Y-69705249D01*
X87602241Y-69687094D01*
X87540000Y-69680964D01*
X85269875Y-69682500D01*
X85190500Y-69761875D01*
X84809500Y-69761875D01*
X84730125Y-69682500D01*
X82460000Y-69680964D01*
X82397759Y-69687094D01*
X82337910Y-69705249D01*
X82282753Y-69734731D01*
X82240900Y-69769078D01*
X82240900Y-65230922D01*
X82282753Y-65265269D01*
X82337910Y-65294751D01*
X82397759Y-65312906D01*
X82460000Y-65319036D01*
X84730125Y-65317500D01*
X84809500Y-65238125D01*
X84809500Y-64440500D01*
X85190500Y-64440500D01*
X85190500Y-65238125D01*
X85269875Y-65317500D01*
X87540000Y-65319036D01*
X87602241Y-65312906D01*
X87662090Y-65294751D01*
X87717247Y-65265269D01*
X87765593Y-65225593D01*
X87805269Y-65177247D01*
X87834751Y-65122090D01*
X87852906Y-65062241D01*
X87859036Y-65000000D01*
X127140964Y-65000000D01*
X127147094Y-65062241D01*
X127165249Y-65122090D01*
X127194731Y-65177247D01*
X127234407Y-65225593D01*
X127282753Y-65265269D01*
X127337910Y-65294751D01*
X127397759Y-65312906D01*
X127460000Y-65319036D01*
X129730125Y-65317500D01*
X129809500Y-65238125D01*
X129809500Y-64440500D01*
X127221875Y-64440500D01*
X127142500Y-64519875D01*
X127140964Y-65000000D01*
X87859036Y-65000000D01*
X87857500Y-64519875D01*
X87778125Y-64440500D01*
X85190500Y-64440500D01*
X84809500Y-64440500D01*
X84789500Y-64440500D01*
X84789500Y-64059500D01*
X84809500Y-64059500D01*
X84809500Y-63261875D01*
X85190500Y-63261875D01*
X85190500Y-64059500D01*
X87778125Y-64059500D01*
X87857500Y-63980125D01*
X87859036Y-63500000D01*
X127140964Y-63500000D01*
X127142500Y-63980125D01*
X127221875Y-64059500D01*
X129809500Y-64059500D01*
X129809500Y-63261875D01*
X129730125Y-63182500D01*
X127460000Y-63180964D01*
X127397759Y-63187094D01*
X127337910Y-63205249D01*
X127282753Y-63234731D01*
X127234407Y-63274407D01*
X127194731Y-63322753D01*
X127165249Y-63377910D01*
X127147094Y-63437759D01*
X127140964Y-63500000D01*
X87859036Y-63500000D01*
X87852906Y-63437759D01*
X87834751Y-63377910D01*
X87805269Y-63322753D01*
X87765593Y-63274407D01*
X87717247Y-63234731D01*
X87662090Y-63205249D01*
X87602241Y-63187094D01*
X87540000Y-63180964D01*
X85269875Y-63182500D01*
X85190500Y-63261875D01*
X84809500Y-63261875D01*
X84730125Y-63182500D01*
X82460000Y-63180964D01*
X82397759Y-63187094D01*
X82337910Y-63205249D01*
X82282753Y-63234731D01*
X82240900Y-63269078D01*
X82240900Y-56730922D01*
X82282753Y-56765269D01*
X82337910Y-56794751D01*
X82397759Y-56812906D01*
X82460000Y-56819036D01*
X84730125Y-56817500D01*
X84809500Y-56738125D01*
X84809500Y-55940500D01*
X85190500Y-55940500D01*
X85190500Y-56738125D01*
X85269875Y-56817500D01*
X87540000Y-56819036D01*
X87602241Y-56812906D01*
X87662090Y-56794751D01*
X87717247Y-56765269D01*
X87765593Y-56725593D01*
X87805269Y-56677247D01*
X87834751Y-56622090D01*
X87852906Y-56562241D01*
X87859036Y-56500000D01*
X127140964Y-56500000D01*
X127147094Y-56562241D01*
X127165249Y-56622090D01*
X127194731Y-56677247D01*
X127234407Y-56725593D01*
X127282753Y-56765269D01*
X127337910Y-56794751D01*
X127397759Y-56812906D01*
X127460000Y-56819036D01*
X129730125Y-56817500D01*
X129809500Y-56738125D01*
X129809500Y-55940500D01*
X127221875Y-55940500D01*
X127142500Y-56019875D01*
X127140964Y-56500000D01*
X87859036Y-56500000D01*
X87857500Y-56019875D01*
X87778125Y-55940500D01*
X85190500Y-55940500D01*
X84809500Y-55940500D01*
X84789500Y-55940500D01*
X84789500Y-55559500D01*
X84809500Y-55559500D01*
X84809500Y-54761875D01*
X85190500Y-54761875D01*
X85190500Y-55559500D01*
X87778125Y-55559500D01*
X87857500Y-55480125D01*
X87859036Y-55000000D01*
X127140964Y-55000000D01*
X127142500Y-55480125D01*
X127221875Y-55559500D01*
X129809500Y-55559500D01*
X129809500Y-54761875D01*
X129730125Y-54682500D01*
X127460000Y-54680964D01*
X127397759Y-54687094D01*
X127337910Y-54705249D01*
X127282753Y-54734731D01*
X127234407Y-54774407D01*
X127194731Y-54822753D01*
X127165249Y-54877910D01*
X127147094Y-54937759D01*
X127140964Y-55000000D01*
X87859036Y-55000000D01*
X87852906Y-54937759D01*
X87834751Y-54877910D01*
X87805269Y-54822753D01*
X87765593Y-54774407D01*
X87717247Y-54734731D01*
X87662090Y-54705249D01*
X87602241Y-54687094D01*
X87540000Y-54680964D01*
X85269875Y-54682500D01*
X85190500Y-54761875D01*
X84809500Y-54761875D01*
X84730125Y-54682500D01*
X82460000Y-54680964D01*
X82397759Y-54687094D01*
X82337910Y-54705249D01*
X82282753Y-54734731D01*
X82240900Y-54769078D01*
X82240900Y-49828555D01*
X83055846Y-49828555D01*
X83131161Y-50035835D01*
X83250710Y-50177971D01*
X83395692Y-50294053D01*
X83560534Y-50379620D01*
X83738902Y-50431384D01*
X83923942Y-50447355D01*
X84072000Y-50354527D01*
X84072000Y-49690500D01*
X84453000Y-49690500D01*
X84453000Y-50354527D01*
X84601058Y-50447355D01*
X84786098Y-50431384D01*
X84964466Y-50379620D01*
X85129308Y-50294053D01*
X85274290Y-50177971D01*
X85393839Y-50035835D01*
X85469154Y-49828555D01*
X85428688Y-49690500D01*
X84453000Y-49690500D01*
X84072000Y-49690500D01*
X83096312Y-49690500D01*
X83055846Y-49828555D01*
X82240900Y-49828555D01*
X82240900Y-49171445D01*
X83055846Y-49171445D01*
X83096312Y-49309500D01*
X84072000Y-49309500D01*
X84072000Y-48645473D01*
X84453000Y-48645473D01*
X84453000Y-49309500D01*
X85428688Y-49309500D01*
X85429737Y-49305919D01*
X86425988Y-49305919D01*
X86511154Y-49445323D01*
X86704249Y-49515212D01*
X86907269Y-49546087D01*
X87112412Y-49536761D01*
X87311794Y-49487593D01*
X87413846Y-49445323D01*
X87499012Y-49305919D01*
X86962500Y-48769408D01*
X86425988Y-49305919D01*
X85429737Y-49305919D01*
X85469154Y-49171445D01*
X85393839Y-48964165D01*
X85274290Y-48822029D01*
X85129308Y-48705947D01*
X84964466Y-48620380D01*
X84786098Y-48568616D01*
X84601058Y-48552645D01*
X84453000Y-48645473D01*
X84072000Y-48645473D01*
X83923942Y-48552645D01*
X83738902Y-48568616D01*
X83560534Y-48620380D01*
X83395692Y-48705947D01*
X83250710Y-48822029D01*
X83131161Y-48964165D01*
X83055846Y-49171445D01*
X82240900Y-49171445D01*
X82240900Y-48444769D01*
X85916413Y-48444769D01*
X85925739Y-48649912D01*
X85974907Y-48849294D01*
X86017177Y-48951346D01*
X86156581Y-49036512D01*
X86693092Y-48500000D01*
X87231908Y-48500000D01*
X87768419Y-49036512D01*
X87907823Y-48951346D01*
X87977712Y-48758251D01*
X88008587Y-48555231D01*
X87999261Y-48350088D01*
X87950093Y-48150706D01*
X87907823Y-48048654D01*
X87768419Y-47963488D01*
X87231908Y-48500000D01*
X86693092Y-48500000D01*
X86156581Y-47963488D01*
X86017177Y-48048654D01*
X85947288Y-48241749D01*
X85916413Y-48444769D01*
X82240900Y-48444769D01*
X82240900Y-47694081D01*
X86425988Y-47694081D01*
X86962500Y-48230592D01*
X87499012Y-47694081D01*
X87413846Y-47554677D01*
X87220751Y-47484788D01*
X87017731Y-47453913D01*
X86812588Y-47463239D01*
X86613206Y-47512407D01*
X86511154Y-47554677D01*
X86425988Y-47694081D01*
X82240900Y-47694081D01*
X82240900Y-44305919D01*
X86425988Y-44305919D01*
X86511154Y-44445323D01*
X86704249Y-44515212D01*
X86907269Y-44546087D01*
X87112412Y-44536761D01*
X87311794Y-44487593D01*
X87413846Y-44445323D01*
X87499012Y-44305919D01*
X86962500Y-43769408D01*
X86425988Y-44305919D01*
X82240900Y-44305919D01*
X82240900Y-42828555D01*
X83055846Y-42828555D01*
X83131161Y-43035835D01*
X83250710Y-43177971D01*
X83395692Y-43294053D01*
X83560534Y-43379620D01*
X83738902Y-43431384D01*
X83923942Y-43447355D01*
X84072000Y-43354527D01*
X84072000Y-42690500D01*
X84453000Y-42690500D01*
X84453000Y-43354527D01*
X84601058Y-43447355D01*
X84631019Y-43444769D01*
X85916413Y-43444769D01*
X85925739Y-43649912D01*
X85974907Y-43849294D01*
X86017177Y-43951346D01*
X86156581Y-44036512D01*
X86693092Y-43500000D01*
X87231908Y-43500000D01*
X87768419Y-44036512D01*
X87907823Y-43951346D01*
X87977712Y-43758251D01*
X88008587Y-43555231D01*
X87999261Y-43350088D01*
X87950093Y-43150706D01*
X87907823Y-43048654D01*
X87768419Y-42963488D01*
X87231908Y-43500000D01*
X86693092Y-43500000D01*
X86156581Y-42963488D01*
X86017177Y-43048654D01*
X85947288Y-43241749D01*
X85916413Y-43444769D01*
X84631019Y-43444769D01*
X84786098Y-43431384D01*
X84964466Y-43379620D01*
X85129308Y-43294053D01*
X85274290Y-43177971D01*
X85393839Y-43035835D01*
X85469154Y-42828555D01*
X85429738Y-42694081D01*
X86425988Y-42694081D01*
X86962500Y-43230592D01*
X87499012Y-42694081D01*
X87413846Y-42554677D01*
X87220751Y-42484788D01*
X87017731Y-42453913D01*
X86812588Y-42463239D01*
X86613206Y-42512407D01*
X86511154Y-42554677D01*
X86425988Y-42694081D01*
X85429738Y-42694081D01*
X85428688Y-42690500D01*
X84453000Y-42690500D01*
X84072000Y-42690500D01*
X83096312Y-42690500D01*
X83055846Y-42828555D01*
X82240900Y-42828555D01*
X82240900Y-42171445D01*
X83055846Y-42171445D01*
X83096312Y-42309500D01*
X84072000Y-42309500D01*
X84072000Y-41645473D01*
X84453000Y-41645473D01*
X84453000Y-42309500D01*
X85428688Y-42309500D01*
X85469154Y-42171445D01*
X85393839Y-41964165D01*
X85274290Y-41822029D01*
X85129308Y-41705947D01*
X84964466Y-41620380D01*
X84786098Y-41568616D01*
X84601058Y-41552645D01*
X84453000Y-41645473D01*
X84072000Y-41645473D01*
X83923942Y-41552645D01*
X83738902Y-41568616D01*
X83560534Y-41620380D01*
X83395692Y-41705947D01*
X83250710Y-41822029D01*
X83131161Y-41964165D01*
X83055846Y-42171445D01*
X82240900Y-42171445D01*
X82240900Y-39825000D01*
X91033056Y-39825000D01*
X91033056Y-41575000D01*
X91054037Y-41788028D01*
X91116175Y-41992869D01*
X91217082Y-42181652D01*
X91352879Y-42347121D01*
X91518348Y-42482918D01*
X91707131Y-42583825D01*
X91911972Y-42645963D01*
X92125000Y-42666944D01*
X93875000Y-42666944D01*
X94088028Y-42645963D01*
X94292869Y-42583825D01*
X94481652Y-42482918D01*
X94647121Y-42347121D01*
X94782918Y-42181652D01*
X94883825Y-41992869D01*
X94945963Y-41788028D01*
X94966944Y-41575000D01*
X94966944Y-39825000D01*
X94945963Y-39611972D01*
X94883825Y-39407131D01*
X94782918Y-39218348D01*
X94647121Y-39052879D01*
X94481652Y-38917082D01*
X94292869Y-38816175D01*
X94088028Y-38754037D01*
X93875000Y-38733056D01*
X92125000Y-38733056D01*
X91911972Y-38754037D01*
X91707131Y-38816175D01*
X91518348Y-38917082D01*
X91352879Y-39052879D01*
X91217082Y-39218348D01*
X91116175Y-39407131D01*
X91054037Y-39611972D01*
X91033056Y-39825000D01*
X82240900Y-39825000D01*
X82240900Y-37750000D01*
X88180964Y-37750000D01*
X88187094Y-37812241D01*
X88205249Y-37872090D01*
X88234731Y-37927247D01*
X88274407Y-37975593D01*
X88322753Y-38015269D01*
X88377910Y-38044751D01*
X88437759Y-38062906D01*
X88500000Y-38069036D01*
X89730125Y-38067500D01*
X89809500Y-37988125D01*
X89809500Y-36190500D01*
X90190500Y-36190500D01*
X90190500Y-37988125D01*
X90269875Y-38067500D01*
X91500000Y-38069036D01*
X91562241Y-38062906D01*
X91622090Y-38044751D01*
X91677247Y-38015269D01*
X91725593Y-37975593D01*
X91765269Y-37927247D01*
X91794751Y-37872090D01*
X91812906Y-37812241D01*
X91819036Y-37750000D01*
X91817500Y-36269875D01*
X91738125Y-36190500D01*
X90190500Y-36190500D01*
X89809500Y-36190500D01*
X88261875Y-36190500D01*
X88182500Y-36269875D01*
X88180964Y-37750000D01*
X82240900Y-37750000D01*
X82240900Y-34250000D01*
X88180964Y-34250000D01*
X88182500Y-35730125D01*
X88261875Y-35809500D01*
X89809500Y-35809500D01*
X89809500Y-34011875D01*
X90190500Y-34011875D01*
X90190500Y-35809500D01*
X91738125Y-35809500D01*
X91817500Y-35730125D01*
X91819036Y-34250000D01*
X94033056Y-34250000D01*
X94033056Y-37750000D01*
X94037225Y-37792324D01*
X94049570Y-37833021D01*
X94069618Y-37870528D01*
X94096597Y-37903403D01*
X94129472Y-37930382D01*
X94166979Y-37950430D01*
X94207676Y-37962775D01*
X94250000Y-37966944D01*
X97750000Y-37966944D01*
X97792324Y-37962775D01*
X97833021Y-37950430D01*
X97870528Y-37930382D01*
X97903403Y-37903403D01*
X97930382Y-37870528D01*
X97950430Y-37833021D01*
X97962775Y-37792324D01*
X97966944Y-37750000D01*
X97966944Y-34250000D01*
X97962775Y-34207676D01*
X97950430Y-34166979D01*
X97930382Y-34129472D01*
X97903403Y-34096597D01*
X97870528Y-34069618D01*
X97833021Y-34049570D01*
X97792324Y-34037225D01*
X97750000Y-34033056D01*
X94250000Y-34033056D01*
X94207676Y-34037225D01*
X94166979Y-34049570D01*
X94129472Y-34069618D01*
X94096597Y-34096597D01*
X94069618Y-34129472D01*
X94049570Y-34166979D01*
X94037225Y-34207676D01*
X94033056Y-34250000D01*
X91819036Y-34250000D01*
X91812906Y-34187759D01*
X91794751Y-34127910D01*
X91765269Y-34072753D01*
X91725593Y-34024407D01*
X91677247Y-33984731D01*
X91622090Y-33955249D01*
X91562241Y-33937094D01*
X91500000Y-33930964D01*
X90269875Y-33932500D01*
X90190500Y-34011875D01*
X89809500Y-34011875D01*
X89730125Y-33932500D01*
X88500000Y-33930964D01*
X88437759Y-33937094D01*
X88377910Y-33955249D01*
X88322753Y-33984731D01*
X88274407Y-34024407D01*
X88234731Y-34072753D01*
X88205249Y-34127910D01*
X88187094Y-34187759D01*
X88180964Y-34250000D01*
X82240900Y-34250000D01*
X82240900Y-30011779D01*
X82275535Y-29658547D01*
X82374699Y-29330100D01*
X82535771Y-29027168D01*
X82752615Y-28761292D01*
X83016973Y-28542596D01*
X83318766Y-28379417D01*
X83646520Y-28277961D01*
X83999076Y-28240905D01*
X84000560Y-28240900D01*
X130988221Y-28240900D01*
X131341453Y-28275535D01*
G37*
X131341453Y-28275535D02*
X131669900Y-28374699D01*
X131972832Y-28535771D01*
X132238708Y-28752615D01*
X132457404Y-29016973D01*
X132620583Y-29318766D01*
X132722039Y-29646520D01*
X132759095Y-29999076D01*
X132759101Y-30000845D01*
X132759101Y-54769079D01*
X132717247Y-54734731D01*
X132662090Y-54705249D01*
X132602241Y-54687094D01*
X132540000Y-54680964D01*
X130269875Y-54682500D01*
X130190500Y-54761875D01*
X130190500Y-55559500D01*
X130210500Y-55559500D01*
X130210500Y-55940500D01*
X130190500Y-55940500D01*
X130190500Y-56738125D01*
X130269875Y-56817500D01*
X132540000Y-56819036D01*
X132602241Y-56812906D01*
X132662090Y-56794751D01*
X132717247Y-56765269D01*
X132759100Y-56730921D01*
X132759100Y-63269079D01*
X132717247Y-63234731D01*
X132662090Y-63205249D01*
X132602241Y-63187094D01*
X132540000Y-63180964D01*
X130269875Y-63182500D01*
X130190500Y-63261875D01*
X130190500Y-64059500D01*
X130210500Y-64059500D01*
X130210500Y-64440500D01*
X130190500Y-64440500D01*
X130190500Y-65238125D01*
X130269875Y-65317500D01*
X132540000Y-65319036D01*
X132602241Y-65312906D01*
X132662090Y-65294751D01*
X132717247Y-65265269D01*
X132759100Y-65230921D01*
X132759100Y-69769079D01*
X132717247Y-69734731D01*
X132662090Y-69705249D01*
X132602241Y-69687094D01*
X132540000Y-69680964D01*
X130269875Y-69682500D01*
X130190500Y-69761875D01*
X130190500Y-70559500D01*
X130210500Y-70559500D01*
X130210500Y-70940500D01*
X130190500Y-70940500D01*
X130190500Y-71738125D01*
X130269875Y-71817500D01*
X132540000Y-71819036D01*
X132602241Y-71812906D01*
X132662090Y-71794751D01*
X132717247Y-71765269D01*
X132759100Y-71730921D01*
X132759100Y-78269078D01*
X132717247Y-78234731D01*
X132662090Y-78205249D01*
X132602241Y-78187094D01*
X132540000Y-78180964D01*
X130269875Y-78182500D01*
X130190500Y-78261875D01*
X130190500Y-79059500D01*
X130210500Y-79059500D01*
X130210500Y-79440500D01*
X130190500Y-79440500D01*
X130190500Y-80238125D01*
X130269875Y-80317500D01*
X132540000Y-80319036D01*
X132602241Y-80312906D01*
X132662090Y-80294751D01*
X132717247Y-80265269D01*
X132759100Y-80230922D01*
X132759100Y-81988221D01*
X132724465Y-82341455D01*
X132625301Y-82669900D01*
X132464229Y-82972832D01*
X132247385Y-83238708D01*
X131983033Y-83457400D01*
X131681234Y-83620583D01*
X131353480Y-83722039D01*
X131000924Y-83759095D01*
X130999440Y-83759100D01*
X84011779Y-83759100D01*
X83658545Y-83724465D01*
X83330100Y-83625301D01*
X83027168Y-83464229D01*
X82761292Y-83247385D01*
X82542600Y-82983033D01*
X82379417Y-82681234D01*
X82277961Y-82353480D01*
X82240905Y-82000924D01*
X82240900Y-81999440D01*
X82240900Y-80230922D01*
X82282753Y-80265269D01*
X82337910Y-80294751D01*
X82397759Y-80312906D01*
X82460000Y-80319036D01*
X84730125Y-80317500D01*
X84809500Y-80238125D01*
X84809500Y-79440500D01*
X85190500Y-79440500D01*
X85190500Y-80238125D01*
X85269875Y-80317500D01*
X87540000Y-80319036D01*
X87602241Y-80312906D01*
X87662090Y-80294751D01*
X87717247Y-80265269D01*
X87765593Y-80225593D01*
X87805269Y-80177247D01*
X87834751Y-80122090D01*
X87852906Y-80062241D01*
X87859036Y-80000000D01*
X127140964Y-80000000D01*
X127147094Y-80062241D01*
X127165249Y-80122090D01*
X127194731Y-80177247D01*
X127234407Y-80225593D01*
X127282753Y-80265269D01*
X127337910Y-80294751D01*
X127397759Y-80312906D01*
X127460000Y-80319036D01*
X129730125Y-80317500D01*
X129809500Y-80238125D01*
X129809500Y-79440500D01*
X127221875Y-79440500D01*
X127142500Y-79519875D01*
X127140964Y-80000000D01*
X87859036Y-80000000D01*
X87857500Y-79519875D01*
X87778125Y-79440500D01*
X85190500Y-79440500D01*
X84809500Y-79440500D01*
X84789500Y-79440500D01*
X84789500Y-79059500D01*
X84809500Y-79059500D01*
X84809500Y-78261875D01*
X85190500Y-78261875D01*
X85190500Y-79059500D01*
X87778125Y-79059500D01*
X87857500Y-78980125D01*
X87859036Y-78500000D01*
X127140964Y-78500000D01*
X127142500Y-78980125D01*
X127221875Y-79059500D01*
X129809500Y-79059500D01*
X129809500Y-78261875D01*
X129730125Y-78182500D01*
X127460000Y-78180964D01*
X127397759Y-78187094D01*
X127337910Y-78205249D01*
X127282753Y-78234731D01*
X127234407Y-78274407D01*
X127194731Y-78322753D01*
X127165249Y-78377910D01*
X127147094Y-78437759D01*
X127140964Y-78500000D01*
X87859036Y-78500000D01*
X87852906Y-78437759D01*
X87834751Y-78377910D01*
X87805269Y-78322753D01*
X87765593Y-78274407D01*
X87717247Y-78234731D01*
X87662090Y-78205249D01*
X87602241Y-78187094D01*
X87540000Y-78180964D01*
X85269875Y-78182500D01*
X85190500Y-78261875D01*
X84809500Y-78261875D01*
X84730125Y-78182500D01*
X82460000Y-78180964D01*
X82397759Y-78187094D01*
X82337910Y-78205249D01*
X82282753Y-78234731D01*
X82240900Y-78269078D01*
X82240900Y-71730922D01*
X82282753Y-71765269D01*
X82337910Y-71794751D01*
X82397759Y-71812906D01*
X82460000Y-71819036D01*
X84730125Y-71817500D01*
X84809500Y-71738125D01*
X84809500Y-70940500D01*
X85190500Y-70940500D01*
X85190500Y-71738125D01*
X85269875Y-71817500D01*
X87540000Y-71819036D01*
X87602241Y-71812906D01*
X87662090Y-71794751D01*
X87717247Y-71765269D01*
X87765593Y-71725593D01*
X87805269Y-71677247D01*
X87834751Y-71622090D01*
X87852906Y-71562241D01*
X87859036Y-71500000D01*
X127140964Y-71500000D01*
X127147094Y-71562241D01*
X127165249Y-71622090D01*
X127194731Y-71677247D01*
X127234407Y-71725593D01*
X127282753Y-71765269D01*
X127337910Y-71794751D01*
X127397759Y-71812906D01*
X127460000Y-71819036D01*
X129730125Y-71817500D01*
X129809500Y-71738125D01*
X129809500Y-70940500D01*
X127221875Y-70940500D01*
X127142500Y-71019875D01*
X127140964Y-71500000D01*
X87859036Y-71500000D01*
X87857500Y-71019875D01*
X87778125Y-70940500D01*
X85190500Y-70940500D01*
X84809500Y-70940500D01*
X84789500Y-70940500D01*
X84789500Y-70559500D01*
X84809500Y-70559500D01*
X84809500Y-69761875D01*
X85190500Y-69761875D01*
X85190500Y-70559500D01*
X87778125Y-70559500D01*
X87857500Y-70480125D01*
X87859036Y-70000000D01*
X127140964Y-70000000D01*
X127142500Y-70480125D01*
X127221875Y-70559500D01*
X129809500Y-70559500D01*
X129809500Y-69761875D01*
X129730125Y-69682500D01*
X127460000Y-69680964D01*
X127397759Y-69687094D01*
X127337910Y-69705249D01*
X127282753Y-69734731D01*
X127234407Y-69774407D01*
X127194731Y-69822753D01*
X127165249Y-69877910D01*
X127147094Y-69937759D01*
X127140964Y-70000000D01*
X87859036Y-70000000D01*
X87852906Y-69937759D01*
X87834751Y-69877910D01*
X87805269Y-69822753D01*
X87765593Y-69774407D01*
X87717247Y-69734731D01*
X87662090Y-69705249D01*
X87602241Y-69687094D01*
X87540000Y-69680964D01*
X85269875Y-69682500D01*
X85190500Y-69761875D01*
X84809500Y-69761875D01*
X84730125Y-69682500D01*
X82460000Y-69680964D01*
X82397759Y-69687094D01*
X82337910Y-69705249D01*
X82282753Y-69734731D01*
X82240900Y-69769078D01*
X82240900Y-65230922D01*
X82282753Y-65265269D01*
X82337910Y-65294751D01*
X82397759Y-65312906D01*
X82460000Y-65319036D01*
X84730125Y-65317500D01*
X84809500Y-65238125D01*
X84809500Y-64440500D01*
X85190500Y-64440500D01*
X85190500Y-65238125D01*
X85269875Y-65317500D01*
X87540000Y-65319036D01*
X87602241Y-65312906D01*
X87662090Y-65294751D01*
X87717247Y-65265269D01*
X87765593Y-65225593D01*
X87805269Y-65177247D01*
X87834751Y-65122090D01*
X87852906Y-65062241D01*
X87859036Y-65000000D01*
X127140964Y-65000000D01*
X127147094Y-65062241D01*
X127165249Y-65122090D01*
X127194731Y-65177247D01*
X127234407Y-65225593D01*
X127282753Y-65265269D01*
X127337910Y-65294751D01*
X127397759Y-65312906D01*
X127460000Y-65319036D01*
X129730125Y-65317500D01*
X129809500Y-65238125D01*
X129809500Y-64440500D01*
X127221875Y-64440500D01*
X127142500Y-64519875D01*
X127140964Y-65000000D01*
X87859036Y-65000000D01*
X87857500Y-64519875D01*
X87778125Y-64440500D01*
X85190500Y-64440500D01*
X84809500Y-64440500D01*
X84789500Y-64440500D01*
X84789500Y-64059500D01*
X84809500Y-64059500D01*
X84809500Y-63261875D01*
X85190500Y-63261875D01*
X85190500Y-64059500D01*
X87778125Y-64059500D01*
X87857500Y-63980125D01*
X87859036Y-63500000D01*
X127140964Y-63500000D01*
X127142500Y-63980125D01*
X127221875Y-64059500D01*
X129809500Y-64059500D01*
X129809500Y-63261875D01*
X129730125Y-63182500D01*
X127460000Y-63180964D01*
X127397759Y-63187094D01*
X127337910Y-63205249D01*
X127282753Y-63234731D01*
X127234407Y-63274407D01*
X127194731Y-63322753D01*
X127165249Y-63377910D01*
X127147094Y-63437759D01*
X127140964Y-63500000D01*
X87859036Y-63500000D01*
X87852906Y-63437759D01*
X87834751Y-63377910D01*
X87805269Y-63322753D01*
X87765593Y-63274407D01*
X87717247Y-63234731D01*
X87662090Y-63205249D01*
X87602241Y-63187094D01*
X87540000Y-63180964D01*
X85269875Y-63182500D01*
X85190500Y-63261875D01*
X84809500Y-63261875D01*
X84730125Y-63182500D01*
X82460000Y-63180964D01*
X82397759Y-63187094D01*
X82337910Y-63205249D01*
X82282753Y-63234731D01*
X82240900Y-63269078D01*
X82240900Y-56730922D01*
X82282753Y-56765269D01*
X82337910Y-56794751D01*
X82397759Y-56812906D01*
X82460000Y-56819036D01*
X84730125Y-56817500D01*
X84809500Y-56738125D01*
X84809500Y-55940500D01*
X85190500Y-55940500D01*
X85190500Y-56738125D01*
X85269875Y-56817500D01*
X87540000Y-56819036D01*
X87602241Y-56812906D01*
X87662090Y-56794751D01*
X87717247Y-56765269D01*
X87765593Y-56725593D01*
X87805269Y-56677247D01*
X87834751Y-56622090D01*
X87852906Y-56562241D01*
X87859036Y-56500000D01*
X127140964Y-56500000D01*
X127147094Y-56562241D01*
X127165249Y-56622090D01*
X127194731Y-56677247D01*
X127234407Y-56725593D01*
X127282753Y-56765269D01*
X127337910Y-56794751D01*
X127397759Y-56812906D01*
X127460000Y-56819036D01*
X129730125Y-56817500D01*
X129809500Y-56738125D01*
X129809500Y-55940500D01*
X127221875Y-55940500D01*
X127142500Y-56019875D01*
X127140964Y-56500000D01*
X87859036Y-56500000D01*
X87857500Y-56019875D01*
X87778125Y-55940500D01*
X85190500Y-55940500D01*
X84809500Y-55940500D01*
X84789500Y-55940500D01*
X84789500Y-55559500D01*
X84809500Y-55559500D01*
X84809500Y-54761875D01*
X85190500Y-54761875D01*
X85190500Y-55559500D01*
X87778125Y-55559500D01*
X87857500Y-55480125D01*
X87859036Y-55000000D01*
X127140964Y-55000000D01*
X127142500Y-55480125D01*
X127221875Y-55559500D01*
X129809500Y-55559500D01*
X129809500Y-54761875D01*
X129730125Y-54682500D01*
X127460000Y-54680964D01*
X127397759Y-54687094D01*
X127337910Y-54705249D01*
X127282753Y-54734731D01*
X127234407Y-54774407D01*
X127194731Y-54822753D01*
X127165249Y-54877910D01*
X127147094Y-54937759D01*
X127140964Y-55000000D01*
X87859036Y-55000000D01*
X87852906Y-54937759D01*
X87834751Y-54877910D01*
X87805269Y-54822753D01*
X87765593Y-54774407D01*
X87717247Y-54734731D01*
X87662090Y-54705249D01*
X87602241Y-54687094D01*
X87540000Y-54680964D01*
X85269875Y-54682500D01*
X85190500Y-54761875D01*
X84809500Y-54761875D01*
X84730125Y-54682500D01*
X82460000Y-54680964D01*
X82397759Y-54687094D01*
X82337910Y-54705249D01*
X82282753Y-54734731D01*
X82240900Y-54769078D01*
X82240900Y-49828555D01*
X83055846Y-49828555D01*
X83131161Y-50035835D01*
X83250710Y-50177971D01*
X83395692Y-50294053D01*
X83560534Y-50379620D01*
X83738902Y-50431384D01*
X83923942Y-50447355D01*
X84072000Y-50354527D01*
X84072000Y-49690500D01*
X84453000Y-49690500D01*
X84453000Y-50354527D01*
X84601058Y-50447355D01*
X84786098Y-50431384D01*
X84964466Y-50379620D01*
X85129308Y-50294053D01*
X85274290Y-50177971D01*
X85393839Y-50035835D01*
X85469154Y-49828555D01*
X85428688Y-49690500D01*
X84453000Y-49690500D01*
X84072000Y-49690500D01*
X83096312Y-49690500D01*
X83055846Y-49828555D01*
X82240900Y-49828555D01*
X82240900Y-49171445D01*
X83055846Y-49171445D01*
X83096312Y-49309500D01*
X84072000Y-49309500D01*
X84072000Y-48645473D01*
X84453000Y-48645473D01*
X84453000Y-49309500D01*
X85428688Y-49309500D01*
X85429737Y-49305919D01*
X86425988Y-49305919D01*
X86511154Y-49445323D01*
X86704249Y-49515212D01*
X86907269Y-49546087D01*
X87112412Y-49536761D01*
X87311794Y-49487593D01*
X87413846Y-49445323D01*
X87499012Y-49305919D01*
X86962500Y-48769408D01*
X86425988Y-49305919D01*
X85429737Y-49305919D01*
X85469154Y-49171445D01*
X85393839Y-48964165D01*
X85274290Y-48822029D01*
X85129308Y-48705947D01*
X84964466Y-48620380D01*
X84786098Y-48568616D01*
X84601058Y-48552645D01*
X84453000Y-48645473D01*
X84072000Y-48645473D01*
X83923942Y-48552645D01*
X83738902Y-48568616D01*
X83560534Y-48620380D01*
X83395692Y-48705947D01*
X83250710Y-48822029D01*
X83131161Y-48964165D01*
X83055846Y-49171445D01*
X82240900Y-49171445D01*
X82240900Y-48444769D01*
X85916413Y-48444769D01*
X85925739Y-48649912D01*
X85974907Y-48849294D01*
X86017177Y-48951346D01*
X86156581Y-49036512D01*
X86693092Y-48500000D01*
X87231908Y-48500000D01*
X87768419Y-49036512D01*
X87907823Y-48951346D01*
X87977712Y-48758251D01*
X88008587Y-48555231D01*
X87999261Y-48350088D01*
X87950093Y-48150706D01*
X87907823Y-48048654D01*
X87768419Y-47963488D01*
X87231908Y-48500000D01*
X86693092Y-48500000D01*
X86156581Y-47963488D01*
X86017177Y-48048654D01*
X85947288Y-48241749D01*
X85916413Y-48444769D01*
X82240900Y-48444769D01*
X82240900Y-47694081D01*
X86425988Y-47694081D01*
X86962500Y-48230592D01*
X87499012Y-47694081D01*
X87413846Y-47554677D01*
X87220751Y-47484788D01*
X87017731Y-47453913D01*
X86812588Y-47463239D01*
X86613206Y-47512407D01*
X86511154Y-47554677D01*
X86425988Y-47694081D01*
X82240900Y-47694081D01*
X82240900Y-44305919D01*
X86425988Y-44305919D01*
X86511154Y-44445323D01*
X86704249Y-44515212D01*
X86907269Y-44546087D01*
X87112412Y-44536761D01*
X87311794Y-44487593D01*
X87413846Y-44445323D01*
X87499012Y-44305919D01*
X86962500Y-43769408D01*
X86425988Y-44305919D01*
X82240900Y-44305919D01*
X82240900Y-42828555D01*
X83055846Y-42828555D01*
X83131161Y-43035835D01*
X83250710Y-43177971D01*
X83395692Y-43294053D01*
X83560534Y-43379620D01*
X83738902Y-43431384D01*
X83923942Y-43447355D01*
X84072000Y-43354527D01*
X84072000Y-42690500D01*
X84453000Y-42690500D01*
X84453000Y-43354527D01*
X84601058Y-43447355D01*
X84631019Y-43444769D01*
X85916413Y-43444769D01*
X85925739Y-43649912D01*
X85974907Y-43849294D01*
X86017177Y-43951346D01*
X86156581Y-44036512D01*
X86693092Y-43500000D01*
X87231908Y-43500000D01*
X87768419Y-44036512D01*
X87907823Y-43951346D01*
X87977712Y-43758251D01*
X88008587Y-43555231D01*
X87999261Y-43350088D01*
X87950093Y-43150706D01*
X87907823Y-43048654D01*
X87768419Y-42963488D01*
X87231908Y-43500000D01*
X86693092Y-43500000D01*
X86156581Y-42963488D01*
X86017177Y-43048654D01*
X85947288Y-43241749D01*
X85916413Y-43444769D01*
X84631019Y-43444769D01*
X84786098Y-43431384D01*
X84964466Y-43379620D01*
X85129308Y-43294053D01*
X85274290Y-43177971D01*
X85393839Y-43035835D01*
X85469154Y-42828555D01*
X85429738Y-42694081D01*
X86425988Y-42694081D01*
X86962500Y-43230592D01*
X87499012Y-42694081D01*
X87413846Y-42554677D01*
X87220751Y-42484788D01*
X87017731Y-42453913D01*
X86812588Y-42463239D01*
X86613206Y-42512407D01*
X86511154Y-42554677D01*
X86425988Y-42694081D01*
X85429738Y-42694081D01*
X85428688Y-42690500D01*
X84453000Y-42690500D01*
X84072000Y-42690500D01*
X83096312Y-42690500D01*
X83055846Y-42828555D01*
X82240900Y-42828555D01*
X82240900Y-42171445D01*
X83055846Y-42171445D01*
X83096312Y-42309500D01*
X84072000Y-42309500D01*
X84072000Y-41645473D01*
X84453000Y-41645473D01*
X84453000Y-42309500D01*
X85428688Y-42309500D01*
X85469154Y-42171445D01*
X85393839Y-41964165D01*
X85274290Y-41822029D01*
X85129308Y-41705947D01*
X84964466Y-41620380D01*
X84786098Y-41568616D01*
X84601058Y-41552645D01*
X84453000Y-41645473D01*
X84072000Y-41645473D01*
X83923942Y-41552645D01*
X83738902Y-41568616D01*
X83560534Y-41620380D01*
X83395692Y-41705947D01*
X83250710Y-41822029D01*
X83131161Y-41964165D01*
X83055846Y-42171445D01*
X82240900Y-42171445D01*
X82240900Y-39825000D01*
X91033056Y-39825000D01*
X91033056Y-41575000D01*
X91054037Y-41788028D01*
X91116175Y-41992869D01*
X91217082Y-42181652D01*
X91352879Y-42347121D01*
X91518348Y-42482918D01*
X91707131Y-42583825D01*
X91911972Y-42645963D01*
X92125000Y-42666944D01*
X93875000Y-42666944D01*
X94088028Y-42645963D01*
X94292869Y-42583825D01*
X94481652Y-42482918D01*
X94647121Y-42347121D01*
X94782918Y-42181652D01*
X94883825Y-41992869D01*
X94945963Y-41788028D01*
X94966944Y-41575000D01*
X94966944Y-39825000D01*
X94945963Y-39611972D01*
X94883825Y-39407131D01*
X94782918Y-39218348D01*
X94647121Y-39052879D01*
X94481652Y-38917082D01*
X94292869Y-38816175D01*
X94088028Y-38754037D01*
X93875000Y-38733056D01*
X92125000Y-38733056D01*
X91911972Y-38754037D01*
X91707131Y-38816175D01*
X91518348Y-38917082D01*
X91352879Y-39052879D01*
X91217082Y-39218348D01*
X91116175Y-39407131D01*
X91054037Y-39611972D01*
X91033056Y-39825000D01*
X82240900Y-39825000D01*
X82240900Y-37750000D01*
X88180964Y-37750000D01*
X88187094Y-37812241D01*
X88205249Y-37872090D01*
X88234731Y-37927247D01*
X88274407Y-37975593D01*
X88322753Y-38015269D01*
X88377910Y-38044751D01*
X88437759Y-38062906D01*
X88500000Y-38069036D01*
X89730125Y-38067500D01*
X89809500Y-37988125D01*
X89809500Y-36190500D01*
X90190500Y-36190500D01*
X90190500Y-37988125D01*
X90269875Y-38067500D01*
X91500000Y-38069036D01*
X91562241Y-38062906D01*
X91622090Y-38044751D01*
X91677247Y-38015269D01*
X91725593Y-37975593D01*
X91765269Y-37927247D01*
X91794751Y-37872090D01*
X91812906Y-37812241D01*
X91819036Y-37750000D01*
X91817500Y-36269875D01*
X91738125Y-36190500D01*
X90190500Y-36190500D01*
X89809500Y-36190500D01*
X88261875Y-36190500D01*
X88182500Y-36269875D01*
X88180964Y-37750000D01*
X82240900Y-37750000D01*
X82240900Y-34250000D01*
X88180964Y-34250000D01*
X88182500Y-35730125D01*
X88261875Y-35809500D01*
X89809500Y-35809500D01*
X89809500Y-34011875D01*
X90190500Y-34011875D01*
X90190500Y-35809500D01*
X91738125Y-35809500D01*
X91817500Y-35730125D01*
X91819036Y-34250000D01*
X94033056Y-34250000D01*
X94033056Y-37750000D01*
X94037225Y-37792324D01*
X94049570Y-37833021D01*
X94069618Y-37870528D01*
X94096597Y-37903403D01*
X94129472Y-37930382D01*
X94166979Y-37950430D01*
X94207676Y-37962775D01*
X94250000Y-37966944D01*
X97750000Y-37966944D01*
X97792324Y-37962775D01*
X97833021Y-37950430D01*
X97870528Y-37930382D01*
X97903403Y-37903403D01*
X97930382Y-37870528D01*
X97950430Y-37833021D01*
X97962775Y-37792324D01*
X97966944Y-37750000D01*
X97966944Y-34250000D01*
X97962775Y-34207676D01*
X97950430Y-34166979D01*
X97930382Y-34129472D01*
X97903403Y-34096597D01*
X97870528Y-34069618D01*
X97833021Y-34049570D01*
X97792324Y-34037225D01*
X97750000Y-34033056D01*
X94250000Y-34033056D01*
X94207676Y-34037225D01*
X94166979Y-34049570D01*
X94129472Y-34069618D01*
X94096597Y-34096597D01*
X94069618Y-34129472D01*
X94049570Y-34166979D01*
X94037225Y-34207676D01*
X94033056Y-34250000D01*
X91819036Y-34250000D01*
X91812906Y-34187759D01*
X91794751Y-34127910D01*
X91765269Y-34072753D01*
X91725593Y-34024407D01*
X91677247Y-33984731D01*
X91622090Y-33955249D01*
X91562241Y-33937094D01*
X91500000Y-33930964D01*
X90269875Y-33932500D01*
X90190500Y-34011875D01*
X89809500Y-34011875D01*
X89730125Y-33932500D01*
X88500000Y-33930964D01*
X88437759Y-33937094D01*
X88377910Y-33955249D01*
X88322753Y-33984731D01*
X88274407Y-34024407D01*
X88234731Y-34072753D01*
X88205249Y-34127910D01*
X88187094Y-34187759D01*
X88180964Y-34250000D01*
X82240900Y-34250000D01*
X82240900Y-30011779D01*
X82275535Y-29658547D01*
X82374699Y-29330100D01*
X82535771Y-29027168D01*
X82752615Y-28761292D01*
X83016973Y-28542596D01*
X83318766Y-28379417D01*
X83646520Y-28277961D01*
X83999076Y-28240905D01*
X84000560Y-28240900D01*
X130988221Y-28240900D01*
X131341453Y-28275535D01*
M02*
