M48
; DRILL file {KiCad 5.1.5-52549c5~86~ubuntu18.04.1} date Sun 03 May 2020 10:10:51 PM EDT
; FORMAT={-:-/ absolute / inch / decimal}
; #@! TF.CreationDate,2020-05-03T22:10:51-04:00
; #@! TF.GenerationSoftware,Kicad,Pcbnew,5.1.5-52549c5~86~ubuntu18.04.1
; #@! TF.FileFunction,Plated,1,2,PTH
FMAT,2
INCH
T1C0.0157
T2C0.0236
T3C0.0335
T4C0.0394
%
G90
G05
T1
X3.2677Y-2.0866
X3.2677Y-2.126
X3.2677Y-2.5984
X3.2677Y-2.6378
X3.2677Y-2.6772
X3.2677Y-2.7165
X3.2677Y-3.189
X3.2677Y-3.2283
X3.3465Y-2.0866
X3.3465Y-2.126
X3.3465Y-2.5984
X3.3465Y-2.6378
X3.3465Y-2.6772
X3.3465Y-2.7165
X3.3465Y-3.189
X3.3465Y-3.2283
X3.4252Y-2.0866
X3.4252Y-2.126
X3.4252Y-2.5984
X3.4252Y-2.6378
X3.4252Y-2.6772
X3.4252Y-2.7165
X3.4252Y-3.189
X3.4252Y-3.2283
X3.4843Y-2.1949
X3.4843Y-2.3228
X3.4843Y-2.4016
X3.4843Y-2.5295
X3.4843Y-2.7854
X3.4843Y-2.9134
X3.4843Y-2.9921
X3.4843Y-3.1201
X3.4882Y-1.8189
X3.563Y-2.3228
X3.563Y-2.4016
X3.563Y-2.9134
X3.563Y-2.9921
X3.6417Y-2.3228
X3.6417Y-2.4016
X3.6417Y-2.9134
X3.6417Y-2.9921
X3.7205Y-2.3228
X3.7205Y-2.4016
X3.7205Y-2.9134
X3.7205Y-2.9921
X3.7992Y-2.3228
X3.7992Y-2.4016
X3.7992Y-2.9134
X3.7992Y-2.9921
X3.878Y-2.3228
X3.878Y-2.4016
X3.878Y-2.9134
X3.878Y-2.9921
X3.9567Y-2.3228
X3.9567Y-2.4016
X3.9567Y-2.9134
X3.9567Y-2.9921
X4.0354Y-2.3228
X4.0354Y-2.4016
X4.0354Y-2.9134
X4.0354Y-2.9921
X4.0945Y-1.4567
X4.1142Y-2.2441
X4.1142Y-2.3228
X4.1142Y-2.4016
X4.1142Y-2.9134
X4.1142Y-2.9921
X4.1929Y-1.8898
X4.1929Y-2.9134
X4.1929Y-2.9921
X4.2126Y-1.378
X4.2126Y-1.6339
X4.2126Y-2.2441
X4.2126Y-2.4016
X4.252Y-1.8701
X4.2717Y-2.9134
X4.2717Y-2.9921
X4.311Y-2.2441
X4.311Y-2.3228
X4.311Y-2.4016
X4.3307Y-1.4567
X4.3504Y-2.9134
X4.3504Y-2.9921
X4.3898Y-2.2441
X4.3898Y-2.3228
X4.4291Y-2.1654
X4.4291Y-2.9134
X4.4291Y-2.9921
X4.4685Y-2.2441
X4.4685Y-2.3228
X4.5079Y-2.9134
X4.5079Y-2.9921
X4.5472Y-2.2441
X4.5472Y-2.3622
X4.5866Y-2.2835
X4.5866Y-2.9134
X4.5866Y-2.9921
X4.626Y-2.3228
X4.626Y-2.4016
X4.6654Y-2.9134
X4.6654Y-2.9921
X4.7047Y-2.3228
X4.7047Y-2.4016
X4.7441Y-2.9134
X4.7441Y-2.9921
X4.7835Y-2.3228
X4.7835Y-2.4016
X4.8228Y-2.9134
X4.8228Y-2.9921
X4.8622Y-2.3228
X4.8622Y-2.4016
X4.9016Y-2.9134
X4.9016Y-2.9921
X4.9409Y-2.3228
X4.9409Y-2.4016
X4.9803Y-2.1949
X4.9803Y-2.5295
X4.9803Y-2.7854
X4.9803Y-2.9134
X4.9803Y-2.9921
X4.9803Y-3.1201
X5.0394Y-2.0866
X5.0394Y-2.126
X5.0394Y-2.5984
X5.0394Y-2.6378
X5.0394Y-2.6772
X5.0394Y-2.7165
X5.0394Y-3.189
X5.0394Y-3.2283
X5.1181Y-2.0866
X5.1181Y-2.126
X5.1181Y-2.5984
X5.1181Y-2.6378
X5.1181Y-2.6772
X5.1181Y-2.7165
X5.1181Y-3.189
X5.1181Y-3.2283
X5.1969Y-2.0866
X5.1969Y-2.126
X5.1969Y-2.5984
X5.1969Y-2.6378
X5.1969Y-2.6772
X5.1969Y-2.7165
X5.1969Y-3.189
X5.1969Y-3.2283
T3
X3.4237Y-1.7126
X3.4237Y-1.9094
T2
G00X3.3036Y-1.6732
M15
G01X3.3312Y-1.6732
M16
G05
G00X3.3312Y-1.9488
M15
G01X3.3036Y-1.9488
M16
G05
T4
G00X3.5433Y-1.378
M15
G01X3.5433Y-1.4567
M16
G05
G00X3.622Y-1.6024
M15
G01X3.7008Y-1.6024
M16
G05
G00X3.7795Y-1.378
M15
G01X3.7795Y-1.4567
M16
G05
T0
M30
