G04 #@! TF.GenerationSoftware,KiCad,Pcbnew,5.1.5-52549c5~86~ubuntu18.04.1*
G04 #@! TF.CreationDate,2020-05-03T22:10:49-04:00*
G04 #@! TF.ProjectId,lna-filt,6c6e612d-6669-46c7-942e-6b696361645f,rev?*
G04 #@! TF.SameCoordinates,Original*
G04 #@! TF.FileFunction,Soldermask,Bot*
G04 #@! TF.FilePolarity,Negative*
%FSLAX46Y46*%
G04 Gerber Fmt 4.6, Leading zero omitted, Abs format (unit mm)*
G04 Created by KiCad (PCBNEW 5.1.5-52549c5~86~ubuntu18.04.1) date 2020-05-03 22:10:49*
%MOMM*%
%LPD*%
G04 APERTURE LIST*
%ADD10C,0.100000*%
G04 APERTURE END LIST*
D10*
G36*
X87591000Y-80051000D02*
G01*
X82409000Y-80051000D01*
X82409000Y-78449000D01*
X87591000Y-78449000D01*
X87591000Y-80051000D01*
G37*
G36*
X132591000Y-80051000D02*
G01*
X127409000Y-80051000D01*
X127409000Y-78449000D01*
X132591000Y-78449000D01*
X132591000Y-80051000D01*
G37*
G36*
X87591000Y-71551000D02*
G01*
X82409000Y-71551000D01*
X82409000Y-69949000D01*
X87591000Y-69949000D01*
X87591000Y-71551000D01*
G37*
G36*
X132591000Y-71551000D02*
G01*
X127409000Y-71551000D01*
X127409000Y-69949000D01*
X132591000Y-69949000D01*
X132591000Y-71551000D01*
G37*
G36*
X132591000Y-65051000D02*
G01*
X127409000Y-65051000D01*
X127409000Y-63449000D01*
X132591000Y-63449000D01*
X132591000Y-65051000D01*
G37*
G36*
X87591000Y-65051000D02*
G01*
X82409000Y-65051000D01*
X82409000Y-63449000D01*
X87591000Y-63449000D01*
X87591000Y-65051000D01*
G37*
G36*
X87591000Y-56551000D02*
G01*
X82409000Y-56551000D01*
X82409000Y-54949000D01*
X87591000Y-54949000D01*
X87591000Y-56551000D01*
G37*
G36*
X132591000Y-56551000D02*
G01*
X127409000Y-56551000D01*
X127409000Y-54949000D01*
X132591000Y-54949000D01*
X132591000Y-56551000D01*
G37*
G36*
X84676355Y-48852140D02*
G01*
X84740118Y-48858420D01*
X84830904Y-48885960D01*
X84862836Y-48895646D01*
X84975925Y-48956094D01*
X85075054Y-49037446D01*
X85156406Y-49136575D01*
X85216854Y-49249664D01*
X85216855Y-49249668D01*
X85254080Y-49372382D01*
X85266649Y-49500000D01*
X85254080Y-49627618D01*
X85226540Y-49718404D01*
X85216854Y-49750336D01*
X85156406Y-49863425D01*
X85075054Y-49962554D01*
X84975925Y-50043906D01*
X84862836Y-50104354D01*
X84830904Y-50114040D01*
X84740118Y-50141580D01*
X84676355Y-50147860D01*
X84644474Y-50151000D01*
X83880526Y-50151000D01*
X83848645Y-50147860D01*
X83784882Y-50141580D01*
X83694096Y-50114040D01*
X83662164Y-50104354D01*
X83549075Y-50043906D01*
X83449946Y-49962554D01*
X83368594Y-49863425D01*
X83308146Y-49750336D01*
X83298460Y-49718404D01*
X83270920Y-49627618D01*
X83258351Y-49500000D01*
X83270920Y-49372382D01*
X83308145Y-49249668D01*
X83308146Y-49249664D01*
X83368594Y-49136575D01*
X83449946Y-49037446D01*
X83549075Y-48956094D01*
X83662164Y-48895646D01*
X83694096Y-48885960D01*
X83784882Y-48858420D01*
X83848645Y-48852140D01*
X83880526Y-48849000D01*
X84644474Y-48849000D01*
X84676355Y-48852140D01*
G37*
G36*
X87188848Y-47753820D02*
G01*
X87188850Y-47753821D01*
X87188851Y-47753821D01*
X87330074Y-47812317D01*
X87330077Y-47812319D01*
X87457169Y-47897239D01*
X87565261Y-48005331D01*
X87650181Y-48132423D01*
X87650183Y-48132426D01*
X87708679Y-48273649D01*
X87738500Y-48423571D01*
X87738500Y-48576429D01*
X87708679Y-48726351D01*
X87650183Y-48867574D01*
X87650181Y-48867577D01*
X87565261Y-48994669D01*
X87457169Y-49102761D01*
X87330077Y-49187681D01*
X87330074Y-49187683D01*
X87188851Y-49246179D01*
X87188850Y-49246179D01*
X87188848Y-49246180D01*
X87038931Y-49276000D01*
X86886069Y-49276000D01*
X86736152Y-49246180D01*
X86736150Y-49246179D01*
X86736149Y-49246179D01*
X86594926Y-49187683D01*
X86594923Y-49187681D01*
X86467831Y-49102761D01*
X86359739Y-48994669D01*
X86274819Y-48867577D01*
X86274817Y-48867574D01*
X86216321Y-48726351D01*
X86186500Y-48576429D01*
X86186500Y-48423571D01*
X86216321Y-48273649D01*
X86274817Y-48132426D01*
X86274819Y-48132423D01*
X86359739Y-48005331D01*
X86467831Y-47897239D01*
X86594923Y-47812319D01*
X86594926Y-47812317D01*
X86736149Y-47753821D01*
X86736150Y-47753821D01*
X86736152Y-47753820D01*
X86886069Y-47724000D01*
X87038931Y-47724000D01*
X87188848Y-47753820D01*
G37*
G36*
X87188848Y-42753820D02*
G01*
X87188850Y-42753821D01*
X87188851Y-42753821D01*
X87330074Y-42812317D01*
X87330077Y-42812319D01*
X87457169Y-42897239D01*
X87565261Y-43005331D01*
X87650181Y-43132423D01*
X87650183Y-43132426D01*
X87708679Y-43273649D01*
X87738500Y-43423571D01*
X87738500Y-43576429D01*
X87708679Y-43726351D01*
X87650183Y-43867574D01*
X87650181Y-43867577D01*
X87565261Y-43994669D01*
X87457169Y-44102761D01*
X87330077Y-44187681D01*
X87330074Y-44187683D01*
X87188851Y-44246179D01*
X87188850Y-44246179D01*
X87188848Y-44246180D01*
X87038931Y-44276000D01*
X86886069Y-44276000D01*
X86736152Y-44246180D01*
X86736150Y-44246179D01*
X86736149Y-44246179D01*
X86594926Y-44187683D01*
X86594923Y-44187681D01*
X86467831Y-44102761D01*
X86359739Y-43994669D01*
X86274819Y-43867577D01*
X86274817Y-43867574D01*
X86216321Y-43726351D01*
X86186500Y-43576429D01*
X86186500Y-43423571D01*
X86216321Y-43273649D01*
X86274817Y-43132426D01*
X86274819Y-43132423D01*
X86359739Y-43005331D01*
X86467831Y-42897239D01*
X86594923Y-42812319D01*
X86594926Y-42812317D01*
X86736149Y-42753821D01*
X86736150Y-42753821D01*
X86736152Y-42753820D01*
X86886069Y-42724000D01*
X87038931Y-42724000D01*
X87188848Y-42753820D01*
G37*
G36*
X84676355Y-41852140D02*
G01*
X84740118Y-41858420D01*
X84830904Y-41885960D01*
X84862836Y-41895646D01*
X84975925Y-41956094D01*
X85075054Y-42037446D01*
X85156406Y-42136575D01*
X85216854Y-42249664D01*
X85216855Y-42249668D01*
X85254080Y-42372382D01*
X85266649Y-42500000D01*
X85254080Y-42627618D01*
X85226540Y-42718404D01*
X85216854Y-42750336D01*
X85156406Y-42863425D01*
X85075054Y-42962554D01*
X84975925Y-43043906D01*
X84862836Y-43104354D01*
X84830904Y-43114040D01*
X84740118Y-43141580D01*
X84676355Y-43147860D01*
X84644474Y-43151000D01*
X83880526Y-43151000D01*
X83848645Y-43147860D01*
X83784882Y-43141580D01*
X83694096Y-43114040D01*
X83662164Y-43104354D01*
X83549075Y-43043906D01*
X83449946Y-42962554D01*
X83368594Y-42863425D01*
X83308146Y-42750336D01*
X83298460Y-42718404D01*
X83270920Y-42627618D01*
X83258351Y-42500000D01*
X83270920Y-42372382D01*
X83308145Y-42249668D01*
X83308146Y-42249664D01*
X83368594Y-42136575D01*
X83449946Y-42037446D01*
X83549075Y-41956094D01*
X83662164Y-41895646D01*
X83694096Y-41885960D01*
X83784882Y-41858420D01*
X83848645Y-41852140D01*
X83880526Y-41849000D01*
X84644474Y-41849000D01*
X84676355Y-41852140D01*
G37*
G36*
X94126366Y-38915695D02*
G01*
X94283460Y-38963349D01*
X94428231Y-39040731D01*
X94555128Y-39144872D01*
X94659269Y-39271769D01*
X94736651Y-39416540D01*
X94784305Y-39573634D01*
X94801000Y-39743140D01*
X94801000Y-41656860D01*
X94784305Y-41826366D01*
X94736651Y-41983460D01*
X94659269Y-42128231D01*
X94555128Y-42255128D01*
X94428231Y-42359269D01*
X94283460Y-42436651D01*
X94126366Y-42484305D01*
X93956860Y-42501000D01*
X92043140Y-42501000D01*
X91873634Y-42484305D01*
X91716540Y-42436651D01*
X91571769Y-42359269D01*
X91444872Y-42255128D01*
X91340731Y-42128231D01*
X91263349Y-41983460D01*
X91215695Y-41826366D01*
X91199000Y-41656860D01*
X91199000Y-39743140D01*
X91215695Y-39573634D01*
X91263349Y-39416540D01*
X91340731Y-39271769D01*
X91444872Y-39144872D01*
X91571769Y-39040731D01*
X91716540Y-38963349D01*
X91873634Y-38915695D01*
X92043140Y-38899000D01*
X93956860Y-38899000D01*
X94126366Y-38915695D01*
G37*
G36*
X90976979Y-34213293D02*
G01*
X91110625Y-34253834D01*
X91233784Y-34319664D01*
X91341740Y-34408260D01*
X91430336Y-34516216D01*
X91496166Y-34639375D01*
X91536707Y-34773021D01*
X91551000Y-34918140D01*
X91551000Y-37081860D01*
X91536707Y-37226979D01*
X91496166Y-37360625D01*
X91430336Y-37483784D01*
X91341740Y-37591740D01*
X91233784Y-37680336D01*
X91110625Y-37746166D01*
X90976979Y-37786707D01*
X90831860Y-37801000D01*
X89168140Y-37801000D01*
X89023021Y-37786707D01*
X88889375Y-37746166D01*
X88766216Y-37680336D01*
X88658260Y-37591740D01*
X88569664Y-37483784D01*
X88503834Y-37360625D01*
X88463293Y-37226979D01*
X88449000Y-37081860D01*
X88449000Y-34918140D01*
X88463293Y-34773021D01*
X88503834Y-34639375D01*
X88569664Y-34516216D01*
X88658260Y-34408260D01*
X88766216Y-34319664D01*
X88889375Y-34253834D01*
X89023021Y-34213293D01*
X89168140Y-34199000D01*
X90831860Y-34199000D01*
X90976979Y-34213293D01*
G37*
G36*
X97801000Y-37801000D02*
G01*
X94199000Y-37801000D01*
X94199000Y-34199000D01*
X97801000Y-34199000D01*
X97801000Y-37801000D01*
G37*
M02*
